%TF.GenerationSoftware,KiCad,Pcbnew,8.0.4*%
%TF.CreationDate,2024-08-30T08:53:53-06:00*%
%TF.ProjectId,SAO_MB_adapter,53414f5f-4d42-45f6-9164-61707465722e,rev?*%
%TF.SameCoordinates,Original*%
%TF.FileFunction,Legend,Bot*%
%TF.FilePolarity,Positive*%
%FSLAX46Y46*%
G04 Gerber Fmt 4.6, Leading zero omitted, Abs format (unit mm)*
G04 Created by KiCad (PCBNEW 8.0.4) date 2024-08-30 08:53:53*
%MOMM*%
%LPD*%
G01*
G04 APERTURE LIST*
%ADD10C,0.150000*%
%ADD11C,0.125000*%
%ADD12C,0.203200*%
%ADD13C,0.120000*%
G04 APERTURE END LIST*
D10*
X164249585Y-117322744D02*
X164999585Y-117322744D01*
X164999585Y-117322744D02*
X164999585Y-117037030D01*
X164999585Y-117037030D02*
X164963871Y-116965601D01*
X164963871Y-116965601D02*
X164928157Y-116929887D01*
X164928157Y-116929887D02*
X164856728Y-116894173D01*
X164856728Y-116894173D02*
X164749585Y-116894173D01*
X164749585Y-116894173D02*
X164678157Y-116929887D01*
X164678157Y-116929887D02*
X164642442Y-116965601D01*
X164642442Y-116965601D02*
X164606728Y-117037030D01*
X164606728Y-117037030D02*
X164606728Y-117322744D01*
X164249585Y-116572744D02*
X164749585Y-116572744D01*
X164999585Y-116572744D02*
X164963871Y-116608458D01*
X164963871Y-116608458D02*
X164928157Y-116572744D01*
X164928157Y-116572744D02*
X164963871Y-116537030D01*
X164963871Y-116537030D02*
X164999585Y-116572744D01*
X164999585Y-116572744D02*
X164928157Y-116572744D01*
X164749585Y-116215601D02*
X164249585Y-116215601D01*
X164678157Y-116215601D02*
X164713871Y-116179887D01*
X164713871Y-116179887D02*
X164749585Y-116108458D01*
X164749585Y-116108458D02*
X164749585Y-116001315D01*
X164749585Y-116001315D02*
X164713871Y-115929887D01*
X164713871Y-115929887D02*
X164642442Y-115894173D01*
X164642442Y-115894173D02*
X164249585Y-115894173D01*
X164999585Y-115179887D02*
X164999585Y-115537030D01*
X164999585Y-115537030D02*
X164642442Y-115572744D01*
X164642442Y-115572744D02*
X164678157Y-115537030D01*
X164678157Y-115537030D02*
X164713871Y-115465602D01*
X164713871Y-115465602D02*
X164713871Y-115287030D01*
X164713871Y-115287030D02*
X164678157Y-115215602D01*
X164678157Y-115215602D02*
X164642442Y-115179887D01*
X164642442Y-115179887D02*
X164571014Y-115144173D01*
X164571014Y-115144173D02*
X164392442Y-115144173D01*
X164392442Y-115144173D02*
X164321014Y-115179887D01*
X164321014Y-115179887D02*
X164285300Y-115215602D01*
X164285300Y-115215602D02*
X164249585Y-115287030D01*
X164249585Y-115287030D02*
X164249585Y-115465602D01*
X164249585Y-115465602D02*
X164285300Y-115537030D01*
X164285300Y-115537030D02*
X164321014Y-115572744D01*
X148386128Y-127570112D02*
X148350414Y-127498684D01*
X148350414Y-127498684D02*
X148350414Y-127391541D01*
X148350414Y-127391541D02*
X148386128Y-127284398D01*
X148386128Y-127284398D02*
X148457557Y-127212969D01*
X148457557Y-127212969D02*
X148528985Y-127177255D01*
X148528985Y-127177255D02*
X148671842Y-127141541D01*
X148671842Y-127141541D02*
X148778985Y-127141541D01*
X148778985Y-127141541D02*
X148921842Y-127177255D01*
X148921842Y-127177255D02*
X148993271Y-127212969D01*
X148993271Y-127212969D02*
X149064700Y-127284398D01*
X149064700Y-127284398D02*
X149100414Y-127391541D01*
X149100414Y-127391541D02*
X149100414Y-127462969D01*
X149100414Y-127462969D02*
X149064700Y-127570112D01*
X149064700Y-127570112D02*
X149028985Y-127605826D01*
X149028985Y-127605826D02*
X148778985Y-127605826D01*
X148778985Y-127605826D02*
X148778985Y-127462969D01*
X149100414Y-127927255D02*
X148350414Y-127927255D01*
X148350414Y-127927255D02*
X149100414Y-128355826D01*
X149100414Y-128355826D02*
X148350414Y-128355826D01*
X149100414Y-128712969D02*
X148350414Y-128712969D01*
X148350414Y-128712969D02*
X148350414Y-128891540D01*
X148350414Y-128891540D02*
X148386128Y-128998683D01*
X148386128Y-128998683D02*
X148457557Y-129070112D01*
X148457557Y-129070112D02*
X148528985Y-129105826D01*
X148528985Y-129105826D02*
X148671842Y-129141540D01*
X148671842Y-129141540D02*
X148778985Y-129141540D01*
X148778985Y-129141540D02*
X148921842Y-129105826D01*
X148921842Y-129105826D02*
X148993271Y-129070112D01*
X148993271Y-129070112D02*
X149064700Y-128998683D01*
X149064700Y-128998683D02*
X149100414Y-128891540D01*
X149100414Y-128891540D02*
X149100414Y-128712969D01*
X154436128Y-127620112D02*
X154400414Y-127548684D01*
X154400414Y-127548684D02*
X154400414Y-127441541D01*
X154400414Y-127441541D02*
X154436128Y-127334398D01*
X154436128Y-127334398D02*
X154507557Y-127262969D01*
X154507557Y-127262969D02*
X154578985Y-127227255D01*
X154578985Y-127227255D02*
X154721842Y-127191541D01*
X154721842Y-127191541D02*
X154828985Y-127191541D01*
X154828985Y-127191541D02*
X154971842Y-127227255D01*
X154971842Y-127227255D02*
X155043271Y-127262969D01*
X155043271Y-127262969D02*
X155114700Y-127334398D01*
X155114700Y-127334398D02*
X155150414Y-127441541D01*
X155150414Y-127441541D02*
X155150414Y-127512969D01*
X155150414Y-127512969D02*
X155114700Y-127620112D01*
X155114700Y-127620112D02*
X155078985Y-127655826D01*
X155078985Y-127655826D02*
X154828985Y-127655826D01*
X154828985Y-127655826D02*
X154828985Y-127512969D01*
X155150414Y-127977255D02*
X154400414Y-127977255D01*
X154400414Y-127977255D02*
X154400414Y-128262969D01*
X154400414Y-128262969D02*
X154436128Y-128334398D01*
X154436128Y-128334398D02*
X154471842Y-128370112D01*
X154471842Y-128370112D02*
X154543271Y-128405826D01*
X154543271Y-128405826D02*
X154650414Y-128405826D01*
X154650414Y-128405826D02*
X154721842Y-128370112D01*
X154721842Y-128370112D02*
X154757557Y-128334398D01*
X154757557Y-128334398D02*
X154793271Y-128262969D01*
X154793271Y-128262969D02*
X154793271Y-127977255D01*
X154471842Y-128691541D02*
X154436128Y-128727255D01*
X154436128Y-128727255D02*
X154400414Y-128798684D01*
X154400414Y-128798684D02*
X154400414Y-128977255D01*
X154400414Y-128977255D02*
X154436128Y-129048684D01*
X154436128Y-129048684D02*
X154471842Y-129084398D01*
X154471842Y-129084398D02*
X154543271Y-129120112D01*
X154543271Y-129120112D02*
X154614700Y-129120112D01*
X154614700Y-129120112D02*
X154721842Y-129084398D01*
X154721842Y-129084398D02*
X155150414Y-128655826D01*
X155150414Y-128655826D02*
X155150414Y-129120112D01*
X160186128Y-127620112D02*
X160150414Y-127548684D01*
X160150414Y-127548684D02*
X160150414Y-127441541D01*
X160150414Y-127441541D02*
X160186128Y-127334398D01*
X160186128Y-127334398D02*
X160257557Y-127262969D01*
X160257557Y-127262969D02*
X160328985Y-127227255D01*
X160328985Y-127227255D02*
X160471842Y-127191541D01*
X160471842Y-127191541D02*
X160578985Y-127191541D01*
X160578985Y-127191541D02*
X160721842Y-127227255D01*
X160721842Y-127227255D02*
X160793271Y-127262969D01*
X160793271Y-127262969D02*
X160864700Y-127334398D01*
X160864700Y-127334398D02*
X160900414Y-127441541D01*
X160900414Y-127441541D02*
X160900414Y-127512969D01*
X160900414Y-127512969D02*
X160864700Y-127620112D01*
X160864700Y-127620112D02*
X160828985Y-127655826D01*
X160828985Y-127655826D02*
X160578985Y-127655826D01*
X160578985Y-127655826D02*
X160578985Y-127512969D01*
X160900414Y-127977255D02*
X160150414Y-127977255D01*
X160150414Y-127977255D02*
X160150414Y-128262969D01*
X160150414Y-128262969D02*
X160186128Y-128334398D01*
X160186128Y-128334398D02*
X160221842Y-128370112D01*
X160221842Y-128370112D02*
X160293271Y-128405826D01*
X160293271Y-128405826D02*
X160400414Y-128405826D01*
X160400414Y-128405826D02*
X160471842Y-128370112D01*
X160471842Y-128370112D02*
X160507557Y-128334398D01*
X160507557Y-128334398D02*
X160543271Y-128262969D01*
X160543271Y-128262969D02*
X160543271Y-127977255D01*
X160900414Y-129120112D02*
X160900414Y-128691541D01*
X160900414Y-128905826D02*
X160150414Y-128905826D01*
X160150414Y-128905826D02*
X160257557Y-128834398D01*
X160257557Y-128834398D02*
X160328985Y-128762969D01*
X160328985Y-128762969D02*
X160364700Y-128691541D01*
X154149585Y-117322744D02*
X154899585Y-117322744D01*
X154899585Y-117322744D02*
X154899585Y-117037030D01*
X154899585Y-117037030D02*
X154863871Y-116965601D01*
X154863871Y-116965601D02*
X154828157Y-116929887D01*
X154828157Y-116929887D02*
X154756728Y-116894173D01*
X154756728Y-116894173D02*
X154649585Y-116894173D01*
X154649585Y-116894173D02*
X154578157Y-116929887D01*
X154578157Y-116929887D02*
X154542442Y-116965601D01*
X154542442Y-116965601D02*
X154506728Y-117037030D01*
X154506728Y-117037030D02*
X154506728Y-117322744D01*
X154149585Y-116572744D02*
X154649585Y-116572744D01*
X154899585Y-116572744D02*
X154863871Y-116608458D01*
X154863871Y-116608458D02*
X154828157Y-116572744D01*
X154828157Y-116572744D02*
X154863871Y-116537030D01*
X154863871Y-116537030D02*
X154899585Y-116572744D01*
X154899585Y-116572744D02*
X154828157Y-116572744D01*
X154649585Y-116215601D02*
X154149585Y-116215601D01*
X154578157Y-116215601D02*
X154613871Y-116179887D01*
X154613871Y-116179887D02*
X154649585Y-116108458D01*
X154649585Y-116108458D02*
X154649585Y-116001315D01*
X154649585Y-116001315D02*
X154613871Y-115929887D01*
X154613871Y-115929887D02*
X154542442Y-115894173D01*
X154542442Y-115894173D02*
X154149585Y-115894173D01*
X154649585Y-115215602D02*
X154149585Y-115215602D01*
X154935300Y-115394173D02*
X154399585Y-115572744D01*
X154399585Y-115572744D02*
X154399585Y-115108459D01*
X166499585Y-129194173D02*
X166499585Y-128729887D01*
X166499585Y-128729887D02*
X166213871Y-128979887D01*
X166213871Y-128979887D02*
X166213871Y-128872744D01*
X166213871Y-128872744D02*
X166178157Y-128801316D01*
X166178157Y-128801316D02*
X166142442Y-128765601D01*
X166142442Y-128765601D02*
X166071014Y-128729887D01*
X166071014Y-128729887D02*
X165892442Y-128729887D01*
X165892442Y-128729887D02*
X165821014Y-128765601D01*
X165821014Y-128765601D02*
X165785300Y-128801316D01*
X165785300Y-128801316D02*
X165749585Y-128872744D01*
X165749585Y-128872744D02*
X165749585Y-129087030D01*
X165749585Y-129087030D02*
X165785300Y-129158458D01*
X165785300Y-129158458D02*
X165821014Y-129194173D01*
X165821014Y-128408458D02*
X165785300Y-128372744D01*
X165785300Y-128372744D02*
X165749585Y-128408458D01*
X165749585Y-128408458D02*
X165785300Y-128444172D01*
X165785300Y-128444172D02*
X165821014Y-128408458D01*
X165821014Y-128408458D02*
X165749585Y-128408458D01*
X166499585Y-128122744D02*
X166499585Y-127658458D01*
X166499585Y-127658458D02*
X166213871Y-127908458D01*
X166213871Y-127908458D02*
X166213871Y-127801315D01*
X166213871Y-127801315D02*
X166178157Y-127729887D01*
X166178157Y-127729887D02*
X166142442Y-127694172D01*
X166142442Y-127694172D02*
X166071014Y-127658458D01*
X166071014Y-127658458D02*
X165892442Y-127658458D01*
X165892442Y-127658458D02*
X165821014Y-127694172D01*
X165821014Y-127694172D02*
X165785300Y-127729887D01*
X165785300Y-127729887D02*
X165749585Y-127801315D01*
X165749585Y-127801315D02*
X165749585Y-128015601D01*
X165749585Y-128015601D02*
X165785300Y-128087029D01*
X165785300Y-128087029D02*
X165821014Y-128122744D01*
X166499585Y-127444172D02*
X165749585Y-127194172D01*
X165749585Y-127194172D02*
X166499585Y-126944172D01*
X159628985Y-115855826D02*
X159664700Y-115820112D01*
X159664700Y-115820112D02*
X159700414Y-115712969D01*
X159700414Y-115712969D02*
X159700414Y-115641541D01*
X159700414Y-115641541D02*
X159664700Y-115534398D01*
X159664700Y-115534398D02*
X159593271Y-115462969D01*
X159593271Y-115462969D02*
X159521842Y-115427255D01*
X159521842Y-115427255D02*
X159378985Y-115391541D01*
X159378985Y-115391541D02*
X159271842Y-115391541D01*
X159271842Y-115391541D02*
X159128985Y-115427255D01*
X159128985Y-115427255D02*
X159057557Y-115462969D01*
X159057557Y-115462969D02*
X158986128Y-115534398D01*
X158986128Y-115534398D02*
X158950414Y-115641541D01*
X158950414Y-115641541D02*
X158950414Y-115712969D01*
X158950414Y-115712969D02*
X158986128Y-115820112D01*
X158986128Y-115820112D02*
X159021842Y-115855826D01*
X159700414Y-116534398D02*
X159700414Y-116177255D01*
X159700414Y-116177255D02*
X158950414Y-116177255D01*
X159700414Y-116784398D02*
X158950414Y-116784398D01*
X159700414Y-117212969D02*
X159271842Y-116891541D01*
X158950414Y-117212969D02*
X159378985Y-116784398D01*
X149328985Y-116205826D02*
X149364700Y-116170112D01*
X149364700Y-116170112D02*
X149400414Y-116062969D01*
X149400414Y-116062969D02*
X149400414Y-115991541D01*
X149400414Y-115991541D02*
X149364700Y-115884398D01*
X149364700Y-115884398D02*
X149293271Y-115812969D01*
X149293271Y-115812969D02*
X149221842Y-115777255D01*
X149221842Y-115777255D02*
X149078985Y-115741541D01*
X149078985Y-115741541D02*
X148971842Y-115741541D01*
X148971842Y-115741541D02*
X148828985Y-115777255D01*
X148828985Y-115777255D02*
X148757557Y-115812969D01*
X148757557Y-115812969D02*
X148686128Y-115884398D01*
X148686128Y-115884398D02*
X148650414Y-115991541D01*
X148650414Y-115991541D02*
X148650414Y-116062969D01*
X148650414Y-116062969D02*
X148686128Y-116170112D01*
X148686128Y-116170112D02*
X148721842Y-116205826D01*
X149400414Y-116884398D02*
X149400414Y-116527255D01*
X149400414Y-116527255D02*
X148650414Y-116527255D01*
X149400414Y-117134398D02*
X148650414Y-117134398D01*
X149400414Y-117562969D02*
X148971842Y-117241541D01*
X148650414Y-117562969D02*
X149078985Y-117134398D01*
D11*
X159396251Y-127705859D02*
X159436727Y-127584430D01*
X159436727Y-127584430D02*
X159436727Y-127382049D01*
X159436727Y-127382049D02*
X159396251Y-127301097D01*
X159396251Y-127301097D02*
X159355774Y-127260621D01*
X159355774Y-127260621D02*
X159274822Y-127220144D01*
X159274822Y-127220144D02*
X159193870Y-127220144D01*
X159193870Y-127220144D02*
X159112917Y-127260621D01*
X159112917Y-127260621D02*
X159072441Y-127301097D01*
X159072441Y-127301097D02*
X159031965Y-127382049D01*
X159031965Y-127382049D02*
X158991489Y-127543954D01*
X158991489Y-127543954D02*
X158951012Y-127624906D01*
X158951012Y-127624906D02*
X158910536Y-127665383D01*
X158910536Y-127665383D02*
X158829584Y-127705859D01*
X158829584Y-127705859D02*
X158748631Y-127705859D01*
X158748631Y-127705859D02*
X158667679Y-127665383D01*
X158667679Y-127665383D02*
X158627203Y-127624906D01*
X158627203Y-127624906D02*
X158586727Y-127543954D01*
X158586727Y-127543954D02*
X158586727Y-127341573D01*
X158586727Y-127341573D02*
X158627203Y-127220144D01*
X159436727Y-126855859D02*
X158586727Y-126855859D01*
X158586727Y-126855859D02*
X158586727Y-126653478D01*
X158586727Y-126653478D02*
X158627203Y-126532049D01*
X158627203Y-126532049D02*
X158708155Y-126451097D01*
X158708155Y-126451097D02*
X158789108Y-126410620D01*
X158789108Y-126410620D02*
X158951012Y-126370144D01*
X158951012Y-126370144D02*
X159072441Y-126370144D01*
X159072441Y-126370144D02*
X159234346Y-126410620D01*
X159234346Y-126410620D02*
X159315298Y-126451097D01*
X159315298Y-126451097D02*
X159396251Y-126532049D01*
X159396251Y-126532049D02*
X159436727Y-126653478D01*
X159436727Y-126653478D02*
X159436727Y-126855859D01*
X159193870Y-126046335D02*
X159193870Y-125641573D01*
X159436727Y-126127287D02*
X158586727Y-125843954D01*
X158586727Y-125843954D02*
X159436727Y-125560620D01*
X157246251Y-127705859D02*
X157286727Y-127584430D01*
X157286727Y-127584430D02*
X157286727Y-127382049D01*
X157286727Y-127382049D02*
X157246251Y-127301097D01*
X157246251Y-127301097D02*
X157205774Y-127260621D01*
X157205774Y-127260621D02*
X157124822Y-127220144D01*
X157124822Y-127220144D02*
X157043870Y-127220144D01*
X157043870Y-127220144D02*
X156962917Y-127260621D01*
X156962917Y-127260621D02*
X156922441Y-127301097D01*
X156922441Y-127301097D02*
X156881965Y-127382049D01*
X156881965Y-127382049D02*
X156841489Y-127543954D01*
X156841489Y-127543954D02*
X156801012Y-127624906D01*
X156801012Y-127624906D02*
X156760536Y-127665383D01*
X156760536Y-127665383D02*
X156679584Y-127705859D01*
X156679584Y-127705859D02*
X156598631Y-127705859D01*
X156598631Y-127705859D02*
X156517679Y-127665383D01*
X156517679Y-127665383D02*
X156477203Y-127624906D01*
X156477203Y-127624906D02*
X156436727Y-127543954D01*
X156436727Y-127543954D02*
X156436727Y-127341573D01*
X156436727Y-127341573D02*
X156477203Y-127220144D01*
X157205774Y-126370144D02*
X157246251Y-126410620D01*
X157246251Y-126410620D02*
X157286727Y-126532049D01*
X157286727Y-126532049D02*
X157286727Y-126613001D01*
X157286727Y-126613001D02*
X157246251Y-126734430D01*
X157246251Y-126734430D02*
X157165298Y-126815382D01*
X157165298Y-126815382D02*
X157084346Y-126855859D01*
X157084346Y-126855859D02*
X156922441Y-126896335D01*
X156922441Y-126896335D02*
X156801012Y-126896335D01*
X156801012Y-126896335D02*
X156639108Y-126855859D01*
X156639108Y-126855859D02*
X156558155Y-126815382D01*
X156558155Y-126815382D02*
X156477203Y-126734430D01*
X156477203Y-126734430D02*
X156436727Y-126613001D01*
X156436727Y-126613001D02*
X156436727Y-126532049D01*
X156436727Y-126532049D02*
X156477203Y-126410620D01*
X156477203Y-126410620D02*
X156517679Y-126370144D01*
X157286727Y-125601097D02*
X157286727Y-126005859D01*
X157286727Y-126005859D02*
X156436727Y-126005859D01*
D10*
X164517856Y-117789164D02*
X164517856Y-118324878D01*
X164517856Y-118324878D02*
X164553571Y-118432021D01*
X164553571Y-118432021D02*
X164624999Y-118503450D01*
X164624999Y-118503450D02*
X164732142Y-118539164D01*
X164732142Y-118539164D02*
X164803571Y-118539164D01*
X164160713Y-118539164D02*
X164160713Y-117789164D01*
X164160713Y-117789164D02*
X163874999Y-117789164D01*
X163874999Y-117789164D02*
X163803570Y-117824878D01*
X163803570Y-117824878D02*
X163767856Y-117860592D01*
X163767856Y-117860592D02*
X163732142Y-117932021D01*
X163732142Y-117932021D02*
X163732142Y-118039164D01*
X163732142Y-118039164D02*
X163767856Y-118110592D01*
X163767856Y-118110592D02*
X163803570Y-118146307D01*
X163803570Y-118146307D02*
X163874999Y-118182021D01*
X163874999Y-118182021D02*
X164160713Y-118182021D01*
X163017856Y-118539164D02*
X163446427Y-118539164D01*
X163232142Y-118539164D02*
X163232142Y-117789164D01*
X163232142Y-117789164D02*
X163303570Y-117896307D01*
X163303570Y-117896307D02*
X163374999Y-117967735D01*
X163374999Y-117967735D02*
X163446427Y-118003450D01*
X162696427Y-118253450D02*
X162124999Y-118253450D01*
X161374999Y-117824878D02*
X161446428Y-117789164D01*
X161446428Y-117789164D02*
X161553570Y-117789164D01*
X161553570Y-117789164D02*
X161660713Y-117824878D01*
X161660713Y-117824878D02*
X161732142Y-117896307D01*
X161732142Y-117896307D02*
X161767856Y-117967735D01*
X161767856Y-117967735D02*
X161803570Y-118110592D01*
X161803570Y-118110592D02*
X161803570Y-118217735D01*
X161803570Y-118217735D02*
X161767856Y-118360592D01*
X161767856Y-118360592D02*
X161732142Y-118432021D01*
X161732142Y-118432021D02*
X161660713Y-118503450D01*
X161660713Y-118503450D02*
X161553570Y-118539164D01*
X161553570Y-118539164D02*
X161482142Y-118539164D01*
X161482142Y-118539164D02*
X161374999Y-118503450D01*
X161374999Y-118503450D02*
X161339285Y-118467735D01*
X161339285Y-118467735D02*
X161339285Y-118217735D01*
X161339285Y-118217735D02*
X161482142Y-118217735D01*
X161017856Y-118539164D02*
X161017856Y-117789164D01*
X161017856Y-117789164D02*
X160732142Y-117789164D01*
X160732142Y-117789164D02*
X160660713Y-117824878D01*
X160660713Y-117824878D02*
X160624999Y-117860592D01*
X160624999Y-117860592D02*
X160589285Y-117932021D01*
X160589285Y-117932021D02*
X160589285Y-118039164D01*
X160589285Y-118039164D02*
X160624999Y-118110592D01*
X160624999Y-118110592D02*
X160660713Y-118146307D01*
X160660713Y-118146307D02*
X160732142Y-118182021D01*
X160732142Y-118182021D02*
X161017856Y-118182021D01*
X160267856Y-118539164D02*
X160267856Y-117789164D01*
X159767856Y-117789164D02*
X159624999Y-117789164D01*
X159624999Y-117789164D02*
X159553570Y-117824878D01*
X159553570Y-117824878D02*
X159482142Y-117896307D01*
X159482142Y-117896307D02*
X159446427Y-118039164D01*
X159446427Y-118039164D02*
X159446427Y-118289164D01*
X159446427Y-118289164D02*
X159482142Y-118432021D01*
X159482142Y-118432021D02*
X159553570Y-118503450D01*
X159553570Y-118503450D02*
X159624999Y-118539164D01*
X159624999Y-118539164D02*
X159767856Y-118539164D01*
X159767856Y-118539164D02*
X159839285Y-118503450D01*
X159839285Y-118503450D02*
X159910713Y-118432021D01*
X159910713Y-118432021D02*
X159946427Y-118289164D01*
X159946427Y-118289164D02*
X159946427Y-118039164D01*
X159946427Y-118039164D02*
X159910713Y-117896307D01*
X159910713Y-117896307D02*
X159839285Y-117824878D01*
X159839285Y-117824878D02*
X159767856Y-117789164D01*
X159160713Y-117860592D02*
X159124999Y-117824878D01*
X159124999Y-117824878D02*
X159053571Y-117789164D01*
X159053571Y-117789164D02*
X158874999Y-117789164D01*
X158874999Y-117789164D02*
X158803571Y-117824878D01*
X158803571Y-117824878D02*
X158767856Y-117860592D01*
X158767856Y-117860592D02*
X158732142Y-117932021D01*
X158732142Y-117932021D02*
X158732142Y-118003450D01*
X158732142Y-118003450D02*
X158767856Y-118110592D01*
X158767856Y-118110592D02*
X159196428Y-118539164D01*
X159196428Y-118539164D02*
X158732142Y-118539164D01*
X166392856Y-125139164D02*
X166392856Y-125674878D01*
X166392856Y-125674878D02*
X166428571Y-125782021D01*
X166428571Y-125782021D02*
X166499999Y-125853450D01*
X166499999Y-125853450D02*
X166607142Y-125889164D01*
X166607142Y-125889164D02*
X166678571Y-125889164D01*
X166035713Y-125889164D02*
X166035713Y-125139164D01*
X166035713Y-125139164D02*
X165749999Y-125139164D01*
X165749999Y-125139164D02*
X165678570Y-125174878D01*
X165678570Y-125174878D02*
X165642856Y-125210592D01*
X165642856Y-125210592D02*
X165607142Y-125282021D01*
X165607142Y-125282021D02*
X165607142Y-125389164D01*
X165607142Y-125389164D02*
X165642856Y-125460592D01*
X165642856Y-125460592D02*
X165678570Y-125496307D01*
X165678570Y-125496307D02*
X165749999Y-125532021D01*
X165749999Y-125532021D02*
X166035713Y-125532021D01*
X165357142Y-125139164D02*
X164892856Y-125139164D01*
X164892856Y-125139164D02*
X165142856Y-125424878D01*
X165142856Y-125424878D02*
X165035713Y-125424878D01*
X165035713Y-125424878D02*
X164964285Y-125460592D01*
X164964285Y-125460592D02*
X164928570Y-125496307D01*
X164928570Y-125496307D02*
X164892856Y-125567735D01*
X164892856Y-125567735D02*
X164892856Y-125746307D01*
X164892856Y-125746307D02*
X164928570Y-125817735D01*
X164928570Y-125817735D02*
X164964285Y-125853450D01*
X164964285Y-125853450D02*
X165035713Y-125889164D01*
X165035713Y-125889164D02*
X165249999Y-125889164D01*
X165249999Y-125889164D02*
X165321427Y-125853450D01*
X165321427Y-125853450D02*
X165357142Y-125817735D01*
X164571427Y-125603450D02*
X163999999Y-125603450D01*
X163678570Y-125853450D02*
X163571428Y-125889164D01*
X163571428Y-125889164D02*
X163392856Y-125889164D01*
X163392856Y-125889164D02*
X163321428Y-125853450D01*
X163321428Y-125853450D02*
X163285713Y-125817735D01*
X163285713Y-125817735D02*
X163249999Y-125746307D01*
X163249999Y-125746307D02*
X163249999Y-125674878D01*
X163249999Y-125674878D02*
X163285713Y-125603450D01*
X163285713Y-125603450D02*
X163321428Y-125567735D01*
X163321428Y-125567735D02*
X163392856Y-125532021D01*
X163392856Y-125532021D02*
X163535713Y-125496307D01*
X163535713Y-125496307D02*
X163607142Y-125460592D01*
X163607142Y-125460592D02*
X163642856Y-125424878D01*
X163642856Y-125424878D02*
X163678570Y-125353450D01*
X163678570Y-125353450D02*
X163678570Y-125282021D01*
X163678570Y-125282021D02*
X163642856Y-125210592D01*
X163642856Y-125210592D02*
X163607142Y-125174878D01*
X163607142Y-125174878D02*
X163535713Y-125139164D01*
X163535713Y-125139164D02*
X163357142Y-125139164D01*
X163357142Y-125139164D02*
X163249999Y-125174878D01*
X162964284Y-125674878D02*
X162607142Y-125674878D01*
X163035713Y-125889164D02*
X162785713Y-125139164D01*
X162785713Y-125139164D02*
X162535713Y-125889164D01*
X162142856Y-125139164D02*
X161999999Y-125139164D01*
X161999999Y-125139164D02*
X161928570Y-125174878D01*
X161928570Y-125174878D02*
X161857142Y-125246307D01*
X161857142Y-125246307D02*
X161821427Y-125389164D01*
X161821427Y-125389164D02*
X161821427Y-125639164D01*
X161821427Y-125639164D02*
X161857142Y-125782021D01*
X161857142Y-125782021D02*
X161928570Y-125853450D01*
X161928570Y-125853450D02*
X161999999Y-125889164D01*
X161999999Y-125889164D02*
X162142856Y-125889164D01*
X162142856Y-125889164D02*
X162214285Y-125853450D01*
X162214285Y-125853450D02*
X162285713Y-125782021D01*
X162285713Y-125782021D02*
X162321427Y-125639164D01*
X162321427Y-125639164D02*
X162321427Y-125389164D01*
X162321427Y-125389164D02*
X162285713Y-125246307D01*
X162285713Y-125246307D02*
X162214285Y-125174878D01*
X162214285Y-125174878D02*
X162142856Y-125139164D01*
X161499999Y-125389164D02*
X161499999Y-126139164D01*
X161499999Y-125424878D02*
X161428571Y-125389164D01*
X161428571Y-125389164D02*
X161285713Y-125389164D01*
X161285713Y-125389164D02*
X161214285Y-125424878D01*
X161214285Y-125424878D02*
X161178571Y-125460592D01*
X161178571Y-125460592D02*
X161142856Y-125532021D01*
X161142856Y-125532021D02*
X161142856Y-125746307D01*
X161142856Y-125746307D02*
X161178571Y-125817735D01*
X161178571Y-125817735D02*
X161214285Y-125853450D01*
X161214285Y-125853450D02*
X161285713Y-125889164D01*
X161285713Y-125889164D02*
X161428571Y-125889164D01*
X161428571Y-125889164D02*
X161499999Y-125853450D01*
X160892857Y-125389164D02*
X160750000Y-125889164D01*
X160750000Y-125889164D02*
X160607142Y-125532021D01*
X160607142Y-125532021D02*
X160464285Y-125889164D01*
X160464285Y-125889164D02*
X160321428Y-125389164D01*
X155567856Y-117989164D02*
X155567856Y-118524878D01*
X155567856Y-118524878D02*
X155603571Y-118632021D01*
X155603571Y-118632021D02*
X155674999Y-118703450D01*
X155674999Y-118703450D02*
X155782142Y-118739164D01*
X155782142Y-118739164D02*
X155853571Y-118739164D01*
X155210713Y-118739164D02*
X155210713Y-117989164D01*
X155210713Y-117989164D02*
X154924999Y-117989164D01*
X154924999Y-117989164D02*
X154853570Y-118024878D01*
X154853570Y-118024878D02*
X154817856Y-118060592D01*
X154817856Y-118060592D02*
X154782142Y-118132021D01*
X154782142Y-118132021D02*
X154782142Y-118239164D01*
X154782142Y-118239164D02*
X154817856Y-118310592D01*
X154817856Y-118310592D02*
X154853570Y-118346307D01*
X154853570Y-118346307D02*
X154924999Y-118382021D01*
X154924999Y-118382021D02*
X155210713Y-118382021D01*
X154496427Y-118060592D02*
X154460713Y-118024878D01*
X154460713Y-118024878D02*
X154389285Y-117989164D01*
X154389285Y-117989164D02*
X154210713Y-117989164D01*
X154210713Y-117989164D02*
X154139285Y-118024878D01*
X154139285Y-118024878D02*
X154103570Y-118060592D01*
X154103570Y-118060592D02*
X154067856Y-118132021D01*
X154067856Y-118132021D02*
X154067856Y-118203450D01*
X154067856Y-118203450D02*
X154103570Y-118310592D01*
X154103570Y-118310592D02*
X154532142Y-118739164D01*
X154532142Y-118739164D02*
X154067856Y-118739164D01*
X153746427Y-118453450D02*
X153174999Y-118453450D01*
X152424999Y-118024878D02*
X152496428Y-117989164D01*
X152496428Y-117989164D02*
X152603570Y-117989164D01*
X152603570Y-117989164D02*
X152710713Y-118024878D01*
X152710713Y-118024878D02*
X152782142Y-118096307D01*
X152782142Y-118096307D02*
X152817856Y-118167735D01*
X152817856Y-118167735D02*
X152853570Y-118310592D01*
X152853570Y-118310592D02*
X152853570Y-118417735D01*
X152853570Y-118417735D02*
X152817856Y-118560592D01*
X152817856Y-118560592D02*
X152782142Y-118632021D01*
X152782142Y-118632021D02*
X152710713Y-118703450D01*
X152710713Y-118703450D02*
X152603570Y-118739164D01*
X152603570Y-118739164D02*
X152532142Y-118739164D01*
X152532142Y-118739164D02*
X152424999Y-118703450D01*
X152424999Y-118703450D02*
X152389285Y-118667735D01*
X152389285Y-118667735D02*
X152389285Y-118417735D01*
X152389285Y-118417735D02*
X152532142Y-118417735D01*
X152067856Y-118739164D02*
X152067856Y-117989164D01*
X152067856Y-117989164D02*
X151782142Y-117989164D01*
X151782142Y-117989164D02*
X151710713Y-118024878D01*
X151710713Y-118024878D02*
X151674999Y-118060592D01*
X151674999Y-118060592D02*
X151639285Y-118132021D01*
X151639285Y-118132021D02*
X151639285Y-118239164D01*
X151639285Y-118239164D02*
X151674999Y-118310592D01*
X151674999Y-118310592D02*
X151710713Y-118346307D01*
X151710713Y-118346307D02*
X151782142Y-118382021D01*
X151782142Y-118382021D02*
X152067856Y-118382021D01*
X151317856Y-118739164D02*
X151317856Y-117989164D01*
X150817856Y-117989164D02*
X150674999Y-117989164D01*
X150674999Y-117989164D02*
X150603570Y-118024878D01*
X150603570Y-118024878D02*
X150532142Y-118096307D01*
X150532142Y-118096307D02*
X150496427Y-118239164D01*
X150496427Y-118239164D02*
X150496427Y-118489164D01*
X150496427Y-118489164D02*
X150532142Y-118632021D01*
X150532142Y-118632021D02*
X150603570Y-118703450D01*
X150603570Y-118703450D02*
X150674999Y-118739164D01*
X150674999Y-118739164D02*
X150817856Y-118739164D01*
X150817856Y-118739164D02*
X150889285Y-118703450D01*
X150889285Y-118703450D02*
X150960713Y-118632021D01*
X150960713Y-118632021D02*
X150996427Y-118489164D01*
X150996427Y-118489164D02*
X150996427Y-118239164D01*
X150996427Y-118239164D02*
X150960713Y-118096307D01*
X150960713Y-118096307D02*
X150889285Y-118024878D01*
X150889285Y-118024878D02*
X150817856Y-117989164D01*
X149782142Y-118739164D02*
X150210713Y-118739164D01*
X149996428Y-118739164D02*
X149996428Y-117989164D01*
X149996428Y-117989164D02*
X150067856Y-118096307D01*
X150067856Y-118096307D02*
X150139285Y-118167735D01*
X150139285Y-118167735D02*
X150210713Y-118203450D01*
X155578570Y-125289164D02*
X155578570Y-125824878D01*
X155578570Y-125824878D02*
X155614285Y-125932021D01*
X155614285Y-125932021D02*
X155685713Y-126003450D01*
X155685713Y-126003450D02*
X155792856Y-126039164D01*
X155792856Y-126039164D02*
X155864285Y-126039164D01*
X155221427Y-126039164D02*
X155221427Y-125289164D01*
X155221427Y-125289164D02*
X154935713Y-125289164D01*
X154935713Y-125289164D02*
X154864284Y-125324878D01*
X154864284Y-125324878D02*
X154828570Y-125360592D01*
X154828570Y-125360592D02*
X154792856Y-125432021D01*
X154792856Y-125432021D02*
X154792856Y-125539164D01*
X154792856Y-125539164D02*
X154828570Y-125610592D01*
X154828570Y-125610592D02*
X154864284Y-125646307D01*
X154864284Y-125646307D02*
X154935713Y-125682021D01*
X154935713Y-125682021D02*
X155221427Y-125682021D01*
X154149999Y-125289164D02*
X154292856Y-125289164D01*
X154292856Y-125289164D02*
X154364284Y-125324878D01*
X154364284Y-125324878D02*
X154399999Y-125360592D01*
X154399999Y-125360592D02*
X154471427Y-125467735D01*
X154471427Y-125467735D02*
X154507141Y-125610592D01*
X154507141Y-125610592D02*
X154507141Y-125896307D01*
X154507141Y-125896307D02*
X154471427Y-125967735D01*
X154471427Y-125967735D02*
X154435713Y-126003450D01*
X154435713Y-126003450D02*
X154364284Y-126039164D01*
X154364284Y-126039164D02*
X154221427Y-126039164D01*
X154221427Y-126039164D02*
X154149999Y-126003450D01*
X154149999Y-126003450D02*
X154114284Y-125967735D01*
X154114284Y-125967735D02*
X154078570Y-125896307D01*
X154078570Y-125896307D02*
X154078570Y-125717735D01*
X154078570Y-125717735D02*
X154114284Y-125646307D01*
X154114284Y-125646307D02*
X154149999Y-125610592D01*
X154149999Y-125610592D02*
X154221427Y-125574878D01*
X154221427Y-125574878D02*
X154364284Y-125574878D01*
X154364284Y-125574878D02*
X154435713Y-125610592D01*
X154435713Y-125610592D02*
X154471427Y-125646307D01*
X154471427Y-125646307D02*
X154507141Y-125717735D01*
X153757141Y-125753450D02*
X153185713Y-125753450D01*
X152864284Y-126003450D02*
X152757142Y-126039164D01*
X152757142Y-126039164D02*
X152578570Y-126039164D01*
X152578570Y-126039164D02*
X152507142Y-126003450D01*
X152507142Y-126003450D02*
X152471427Y-125967735D01*
X152471427Y-125967735D02*
X152435713Y-125896307D01*
X152435713Y-125896307D02*
X152435713Y-125824878D01*
X152435713Y-125824878D02*
X152471427Y-125753450D01*
X152471427Y-125753450D02*
X152507142Y-125717735D01*
X152507142Y-125717735D02*
X152578570Y-125682021D01*
X152578570Y-125682021D02*
X152721427Y-125646307D01*
X152721427Y-125646307D02*
X152792856Y-125610592D01*
X152792856Y-125610592D02*
X152828570Y-125574878D01*
X152828570Y-125574878D02*
X152864284Y-125503450D01*
X152864284Y-125503450D02*
X152864284Y-125432021D01*
X152864284Y-125432021D02*
X152828570Y-125360592D01*
X152828570Y-125360592D02*
X152792856Y-125324878D01*
X152792856Y-125324878D02*
X152721427Y-125289164D01*
X152721427Y-125289164D02*
X152542856Y-125289164D01*
X152542856Y-125289164D02*
X152435713Y-125324878D01*
X152149998Y-125824878D02*
X151792856Y-125824878D01*
X152221427Y-126039164D02*
X151971427Y-125289164D01*
X151971427Y-125289164D02*
X151721427Y-126039164D01*
X151328570Y-125289164D02*
X151185713Y-125289164D01*
X151185713Y-125289164D02*
X151114284Y-125324878D01*
X151114284Y-125324878D02*
X151042856Y-125396307D01*
X151042856Y-125396307D02*
X151007141Y-125539164D01*
X151007141Y-125539164D02*
X151007141Y-125789164D01*
X151007141Y-125789164D02*
X151042856Y-125932021D01*
X151042856Y-125932021D02*
X151114284Y-126003450D01*
X151114284Y-126003450D02*
X151185713Y-126039164D01*
X151185713Y-126039164D02*
X151328570Y-126039164D01*
X151328570Y-126039164D02*
X151399999Y-126003450D01*
X151399999Y-126003450D02*
X151471427Y-125932021D01*
X151471427Y-125932021D02*
X151507141Y-125789164D01*
X151507141Y-125789164D02*
X151507141Y-125539164D01*
X151507141Y-125539164D02*
X151471427Y-125396307D01*
X151471427Y-125396307D02*
X151399999Y-125324878D01*
X151399999Y-125324878D02*
X151328570Y-125289164D01*
X150364285Y-125539164D02*
X150364285Y-126146307D01*
X150364285Y-126146307D02*
X150399999Y-126217735D01*
X150399999Y-126217735D02*
X150435713Y-126253450D01*
X150435713Y-126253450D02*
X150507142Y-126289164D01*
X150507142Y-126289164D02*
X150614285Y-126289164D01*
X150614285Y-126289164D02*
X150685713Y-126253450D01*
X150364285Y-126003450D02*
X150435713Y-126039164D01*
X150435713Y-126039164D02*
X150578570Y-126039164D01*
X150578570Y-126039164D02*
X150649999Y-126003450D01*
X150649999Y-126003450D02*
X150685713Y-125967735D01*
X150685713Y-125967735D02*
X150721427Y-125896307D01*
X150721427Y-125896307D02*
X150721427Y-125682021D01*
X150721427Y-125682021D02*
X150685713Y-125610592D01*
X150685713Y-125610592D02*
X150649999Y-125574878D01*
X150649999Y-125574878D02*
X150578570Y-125539164D01*
X150578570Y-125539164D02*
X150435713Y-125539164D01*
X150435713Y-125539164D02*
X150364285Y-125574878D01*
X150007142Y-125539164D02*
X150007142Y-126039164D01*
X150007142Y-125610592D02*
X149971428Y-125574878D01*
X149971428Y-125574878D02*
X149899999Y-125539164D01*
X149899999Y-125539164D02*
X149792856Y-125539164D01*
X149792856Y-125539164D02*
X149721428Y-125574878D01*
X149721428Y-125574878D02*
X149685714Y-125646307D01*
X149685714Y-125646307D02*
X149685714Y-126039164D01*
X149007143Y-126039164D02*
X149007143Y-125289164D01*
X149007143Y-126003450D02*
X149078571Y-126039164D01*
X149078571Y-126039164D02*
X149221428Y-126039164D01*
X149221428Y-126039164D02*
X149292857Y-126003450D01*
X149292857Y-126003450D02*
X149328571Y-125967735D01*
X149328571Y-125967735D02*
X149364285Y-125896307D01*
X149364285Y-125896307D02*
X149364285Y-125682021D01*
X149364285Y-125682021D02*
X149328571Y-125610592D01*
X149328571Y-125610592D02*
X149292857Y-125574878D01*
X149292857Y-125574878D02*
X149221428Y-125539164D01*
X149221428Y-125539164D02*
X149078571Y-125539164D01*
X149078571Y-125539164D02*
X149007143Y-125574878D01*
D12*
%TO.C,J1*%
X154048801Y-119608399D02*
X155318799Y-119608400D01*
D13*
%TO.C,JP1-GPIO2*%
X159800000Y-116557500D02*
X159800000Y-115957500D01*
X160450000Y-115257500D02*
X163250000Y-115257500D01*
X162750000Y-117757500D02*
X163050000Y-117457500D01*
X162750000Y-117757500D02*
X163350000Y-117757500D01*
X163250000Y-117257500D02*
X160450000Y-117257500D01*
X163350000Y-117757500D02*
X163050000Y-117457500D01*
X163900000Y-115957500D02*
X163900000Y-116557500D01*
X159800000Y-115957500D02*
G75*
G02*
X160500000Y-115257500I700000J0D01*
G01*
X160500000Y-117257500D02*
G75*
G02*
X159800000Y-116557500I0J700000D01*
G01*
X163200000Y-115257500D02*
G75*
G02*
X163900000Y-115957500I1J-699999D01*
G01*
X163900000Y-116557500D02*
G75*
G02*
X163200000Y-117257500I-699999J-1D01*
G01*
%TO.C,JP3-SAOpw*%
X161350000Y-128507498D02*
X161350000Y-127907497D01*
X161999999Y-127207498D02*
X164799999Y-127207498D01*
X164299999Y-129707498D02*
X164599999Y-129407498D01*
X164299999Y-129707498D02*
X164899999Y-129707498D01*
X164799999Y-129207498D02*
X161999999Y-129207498D01*
X164899999Y-129707498D02*
X164599999Y-129407498D01*
X165449998Y-127907498D02*
X165449998Y-128507499D01*
X161350000Y-127907497D02*
G75*
G02*
X162049997Y-127207501I699994J2D01*
G01*
X162050001Y-129207502D02*
G75*
G02*
X161349995Y-128507498I-2J700004D01*
G01*
X164749997Y-127207494D02*
G75*
G02*
X165449998Y-127907498I9J-699992D01*
G01*
X165449998Y-128507499D02*
G75*
G02*
X164750001Y-129207495I-699992J-4D01*
G01*
%TO.C,JP2-GPIO1*%
X149750000Y-116550000D02*
X149750000Y-115950000D01*
X150400000Y-115250000D02*
X153200000Y-115250000D01*
X152700000Y-117750000D02*
X153000000Y-117450000D01*
X152700000Y-117750000D02*
X153300000Y-117750000D01*
X153200000Y-117250000D02*
X150400000Y-117250000D01*
X153300000Y-117750000D02*
X153000000Y-117450000D01*
X153850000Y-115950000D02*
X153850000Y-116550000D01*
X149750000Y-115950000D02*
G75*
G02*
X150450000Y-115250000I700000J0D01*
G01*
X150450000Y-117250000D02*
G75*
G02*
X149750000Y-116550000I0J700000D01*
G01*
X153150000Y-115250000D02*
G75*
G02*
X153850000Y-115950000I1J-699999D01*
G01*
X153850000Y-116550000D02*
G75*
G02*
X153150000Y-117250000I-699999J-1D01*
G01*
%TO.C,JP6-SAOgnd*%
X149700000Y-128600000D02*
X149700000Y-128000000D01*
X150350000Y-127300000D02*
X153150000Y-127300000D01*
X152650000Y-129800000D02*
X152950000Y-129500000D01*
X152650000Y-129800000D02*
X153250000Y-129800000D01*
X153150000Y-129300000D02*
X150350000Y-129300000D01*
X153250000Y-129800000D02*
X152950000Y-129500000D01*
X153800000Y-128000000D02*
X153800000Y-128600000D01*
X149700000Y-128000000D02*
G75*
G02*
X150400000Y-127300000I700000J0D01*
G01*
X150400000Y-129300000D02*
G75*
G02*
X149700000Y-128600000I0J700000D01*
G01*
X153100000Y-127300000D02*
G75*
G02*
X153800000Y-128000000I1J-699999D01*
G01*
X153800000Y-128600000D02*
G75*
G02*
X153100000Y-129300000I-699999J-1D01*
G01*
%TD*%
M02*
