%TF.GenerationSoftware,KiCad,Pcbnew,8.0.4*%
%TF.CreationDate,2024-08-30T08:53:53-06:00*%
%TF.ProjectId,SAO_MB_adapter,53414f5f-4d42-45f6-9164-61707465722e,rev?*%
%TF.SameCoordinates,Original*%
%TF.FileFunction,Legend,Top*%
%TF.FilePolarity,Positive*%
%FSLAX46Y46*%
G04 Gerber Fmt 4.6, Leading zero omitted, Abs format (unit mm)*
G04 Created by KiCad (PCBNEW 8.0.4) date 2024-08-30 08:53:53*
%MOMM*%
%LPD*%
G01*
G04 APERTURE LIST*
%ADD10C,0.150000*%
%ADD11C,0.203200*%
%ADD12C,0.120000*%
G04 APERTURE END LIST*
D10*
X155163871Y-127720112D02*
X155199585Y-127648684D01*
X155199585Y-127648684D02*
X155199585Y-127541541D01*
X155199585Y-127541541D02*
X155163871Y-127434398D01*
X155163871Y-127434398D02*
X155092442Y-127362969D01*
X155092442Y-127362969D02*
X155021014Y-127327255D01*
X155021014Y-127327255D02*
X154878157Y-127291541D01*
X154878157Y-127291541D02*
X154771014Y-127291541D01*
X154771014Y-127291541D02*
X154628157Y-127327255D01*
X154628157Y-127327255D02*
X154556728Y-127362969D01*
X154556728Y-127362969D02*
X154485300Y-127434398D01*
X154485300Y-127434398D02*
X154449585Y-127541541D01*
X154449585Y-127541541D02*
X154449585Y-127612969D01*
X154449585Y-127612969D02*
X154485300Y-127720112D01*
X154485300Y-127720112D02*
X154521014Y-127755826D01*
X154521014Y-127755826D02*
X154771014Y-127755826D01*
X154771014Y-127755826D02*
X154771014Y-127612969D01*
X154449585Y-128077255D02*
X155199585Y-128077255D01*
X155199585Y-128077255D02*
X155199585Y-128362969D01*
X155199585Y-128362969D02*
X155163871Y-128434398D01*
X155163871Y-128434398D02*
X155128157Y-128470112D01*
X155128157Y-128470112D02*
X155056728Y-128505826D01*
X155056728Y-128505826D02*
X154949585Y-128505826D01*
X154949585Y-128505826D02*
X154878157Y-128470112D01*
X154878157Y-128470112D02*
X154842442Y-128434398D01*
X154842442Y-128434398D02*
X154806728Y-128362969D01*
X154806728Y-128362969D02*
X154806728Y-128077255D01*
X155128157Y-128791541D02*
X155163871Y-128827255D01*
X155163871Y-128827255D02*
X155199585Y-128898684D01*
X155199585Y-128898684D02*
X155199585Y-129077255D01*
X155199585Y-129077255D02*
X155163871Y-129148684D01*
X155163871Y-129148684D02*
X155128157Y-129184398D01*
X155128157Y-129184398D02*
X155056728Y-129220112D01*
X155056728Y-129220112D02*
X154985300Y-129220112D01*
X154985300Y-129220112D02*
X154878157Y-129184398D01*
X154878157Y-129184398D02*
X154449585Y-128755826D01*
X154449585Y-128755826D02*
X154449585Y-129220112D01*
X160136128Y-128679887D02*
X160100414Y-128751316D01*
X160100414Y-128751316D02*
X160100414Y-128858458D01*
X160100414Y-128858458D02*
X160136128Y-128965601D01*
X160136128Y-128965601D02*
X160207557Y-129037030D01*
X160207557Y-129037030D02*
X160278985Y-129072744D01*
X160278985Y-129072744D02*
X160421842Y-129108458D01*
X160421842Y-129108458D02*
X160528985Y-129108458D01*
X160528985Y-129108458D02*
X160671842Y-129072744D01*
X160671842Y-129072744D02*
X160743271Y-129037030D01*
X160743271Y-129037030D02*
X160814700Y-128965601D01*
X160814700Y-128965601D02*
X160850414Y-128858458D01*
X160850414Y-128858458D02*
X160850414Y-128787030D01*
X160850414Y-128787030D02*
X160814700Y-128679887D01*
X160814700Y-128679887D02*
X160778985Y-128644173D01*
X160778985Y-128644173D02*
X160528985Y-128644173D01*
X160528985Y-128644173D02*
X160528985Y-128787030D01*
X160850414Y-128322744D02*
X160100414Y-128322744D01*
X160100414Y-128322744D02*
X160100414Y-128037030D01*
X160100414Y-128037030D02*
X160136128Y-127965601D01*
X160136128Y-127965601D02*
X160171842Y-127929887D01*
X160171842Y-127929887D02*
X160243271Y-127894173D01*
X160243271Y-127894173D02*
X160350414Y-127894173D01*
X160350414Y-127894173D02*
X160421842Y-127929887D01*
X160421842Y-127929887D02*
X160457557Y-127965601D01*
X160457557Y-127965601D02*
X160493271Y-128037030D01*
X160493271Y-128037030D02*
X160493271Y-128322744D01*
X160850414Y-127179887D02*
X160850414Y-127608458D01*
X160850414Y-127394173D02*
X160100414Y-127394173D01*
X160100414Y-127394173D02*
X160207557Y-127465601D01*
X160207557Y-127465601D02*
X160278985Y-127537030D01*
X160278985Y-127537030D02*
X160314700Y-127608458D01*
X148386128Y-128629887D02*
X148350414Y-128701316D01*
X148350414Y-128701316D02*
X148350414Y-128808458D01*
X148350414Y-128808458D02*
X148386128Y-128915601D01*
X148386128Y-128915601D02*
X148457557Y-128987030D01*
X148457557Y-128987030D02*
X148528985Y-129022744D01*
X148528985Y-129022744D02*
X148671842Y-129058458D01*
X148671842Y-129058458D02*
X148778985Y-129058458D01*
X148778985Y-129058458D02*
X148921842Y-129022744D01*
X148921842Y-129022744D02*
X148993271Y-128987030D01*
X148993271Y-128987030D02*
X149064700Y-128915601D01*
X149064700Y-128915601D02*
X149100414Y-128808458D01*
X149100414Y-128808458D02*
X149100414Y-128737030D01*
X149100414Y-128737030D02*
X149064700Y-128629887D01*
X149064700Y-128629887D02*
X149028985Y-128594173D01*
X149028985Y-128594173D02*
X148778985Y-128594173D01*
X148778985Y-128594173D02*
X148778985Y-128737030D01*
X149100414Y-128272744D02*
X148350414Y-128272744D01*
X148350414Y-128272744D02*
X149100414Y-127844173D01*
X149100414Y-127844173D02*
X148350414Y-127844173D01*
X149100414Y-127487030D02*
X148350414Y-127487030D01*
X148350414Y-127487030D02*
X148350414Y-127308459D01*
X148350414Y-127308459D02*
X148386128Y-127201316D01*
X148386128Y-127201316D02*
X148457557Y-127129887D01*
X148457557Y-127129887D02*
X148528985Y-127094173D01*
X148528985Y-127094173D02*
X148671842Y-127058459D01*
X148671842Y-127058459D02*
X148778985Y-127058459D01*
X148778985Y-127058459D02*
X148921842Y-127094173D01*
X148921842Y-127094173D02*
X148993271Y-127129887D01*
X148993271Y-127129887D02*
X149064700Y-127201316D01*
X149064700Y-127201316D02*
X149100414Y-127308459D01*
X149100414Y-127308459D02*
X149100414Y-127487030D01*
X165750414Y-129144173D02*
X165750414Y-128679887D01*
X165750414Y-128679887D02*
X166036128Y-128929887D01*
X166036128Y-128929887D02*
X166036128Y-128822744D01*
X166036128Y-128822744D02*
X166071842Y-128751316D01*
X166071842Y-128751316D02*
X166107557Y-128715601D01*
X166107557Y-128715601D02*
X166178985Y-128679887D01*
X166178985Y-128679887D02*
X166357557Y-128679887D01*
X166357557Y-128679887D02*
X166428985Y-128715601D01*
X166428985Y-128715601D02*
X166464700Y-128751316D01*
X166464700Y-128751316D02*
X166500414Y-128822744D01*
X166500414Y-128822744D02*
X166500414Y-129037030D01*
X166500414Y-129037030D02*
X166464700Y-129108458D01*
X166464700Y-129108458D02*
X166428985Y-129144173D01*
X166428985Y-128358458D02*
X166464700Y-128322744D01*
X166464700Y-128322744D02*
X166500414Y-128358458D01*
X166500414Y-128358458D02*
X166464700Y-128394172D01*
X166464700Y-128394172D02*
X166428985Y-128358458D01*
X166428985Y-128358458D02*
X166500414Y-128358458D01*
X165750414Y-128072744D02*
X165750414Y-127608458D01*
X165750414Y-127608458D02*
X166036128Y-127858458D01*
X166036128Y-127858458D02*
X166036128Y-127751315D01*
X166036128Y-127751315D02*
X166071842Y-127679887D01*
X166071842Y-127679887D02*
X166107557Y-127644172D01*
X166107557Y-127644172D02*
X166178985Y-127608458D01*
X166178985Y-127608458D02*
X166357557Y-127608458D01*
X166357557Y-127608458D02*
X166428985Y-127644172D01*
X166428985Y-127644172D02*
X166464700Y-127679887D01*
X166464700Y-127679887D02*
X166500414Y-127751315D01*
X166500414Y-127751315D02*
X166500414Y-127965601D01*
X166500414Y-127965601D02*
X166464700Y-128037029D01*
X166464700Y-128037029D02*
X166428985Y-128072744D01*
X165750414Y-127394172D02*
X166500414Y-127144172D01*
X166500414Y-127144172D02*
X165750414Y-126894172D01*
G36*
X149367955Y-115989646D02*
G01*
X149377505Y-116008404D01*
X149344080Y-116035076D01*
X149325262Y-116035076D01*
X149307004Y-116035076D01*
X149261657Y-116069900D01*
X149242964Y-116102487D01*
X149212708Y-116164809D01*
X149184190Y-116229006D01*
X149157410Y-116295079D01*
X149132368Y-116363027D01*
X149109064Y-116432850D01*
X149087497Y-116504548D01*
X149067669Y-116578122D01*
X149049579Y-116653572D01*
X149033226Y-116730896D01*
X149018612Y-116810096D01*
X149009834Y-116863938D01*
X149025958Y-116806424D01*
X149028653Y-116802096D01*
X149053932Y-116764287D01*
X149083425Y-116743771D01*
X149105895Y-116771907D01*
X149098592Y-116800923D01*
X149075139Y-116859029D01*
X149055617Y-116916988D01*
X149040029Y-116974800D01*
X149028372Y-117032466D01*
X148999777Y-117082977D01*
X148986240Y-117085515D01*
X148932473Y-117061826D01*
X148900572Y-117035397D01*
X148864339Y-116989674D01*
X148867990Y-116973261D01*
X148873046Y-116949814D01*
X148881629Y-116891456D01*
X148892982Y-116828490D01*
X148907105Y-116760916D01*
X148920399Y-116703539D01*
X148935465Y-116643212D01*
X148952305Y-116579937D01*
X148970918Y-116513712D01*
X148975848Y-116496695D01*
X148945059Y-116557873D01*
X148914523Y-116616331D01*
X148884238Y-116672069D01*
X148854205Y-116725086D01*
X148824424Y-116775383D01*
X148785107Y-116838215D01*
X148746239Y-116896210D01*
X148707817Y-116949370D01*
X148669844Y-116997693D01*
X148660420Y-117009018D01*
X148616581Y-117048488D01*
X148560457Y-117066701D01*
X148557057Y-117066757D01*
X148500445Y-117050158D01*
X148464647Y-117014294D01*
X148419712Y-116976570D01*
X148376688Y-116936513D01*
X148366621Y-116924608D01*
X148342816Y-116868628D01*
X148335160Y-116807605D01*
X148334881Y-116791545D01*
X148335724Y-116749926D01*
X148342272Y-116683485D01*
X148353675Y-116617326D01*
X148367664Y-116554657D01*
X148385544Y-116486486D01*
X148403416Y-116425473D01*
X148422412Y-116365178D01*
X148441834Y-116307573D01*
X148461680Y-116252658D01*
X148486058Y-116190312D01*
X148511047Y-116131840D01*
X148532339Y-116086073D01*
X148473449Y-116107188D01*
X148419840Y-116128217D01*
X148362478Y-116153338D01*
X148305165Y-116182490D01*
X148252338Y-116215600D01*
X148246685Y-116219723D01*
X148206088Y-116261434D01*
X148198655Y-116277755D01*
X148219051Y-116334566D01*
X148229552Y-116364217D01*
X148230394Y-116374182D01*
X148208205Y-116398216D01*
X148160736Y-116363924D01*
X148130875Y-116307541D01*
X148105547Y-116249117D01*
X148092482Y-116189828D01*
X148110977Y-116132390D01*
X148156268Y-116096642D01*
X148189105Y-116083436D01*
X148249521Y-116066307D01*
X148303987Y-116050380D01*
X148362197Y-116032951D01*
X148424151Y-116014018D01*
X148489849Y-115993584D01*
X148545103Y-115976154D01*
X148573629Y-115967078D01*
X148609289Y-115921638D01*
X148648062Y-115903771D01*
X148700506Y-115925100D01*
X148745640Y-115963019D01*
X148753953Y-115971182D01*
X148766031Y-115994336D01*
X148718715Y-116028432D01*
X148688508Y-116036248D01*
X148660091Y-116088033D01*
X148632771Y-116144469D01*
X148606549Y-116205555D01*
X148581423Y-116271294D01*
X148562113Y-116327233D01*
X148543504Y-116386149D01*
X148525598Y-116448041D01*
X148507821Y-116515211D01*
X148492760Y-116578416D01*
X148480413Y-116637656D01*
X148469183Y-116703513D01*
X148461862Y-116763660D01*
X148458749Y-116809423D01*
X148464296Y-116871265D01*
X148485433Y-116918453D01*
X148532550Y-116952499D01*
X148548630Y-116954210D01*
X148601323Y-116932565D01*
X148614356Y-116918746D01*
X148657639Y-116864002D01*
X148700414Y-116806381D01*
X148734269Y-116758213D01*
X148767798Y-116708205D01*
X148801004Y-116656355D01*
X148833884Y-116602664D01*
X148866440Y-116547133D01*
X148882596Y-116518676D01*
X148911958Y-116465123D01*
X148943693Y-116405029D01*
X148970789Y-116352245D01*
X148999403Y-116295275D01*
X149029536Y-116234120D01*
X149061188Y-116168779D01*
X149094358Y-116099252D01*
X149111512Y-116062919D01*
X149139098Y-116008457D01*
X149168908Y-115956993D01*
X149183418Y-115934252D01*
X149231729Y-115903771D01*
X149286430Y-115925240D01*
X149334240Y-115960462D01*
X149367955Y-115989646D01*
G37*
G36*
X149812587Y-116749046D02*
G01*
X149780056Y-116802083D01*
X149750159Y-116853622D01*
X149721178Y-116905359D01*
X149689562Y-116963296D01*
X149668133Y-117019803D01*
X149662317Y-117035690D01*
X149624679Y-117066757D01*
X149579457Y-117054154D01*
X149542943Y-117019570D01*
X149554459Y-116989967D01*
X149579071Y-116934042D01*
X149602349Y-116871485D01*
X149621623Y-116811308D01*
X149639875Y-116746055D01*
X149644902Y-116726478D01*
X149659375Y-116667162D01*
X149671842Y-116604991D01*
X149680264Y-116543213D01*
X149682053Y-116479901D01*
X149681697Y-116474420D01*
X149674956Y-116447748D01*
X149650520Y-116465627D01*
X149601910Y-116517715D01*
X149554951Y-116574034D01*
X149509641Y-116634585D01*
X149476742Y-116682775D01*
X149444771Y-116733345D01*
X149413729Y-116786296D01*
X149383614Y-116841627D01*
X149354428Y-116899337D01*
X149326170Y-116959429D01*
X149307847Y-117000812D01*
X149269905Y-117045741D01*
X149257008Y-117048000D01*
X149203195Y-117029946D01*
X149195495Y-117026018D01*
X149173868Y-117003743D01*
X149183418Y-116975899D01*
X149206116Y-116919113D01*
X149225891Y-116863534D01*
X149245585Y-116802458D01*
X149262402Y-116745731D01*
X149273580Y-116705669D01*
X149290120Y-116642234D01*
X149303717Y-116584260D01*
X149315862Y-116523526D01*
X149324837Y-116463218D01*
X149327789Y-116430456D01*
X149335373Y-116410233D01*
X149316835Y-116428990D01*
X149278127Y-116474878D01*
X149260378Y-116493177D01*
X149238189Y-116504022D01*
X149218247Y-116485557D01*
X149228358Y-116464748D01*
X149264771Y-116417748D01*
X149304117Y-116368994D01*
X149317678Y-116352494D01*
X149348855Y-116335201D01*
X149388179Y-116365683D01*
X149437613Y-116393819D01*
X149451095Y-116436025D01*
X149439685Y-116499647D01*
X149422024Y-116564838D01*
X149400768Y-116631656D01*
X149378739Y-116695052D01*
X149358292Y-116750817D01*
X149352788Y-116765459D01*
X149378945Y-116708746D01*
X149407650Y-116656958D01*
X149441785Y-116603151D01*
X149475365Y-116555423D01*
X149499968Y-116522780D01*
X149536511Y-116477092D01*
X149574602Y-116433322D01*
X149616386Y-116392132D01*
X149653329Y-116366269D01*
X149691528Y-116353959D01*
X149729447Y-116373889D01*
X149779462Y-116405505D01*
X149798543Y-116460644D01*
X149794047Y-116519687D01*
X149784468Y-116580641D01*
X149772974Y-116639131D01*
X149771298Y-116647050D01*
X149757556Y-116707976D01*
X149739544Y-116768316D01*
X149723267Y-116807958D01*
X149752501Y-116754577D01*
X149774668Y-116722082D01*
X149794330Y-116710358D01*
X149815115Y-116735271D01*
X149812587Y-116749046D01*
G37*
G36*
X150219862Y-116091935D02*
G01*
X150236153Y-116122710D01*
X150205307Y-116172033D01*
X150164529Y-116206534D01*
X150111067Y-116231964D01*
X150070715Y-116231740D01*
X150025494Y-116211224D01*
X150014258Y-116196276D01*
X150014258Y-116179570D01*
X150028583Y-116172535D01*
X150070418Y-116132695D01*
X150111716Y-116089336D01*
X150119869Y-116079332D01*
X150153013Y-116053833D01*
X150205047Y-116080959D01*
X150219862Y-116091935D01*
G37*
G36*
X150112285Y-116473247D02*
G01*
X150099347Y-116537196D01*
X150085381Y-116594847D01*
X150067762Y-116660803D01*
X150050288Y-116722110D01*
X150030276Y-116789185D01*
X150021561Y-116817630D01*
X150055497Y-116767947D01*
X150060323Y-116761063D01*
X150078580Y-116749632D01*
X150089815Y-116786269D01*
X150059125Y-116840239D01*
X150026823Y-116894953D01*
X150022966Y-116901454D01*
X149993704Y-116953712D01*
X149966825Y-117009934D01*
X149954431Y-117041551D01*
X149919883Y-117066757D01*
X149866117Y-117047503D01*
X149863988Y-117046241D01*
X149838990Y-117020156D01*
X149848821Y-116993778D01*
X149873275Y-116940521D01*
X149896281Y-116878780D01*
X149917390Y-116813636D01*
X149936211Y-116749539D01*
X149942634Y-116726478D01*
X149959661Y-116661642D01*
X149973667Y-116603421D01*
X149986188Y-116543857D01*
X149996243Y-116480506D01*
X149998529Y-116457127D01*
X150000214Y-116428990D01*
X149981115Y-116445110D01*
X149932242Y-116494643D01*
X149890952Y-116492005D01*
X149899941Y-116470609D01*
X149936074Y-116422163D01*
X149974428Y-116376294D01*
X149979710Y-116370372D01*
X150010607Y-116353959D01*
X150051896Y-116373303D01*
X150092624Y-116385906D01*
X150115375Y-116437490D01*
X150112285Y-116473247D01*
G37*
G36*
X150735556Y-116439249D02*
G01*
X150711650Y-116496178D01*
X150691458Y-116546227D01*
X150724602Y-116595759D01*
X150722917Y-116623017D01*
X150693986Y-116635327D01*
X150664494Y-116629465D01*
X150639443Y-116686251D01*
X150612040Y-116744943D01*
X150586132Y-116797861D01*
X150558424Y-116852237D01*
X150550176Y-116868041D01*
X150521337Y-116922516D01*
X150489787Y-116978170D01*
X150457398Y-117027204D01*
X150449060Y-117037155D01*
X150399839Y-117066035D01*
X150390637Y-117066757D01*
X150345977Y-117054741D01*
X150303564Y-117066757D01*
X150259191Y-117028834D01*
X150252163Y-117009311D01*
X150239497Y-116946485D01*
X150233408Y-116881094D01*
X150231459Y-116820250D01*
X150231378Y-116803854D01*
X150232306Y-116736947D01*
X150235736Y-116669515D01*
X150242749Y-116606464D01*
X150256156Y-116548670D01*
X150257781Y-116544175D01*
X150220378Y-116592907D01*
X150211717Y-116603087D01*
X150185033Y-116616569D01*
X150161158Y-116592829D01*
X150169866Y-116569674D01*
X150205952Y-116517328D01*
X150240612Y-116466772D01*
X150275301Y-116415994D01*
X150294014Y-116388544D01*
X150340697Y-116353993D01*
X150342325Y-116353959D01*
X150396254Y-116377535D01*
X150420410Y-116395871D01*
X150434173Y-116423422D01*
X150403276Y-116461817D01*
X150380558Y-116519914D01*
X150362540Y-116581000D01*
X150349222Y-116645073D01*
X150340605Y-116712135D01*
X150336688Y-116782185D01*
X150336427Y-116806199D01*
X150338621Y-116864909D01*
X150347048Y-116926898D01*
X150358897Y-116971503D01*
X150374065Y-116991726D01*
X150401591Y-116967106D01*
X150435313Y-116914118D01*
X150465139Y-116861645D01*
X150494824Y-116804117D01*
X150520684Y-116749632D01*
X150544681Y-116695117D01*
X150568309Y-116635629D01*
X150587321Y-116576937D01*
X150589499Y-116568502D01*
X150579949Y-116516332D01*
X150586723Y-116457860D01*
X150603313Y-116396311D01*
X150615340Y-116361579D01*
X150653251Y-116317545D01*
X150662247Y-116316443D01*
X150716706Y-116339627D01*
X150722074Y-116342822D01*
X150747072Y-116383854D01*
X150735556Y-116439249D01*
G37*
G36*
X151156875Y-116357476D02*
G01*
X151154347Y-116373010D01*
X151152100Y-116394406D01*
X151152657Y-116454565D01*
X151152943Y-116471196D01*
X151153782Y-116530100D01*
X151153786Y-116532159D01*
X151148190Y-116595299D01*
X151126703Y-116653991D01*
X151096486Y-116688669D01*
X151045397Y-116717701D01*
X150988507Y-116728958D01*
X150980483Y-116729116D01*
X150924307Y-116719728D01*
X150877120Y-116705083D01*
X150858618Y-116762112D01*
X150851840Y-116789493D01*
X150838727Y-116851495D01*
X150832009Y-116912246D01*
X150831617Y-116942193D01*
X150848751Y-116972968D01*
X150870659Y-116969158D01*
X150926792Y-116944150D01*
X150978377Y-116912005D01*
X151028112Y-116875611D01*
X151073450Y-116839049D01*
X151122327Y-116796820D01*
X151149011Y-116785390D01*
X151172885Y-116808251D01*
X151162774Y-116831405D01*
X151115867Y-116886566D01*
X151072471Y-116934372D01*
X151023164Y-116983786D01*
X150979342Y-117021709D01*
X150927208Y-117055495D01*
X150885827Y-117066757D01*
X150831360Y-117047745D01*
X150786676Y-117012829D01*
X150739278Y-116976998D01*
X150723479Y-116929297D01*
X150725164Y-116909074D01*
X150735355Y-116845339D01*
X150747994Y-116786583D01*
X150764004Y-116725849D01*
X150780778Y-116671084D01*
X150764668Y-116651154D01*
X150901275Y-116651154D01*
X150944531Y-116654085D01*
X151002287Y-116646522D01*
X151033569Y-116626534D01*
X151060581Y-116574041D01*
X151065870Y-116552675D01*
X151057005Y-116491585D01*
X151054354Y-116451558D01*
X151049860Y-116428990D01*
X151030199Y-116440128D01*
X150989567Y-116482179D01*
X150956322Y-116530923D01*
X150925781Y-116590366D01*
X150901275Y-116651154D01*
X150764668Y-116651154D01*
X150753533Y-116637378D01*
X150779093Y-116616569D01*
X150800440Y-116619793D01*
X150825258Y-116562286D01*
X150853314Y-116503192D01*
X150884193Y-116446199D01*
X150917421Y-116395526D01*
X150924588Y-116386199D01*
X150966733Y-116344962D01*
X150997055Y-116335201D01*
X151051546Y-116353080D01*
X151076825Y-116335201D01*
X151113901Y-116335201D01*
X151156875Y-116357476D01*
G37*
G36*
X151723409Y-116428404D02*
G01*
X151720638Y-116490348D01*
X151712327Y-116550518D01*
X151698475Y-116608913D01*
X151695040Y-116620379D01*
X151663020Y-116654085D01*
X151613482Y-116624718D01*
X151608529Y-116620672D01*
X151596170Y-116565278D01*
X151611493Y-116505790D01*
X151617517Y-116453317D01*
X151620326Y-116447748D01*
X151596451Y-116473540D01*
X151556940Y-116529924D01*
X151520000Y-116587993D01*
X151485631Y-116647747D01*
X151453835Y-116709186D01*
X151424610Y-116772310D01*
X151397958Y-116837120D01*
X151373876Y-116903615D01*
X151352367Y-116971796D01*
X151331775Y-117029663D01*
X151299562Y-117066757D01*
X151246722Y-117043869D01*
X151233274Y-117036862D01*
X151208329Y-116982974D01*
X151210242Y-116971503D01*
X151225735Y-116901784D01*
X151241034Y-116836241D01*
X151256140Y-116774875D01*
X151271053Y-116717685D01*
X151289422Y-116652072D01*
X151307490Y-116592984D01*
X151328773Y-116530693D01*
X151291469Y-116576265D01*
X151286361Y-116583743D01*
X151261643Y-116597811D01*
X151239173Y-116576415D01*
X151247599Y-116554727D01*
X151283265Y-116508454D01*
X151319961Y-116456907D01*
X151350401Y-116412284D01*
X151392926Y-116373065D01*
X151397589Y-116372717D01*
X151450877Y-116391974D01*
X151459101Y-116396164D01*
X151470056Y-116445110D01*
X151443728Y-116502030D01*
X151422730Y-116559089D01*
X151406015Y-116607483D01*
X151387035Y-116664548D01*
X151367615Y-116722553D01*
X151348663Y-116778612D01*
X151334391Y-116820267D01*
X151359903Y-116757853D01*
X151386582Y-116697371D01*
X151414428Y-116638821D01*
X151443442Y-116582204D01*
X151473624Y-116527520D01*
X151504973Y-116474768D01*
X151537489Y-116423948D01*
X151571172Y-116375062D01*
X151613794Y-116336174D01*
X151620326Y-116335201D01*
X151664143Y-116373303D01*
X151705994Y-116384147D01*
X151723409Y-116428404D01*
G37*
G36*
X152104000Y-116378579D02*
G01*
X152097168Y-116437518D01*
X152084620Y-116495229D01*
X152066362Y-116534503D01*
X152036589Y-116548572D01*
X151996985Y-116560295D01*
X151976200Y-116535090D01*
X151979571Y-116509884D01*
X151991329Y-116450795D01*
X151993334Y-116399388D01*
X152017489Y-116355718D01*
X152070576Y-116335201D01*
X152104000Y-116378579D01*
G37*
G36*
X151977605Y-116848697D02*
G01*
X151968333Y-116908312D01*
X151932663Y-116958416D01*
X151883631Y-116987355D01*
X151870309Y-116992312D01*
X151844749Y-117038914D01*
X151792638Y-117064172D01*
X151785483Y-117064999D01*
X151734363Y-117062654D01*
X151678798Y-117053730D01*
X151619764Y-117044482D01*
X151589149Y-117011363D01*
X151635806Y-116976038D01*
X151641673Y-116975313D01*
X151700742Y-116969366D01*
X151761410Y-116961388D01*
X151806549Y-116954796D01*
X151853244Y-116921311D01*
X151858512Y-116911126D01*
X151868062Y-116866283D01*
X151858653Y-116806970D01*
X151840413Y-116745987D01*
X151818908Y-116686032D01*
X151797350Y-116626278D01*
X151779686Y-116566526D01*
X151772282Y-116510763D01*
X151790118Y-116454034D01*
X151835727Y-116408156D01*
X151890401Y-116379974D01*
X151950636Y-116361042D01*
X151961875Y-116358355D01*
X151990244Y-116380630D01*
X151972268Y-116404957D01*
X151923658Y-116434413D01*
X151892810Y-116486015D01*
X151892498Y-116492298D01*
X151900082Y-116546520D01*
X151917237Y-116607805D01*
X151935549Y-116668816D01*
X151946989Y-116706255D01*
X151964039Y-116765137D01*
X151975852Y-116825051D01*
X151977605Y-116848697D01*
G37*
G36*
X152671938Y-116489953D02*
G01*
X152650376Y-116553359D01*
X152630980Y-116612600D01*
X152610566Y-116678191D01*
X152593272Y-116737786D01*
X152577040Y-116799734D01*
X152571383Y-116823785D01*
X152587393Y-116795941D01*
X152611549Y-116766339D01*
X152642165Y-116747874D01*
X152662950Y-116769856D01*
X152655085Y-116792717D01*
X152625365Y-116843337D01*
X152597158Y-116901428D01*
X152575096Y-116959776D01*
X152559178Y-117018381D01*
X152557620Y-117025725D01*
X152527566Y-117066757D01*
X152474914Y-117040077D01*
X152472514Y-117038327D01*
X152444707Y-117009311D01*
X152444145Y-116967692D01*
X152455207Y-116903297D01*
X152467504Y-116842550D01*
X152481035Y-116785453D01*
X152498902Y-116721754D01*
X152518546Y-116663310D01*
X152536273Y-116618621D01*
X152506606Y-116673031D01*
X152471429Y-116729321D01*
X152436890Y-116779065D01*
X152398304Y-116830190D01*
X152355668Y-116882696D01*
X152312929Y-116932645D01*
X152270767Y-116979219D01*
X152228086Y-117021671D01*
X152204836Y-117040965D01*
X152153147Y-117066531D01*
X152149222Y-117066757D01*
X152100630Y-117040965D01*
X152061285Y-116996131D01*
X152054846Y-116960658D01*
X152056532Y-116938676D01*
X152068381Y-116874050D01*
X152086440Y-116813414D01*
X152107631Y-116758405D01*
X152134095Y-116700592D01*
X152160176Y-116650274D01*
X152194589Y-116590528D01*
X152230839Y-116534389D01*
X152268926Y-116481856D01*
X152308849Y-116432929D01*
X152350609Y-116387608D01*
X152364937Y-116373303D01*
X152412050Y-116340284D01*
X152437685Y-116335201D01*
X152489527Y-116363661D01*
X152531999Y-116402072D01*
X152551722Y-116421956D01*
X152561833Y-116443938D01*
X152536273Y-116467092D01*
X152520544Y-116463868D01*
X152465114Y-116452694D01*
X152439651Y-116464454D01*
X152392445Y-116507617D01*
X152352428Y-116554182D01*
X152315772Y-116603702D01*
X152283133Y-116652666D01*
X152277584Y-116661412D01*
X152247299Y-116711260D01*
X152216279Y-116768963D01*
X152191066Y-116824357D01*
X152168989Y-116886066D01*
X152154815Y-116944634D01*
X152153435Y-116952745D01*
X152152592Y-116961831D01*
X152159333Y-116972968D01*
X152210585Y-116943120D01*
X152216914Y-116936625D01*
X152261802Y-116888778D01*
X152302375Y-116842223D01*
X152344157Y-116791293D01*
X152380934Y-116744155D01*
X152405945Y-116710944D01*
X152441899Y-116660949D01*
X152477280Y-116608769D01*
X152509059Y-116557240D01*
X152535798Y-116504987D01*
X152537678Y-116500505D01*
X152558795Y-116445279D01*
X152564642Y-116427232D01*
X152595539Y-116383268D01*
X152645246Y-116410645D01*
X152656209Y-116419025D01*
X152679522Y-116450679D01*
X152671938Y-116489953D01*
G37*
G36*
X153374417Y-115759570D02*
G01*
X153388180Y-115784482D01*
X153360935Y-115809981D01*
X153340993Y-115805585D01*
X153289873Y-115791224D01*
X153239013Y-115817859D01*
X153202471Y-115863480D01*
X153188475Y-115885599D01*
X153149481Y-115954428D01*
X153112654Y-116026935D01*
X153077995Y-116103121D01*
X153045503Y-116182986D01*
X153025046Y-116238273D01*
X153005552Y-116295194D01*
X152987022Y-116353751D01*
X152969455Y-116413942D01*
X152952851Y-116475768D01*
X152937211Y-116539229D01*
X152922534Y-116604325D01*
X152908820Y-116671056D01*
X152896070Y-116739422D01*
X152884283Y-116809423D01*
X152879789Y-116825250D01*
X152914056Y-116777476D01*
X152951132Y-116747874D01*
X152961525Y-116788614D01*
X152931257Y-116839255D01*
X152902589Y-116898368D01*
X152880242Y-116958800D01*
X152864214Y-117020551D01*
X152862655Y-117028362D01*
X152831758Y-117066757D01*
X152810131Y-117057965D01*
X152763661Y-117024629D01*
X152763224Y-117024259D01*
X152744686Y-116974434D01*
X152748899Y-116940728D01*
X152760553Y-116875864D01*
X152772625Y-116812212D01*
X152785113Y-116749771D01*
X152798018Y-116688541D01*
X152811340Y-116628523D01*
X152825079Y-116569716D01*
X152839235Y-116512120D01*
X152861250Y-116427997D01*
X152884204Y-116346600D01*
X152908096Y-116267928D01*
X152932925Y-116191981D01*
X152958693Y-116118760D01*
X152985399Y-116048265D01*
X153012504Y-115981426D01*
X153038907Y-115920715D01*
X153064607Y-115866131D01*
X153095745Y-115806518D01*
X153125786Y-115756480D01*
X153160387Y-115709071D01*
X153182577Y-115685124D01*
X153234803Y-115660768D01*
X153236505Y-115660798D01*
X153288301Y-115684552D01*
X153297175Y-115691572D01*
X153340831Y-115729677D01*
X153374417Y-115759570D01*
G37*
G36*
X154331935Y-116041817D02*
G01*
X154312506Y-116103089D01*
X154289612Y-116159633D01*
X154263251Y-116211446D01*
X154247109Y-116238188D01*
X154204119Y-116277495D01*
X154194304Y-116278928D01*
X154139362Y-116256209D01*
X154117343Y-116241705D01*
X154097681Y-116211517D01*
X154131668Y-116177518D01*
X154164958Y-116126467D01*
X154172395Y-116107762D01*
X154190301Y-116050976D01*
X154196270Y-116008404D01*
X154176047Y-115978802D01*
X154151610Y-115982026D01*
X154095453Y-115999976D01*
X154038822Y-116022449D01*
X154020440Y-116030093D01*
X153996003Y-116035076D01*
X153963421Y-116009284D01*
X153992913Y-115973233D01*
X154048316Y-115945933D01*
X154103224Y-115921553D01*
X154157639Y-115900092D01*
X154168463Y-115896150D01*
X154210876Y-115885013D01*
X154255015Y-115923197D01*
X154264243Y-115938648D01*
X154317329Y-115958872D01*
X154339237Y-115999318D01*
X154331935Y-116041817D01*
G37*
G36*
X154095715Y-116788614D02*
G01*
X154088645Y-116852846D01*
X154067436Y-116911159D01*
X154032088Y-116963554D01*
X153990535Y-117003753D01*
X153947973Y-117033931D01*
X153907875Y-117079475D01*
X153854635Y-117102556D01*
X153833093Y-117104273D01*
X153771212Y-117096763D01*
X153714387Y-117079312D01*
X153655063Y-117051707D01*
X153602223Y-117019963D01*
X153565977Y-116994657D01*
X153514621Y-116954674D01*
X153470657Y-116915252D01*
X153429464Y-116870885D01*
X153394663Y-116821849D01*
X153391551Y-116816457D01*
X153363480Y-116763948D01*
X153345487Y-116712703D01*
X153373081Y-116659411D01*
X153384248Y-116648809D01*
X153433314Y-116617702D01*
X153442109Y-116616569D01*
X153469354Y-116649395D01*
X153465984Y-116674015D01*
X153491614Y-116727064D01*
X153528901Y-116778648D01*
X153571089Y-116822582D01*
X153622201Y-116865394D01*
X153638444Y-116877420D01*
X153687356Y-116909892D01*
X153742124Y-116939284D01*
X153801688Y-116961678D01*
X153858022Y-116972128D01*
X153878315Y-116972968D01*
X153932059Y-116954709D01*
X153960998Y-116901252D01*
X153966511Y-116846060D01*
X153955429Y-116786228D01*
X153934485Y-116726770D01*
X153907889Y-116664287D01*
X153879631Y-116604094D01*
X153853035Y-116550623D01*
X153826506Y-116496667D01*
X153798317Y-116434709D01*
X153775657Y-116378847D01*
X153755759Y-116319860D01*
X153742605Y-116262137D01*
X153739841Y-116228223D01*
X153747864Y-116169134D01*
X153774109Y-116113346D01*
X153776355Y-116110107D01*
X153817504Y-116063799D01*
X153862928Y-116024066D01*
X153880843Y-116009870D01*
X153913144Y-115997560D01*
X153943479Y-116025697D01*
X153926345Y-116059402D01*
X153890915Y-116105770D01*
X153870985Y-116163909D01*
X153868203Y-116198621D01*
X153877201Y-116261109D01*
X153896642Y-116323624D01*
X153921970Y-116386897D01*
X153949188Y-116446457D01*
X153974960Y-116498577D01*
X153981959Y-116512228D01*
X154008621Y-116564696D01*
X154036949Y-116623081D01*
X154063610Y-116682583D01*
X154084606Y-116737443D01*
X154095715Y-116788614D01*
G37*
G36*
X155199009Y-115971475D02*
G01*
X155172641Y-116030262D01*
X155155433Y-116090808D01*
X155141319Y-116154313D01*
X155130176Y-116213660D01*
X155119165Y-116280599D01*
X155108285Y-116355131D01*
X155099433Y-116422744D01*
X155091836Y-116486510D01*
X155085494Y-116546428D01*
X155079332Y-116615917D01*
X155075131Y-116679396D01*
X155072679Y-116747636D01*
X155072613Y-116788321D01*
X155076212Y-116852691D01*
X155088326Y-116911170D01*
X155113341Y-116935452D01*
X155136092Y-116926073D01*
X155163337Y-116916695D01*
X155188055Y-116939263D01*
X155173449Y-116967106D01*
X155126334Y-117005793D01*
X155075401Y-117039433D01*
X155050705Y-117054154D01*
X155012505Y-117066757D01*
X154968755Y-117026515D01*
X154952748Y-116963736D01*
X154945278Y-116889286D01*
X154943142Y-116815240D01*
X154943782Y-116751254D01*
X154946342Y-116680024D01*
X154947622Y-116654671D01*
X154880945Y-116659878D01*
X154815315Y-116665827D01*
X154750731Y-116672517D01*
X154687194Y-116679950D01*
X154624704Y-116688124D01*
X154604107Y-116691014D01*
X154463386Y-116876541D01*
X154474340Y-116883575D01*
X154523527Y-116914686D01*
X154541471Y-116965641D01*
X154547369Y-116999053D01*
X154521809Y-117029242D01*
X154495968Y-117019863D01*
X154474340Y-117010484D01*
X154414110Y-117022141D01*
X154357243Y-117046974D01*
X154305153Y-117076773D01*
X154298229Y-117081119D01*
X154261996Y-117103980D01*
X154230537Y-117090205D01*
X154188966Y-117048737D01*
X154175204Y-117023087D01*
X154196432Y-116968622D01*
X154206382Y-116961244D01*
X154255781Y-116924507D01*
X154304250Y-116883678D01*
X154339518Y-116852214D01*
X154382367Y-116812541D01*
X154424361Y-116771113D01*
X154447657Y-116744650D01*
X154442206Y-116686237D01*
X154440916Y-116669912D01*
X154460480Y-116614688D01*
X154480520Y-116601035D01*
X154537016Y-116588022D01*
X154580513Y-116584329D01*
X154627319Y-116524350D01*
X154671395Y-116465462D01*
X154712741Y-116407663D01*
X154751358Y-116350955D01*
X154787244Y-116295336D01*
X154820401Y-116240807D01*
X154850828Y-116187369D01*
X154878526Y-116135020D01*
X154822963Y-116156129D01*
X154763927Y-116176053D01*
X154707299Y-116195053D01*
X154650119Y-116214407D01*
X154596489Y-116232817D01*
X154543156Y-116251670D01*
X154491144Y-116282926D01*
X154464080Y-116336300D01*
X154462824Y-116353666D01*
X154465914Y-116387958D01*
X154442039Y-116428990D01*
X154413390Y-116410819D01*
X154389487Y-116356935D01*
X154367729Y-116299865D01*
X154361427Y-116276876D01*
X154354124Y-116238774D01*
X154378115Y-116184813D01*
X154383336Y-116179863D01*
X154432459Y-116150503D01*
X154491800Y-116130886D01*
X154551320Y-116118365D01*
X154567873Y-116115676D01*
X154628369Y-116105229D01*
X154686095Y-116093121D01*
X154741050Y-116079354D01*
X154803339Y-116060642D01*
X154861639Y-116039539D01*
X154907175Y-116020128D01*
X154923466Y-116002542D01*
X154931893Y-115979095D01*
X154954925Y-115960044D01*
X155004093Y-115990299D01*
X155015876Y-116002542D01*
X155030201Y-116036541D01*
X155005514Y-116091135D01*
X155002113Y-116097211D01*
X154970303Y-116153210D01*
X154938437Y-116206807D01*
X154908129Y-116256163D01*
X154875055Y-116308672D01*
X154845382Y-116354838D01*
X154812672Y-116404826D01*
X154777439Y-116457500D01*
X154741876Y-116508873D01*
X154704920Y-116558973D01*
X154688651Y-116579053D01*
X154748943Y-116578435D01*
X154813267Y-116576151D01*
X154871113Y-116572184D01*
X154929290Y-116565589D01*
X154955206Y-116561468D01*
X154961982Y-116502318D01*
X154970734Y-116440074D01*
X154980332Y-116378930D01*
X154991865Y-116310594D01*
X155002955Y-116248153D01*
X155014717Y-116184463D01*
X155026479Y-116120887D01*
X155038241Y-116057426D01*
X155040593Y-116044748D01*
X155060501Y-115987531D01*
X155102845Y-115942020D01*
X155154179Y-115913491D01*
X155160809Y-115910805D01*
X155190021Y-115903771D01*
X155216423Y-115928683D01*
X155199009Y-115971475D01*
G37*
G36*
X156093848Y-115886197D02*
G01*
X156126472Y-115922822D01*
X156184604Y-115930869D01*
X156211017Y-115941872D01*
X156237033Y-115995304D01*
X156237981Y-116014559D01*
X156234354Y-116074136D01*
X156230959Y-116107176D01*
X156222063Y-116171473D01*
X156209841Y-116237162D01*
X156194291Y-116304243D01*
X156175416Y-116372717D01*
X156153213Y-116442583D01*
X156127684Y-116513840D01*
X156106354Y-116568197D01*
X156083152Y-116623338D01*
X156066645Y-116660533D01*
X156032845Y-116731271D01*
X155998329Y-116795220D01*
X155963097Y-116852378D01*
X155927149Y-116902745D01*
X155878105Y-116959339D01*
X155827788Y-117003862D01*
X155776198Y-117036312D01*
X155723336Y-117056691D01*
X155669201Y-117064999D01*
X155610813Y-117062227D01*
X155589150Y-117058258D01*
X155541401Y-117033638D01*
X155485120Y-117017408D01*
X155432295Y-116997135D01*
X155379143Y-116966786D01*
X155368941Y-116958607D01*
X155331258Y-116912966D01*
X155308442Y-116854445D01*
X155300619Y-116790763D01*
X155300687Y-116767218D01*
X155302571Y-116737906D01*
X155424751Y-116737906D01*
X155425398Y-116763115D01*
X155432116Y-116821547D01*
X155451533Y-116878107D01*
X155454609Y-116883282D01*
X155496741Y-116925025D01*
X155535502Y-116948642D01*
X155589510Y-116967055D01*
X155625665Y-116967986D01*
X155684132Y-116951111D01*
X155732871Y-116921008D01*
X155781623Y-116876321D01*
X155820634Y-116830072D01*
X155859655Y-116774490D01*
X155898684Y-116709575D01*
X155927961Y-116654764D01*
X155937721Y-116635327D01*
X155964561Y-116578606D01*
X155989149Y-116521869D01*
X156011485Y-116465118D01*
X156031570Y-116408350D01*
X156049404Y-116351568D01*
X156064986Y-116294769D01*
X156082260Y-116219014D01*
X156095532Y-116143232D01*
X156104801Y-116067422D01*
X156107934Y-116029507D01*
X156089396Y-115978802D01*
X156035823Y-116002214D01*
X156018615Y-116014266D01*
X155966821Y-116053758D01*
X155918810Y-116093525D01*
X155867462Y-116138752D01*
X155822122Y-116180614D01*
X155774464Y-116226268D01*
X155744757Y-116255480D01*
X155707120Y-116277169D01*
X155683807Y-116255187D01*
X155697008Y-116217672D01*
X155731240Y-116161728D01*
X155765121Y-116110547D01*
X155802818Y-116058661D01*
X155831830Y-116022473D01*
X155779051Y-115997949D01*
X155771722Y-115997560D01*
X155742229Y-116008111D01*
X155697763Y-116050390D01*
X155656406Y-116103852D01*
X155619139Y-116161912D01*
X155586801Y-116218922D01*
X155553297Y-116283774D01*
X155546457Y-116297685D01*
X155515994Y-116363109D01*
X155489912Y-116426463D01*
X155468210Y-116487746D01*
X155450887Y-116546960D01*
X155437945Y-116604103D01*
X155427926Y-116672622D01*
X155424751Y-116737906D01*
X155302571Y-116737906D01*
X155304558Y-116706978D01*
X155312238Y-116645695D01*
X155323728Y-116583367D01*
X155339027Y-116519995D01*
X155358136Y-116455579D01*
X155381054Y-116390119D01*
X155407781Y-116323615D01*
X155438318Y-116256066D01*
X155464264Y-116203305D01*
X155496401Y-116142905D01*
X155528208Y-116088674D01*
X155565943Y-116031737D01*
X155603203Y-115983683D01*
X155639989Y-115944510D01*
X155686558Y-115911568D01*
X155720321Y-115903771D01*
X155777107Y-115915398D01*
X155793069Y-115922822D01*
X155842650Y-115952854D01*
X155877613Y-115974992D01*
X155918903Y-115933858D01*
X155965182Y-115894729D01*
X155979292Y-115884720D01*
X156034211Y-115866327D01*
X156037995Y-115866255D01*
X156093848Y-115886197D01*
G37*
G36*
X156923608Y-115977043D02*
G01*
X156950291Y-116014559D01*
X156926416Y-116035076D01*
X156916305Y-116035076D01*
X156906474Y-116035076D01*
X156860498Y-116070521D01*
X156841591Y-116098090D01*
X156812390Y-116155216D01*
X156786733Y-116217644D01*
X156765049Y-116276006D01*
X156745379Y-116332197D01*
X156737104Y-116356597D01*
X156732329Y-116370372D01*
X156745249Y-116371545D01*
X156803071Y-116374167D01*
X156859269Y-116373829D01*
X156868836Y-116373596D01*
X156905070Y-116405543D01*
X156876982Y-116434559D01*
X156820568Y-116439367D01*
X156759765Y-116443787D01*
X156707331Y-116447455D01*
X156685356Y-116515210D01*
X156665638Y-116580427D01*
X156648175Y-116643107D01*
X156632968Y-116703251D01*
X156620017Y-116760857D01*
X156607000Y-116829297D01*
X156597508Y-116893773D01*
X156594698Y-116918453D01*
X156593855Y-116936039D01*
X156598349Y-116954210D01*
X156650195Y-116919699D01*
X156696043Y-116879261D01*
X156720813Y-116856318D01*
X156751710Y-116841663D01*
X156773056Y-116857783D01*
X156764068Y-116888558D01*
X156728065Y-116936095D01*
X156688479Y-116984020D01*
X156649331Y-117026793D01*
X156637673Y-117038621D01*
X156587957Y-117066757D01*
X156534979Y-117040482D01*
X156530377Y-117036862D01*
X156484335Y-117001162D01*
X156480380Y-116978537D01*
X156482346Y-116963589D01*
X156492771Y-116894391D01*
X156502977Y-116835930D01*
X156514842Y-116774713D01*
X156528366Y-116710739D01*
X156543549Y-116644008D01*
X156560390Y-116574520D01*
X156578891Y-116502276D01*
X156593855Y-116446283D01*
X156536591Y-116437980D01*
X156528130Y-116436611D01*
X156505659Y-116408181D01*
X156524759Y-116377699D01*
X156581061Y-116360887D01*
X156586272Y-116359235D01*
X156631774Y-116338425D01*
X156652221Y-116274655D01*
X156671571Y-116216701D01*
X156694216Y-116152437D01*
X156715146Y-116097260D01*
X156737999Y-116043044D01*
X156764630Y-115991112D01*
X156804831Y-115948293D01*
X156831479Y-115941286D01*
X156885856Y-115956686D01*
X156923608Y-115977043D01*
G37*
G36*
X157124398Y-116379172D02*
G01*
X157158142Y-116407302D01*
X157212233Y-116385173D01*
X157221621Y-116381510D01*
X157263752Y-116372717D01*
X157315058Y-116402501D01*
X157339871Y-116435732D01*
X157362180Y-116490296D01*
X157364307Y-116521900D01*
X157358830Y-116583230D01*
X157347507Y-116644413D01*
X157332063Y-116707308D01*
X157330040Y-116714755D01*
X157312813Y-116771784D01*
X157289298Y-116834817D01*
X157262682Y-116891956D01*
X157232966Y-116943202D01*
X157194379Y-116995538D01*
X157182578Y-117009018D01*
X157138091Y-117046402D01*
X157081690Y-117065855D01*
X157065733Y-117066757D01*
X157007999Y-117057484D01*
X157003377Y-117056206D01*
X156945846Y-117045579D01*
X156894050Y-117019421D01*
X156878105Y-117006381D01*
X156841885Y-116957398D01*
X156827600Y-116897644D01*
X156827593Y-116895299D01*
X156941865Y-116895299D01*
X156948283Y-116955600D01*
X156981981Y-117002904D01*
X157007591Y-117007260D01*
X157061634Y-116988094D01*
X157067699Y-116984106D01*
X157110864Y-116942096D01*
X157144897Y-116891393D01*
X157174178Y-116833983D01*
X157188477Y-116800923D01*
X157210410Y-116743846D01*
X157228284Y-116686993D01*
X157243741Y-116622293D01*
X157253896Y-116557887D01*
X157255607Y-116541831D01*
X157260873Y-116482535D01*
X157261225Y-116472954D01*
X157249709Y-116447748D01*
X157232294Y-116450972D01*
X157110673Y-116511349D01*
X157082304Y-116522780D01*
X157066575Y-116513987D01*
X157035155Y-116564060D01*
X157009487Y-116620404D01*
X156992704Y-116664050D01*
X156973879Y-116719935D01*
X156957366Y-116780444D01*
X156950291Y-116814699D01*
X156942531Y-116874230D01*
X156941865Y-116895299D01*
X156827593Y-116895299D01*
X156827547Y-116878593D01*
X156834553Y-116817547D01*
X156847464Y-116759149D01*
X156864090Y-116701078D01*
X156885689Y-116636499D01*
X156908628Y-116576389D01*
X156931942Y-116522894D01*
X156959616Y-116468844D01*
X156991869Y-116418098D01*
X157012366Y-116392354D01*
X157057131Y-116356359D01*
X157069665Y-116353959D01*
X157124398Y-116379172D01*
G37*
G36*
X159346191Y-115973233D02*
G01*
X159354899Y-115992577D01*
X159320631Y-116019835D01*
X159305183Y-116018076D01*
X159290577Y-116016318D01*
X159243066Y-116052354D01*
X159223447Y-116086073D01*
X159195705Y-116144252D01*
X159169884Y-116204374D01*
X159145983Y-116266437D01*
X159124003Y-116330443D01*
X159103943Y-116396391D01*
X159085804Y-116464282D01*
X159069586Y-116534114D01*
X159055288Y-116605889D01*
X159042911Y-116679607D01*
X159032455Y-116755266D01*
X159026551Y-116806785D01*
X159051567Y-116753617D01*
X159055201Y-116746408D01*
X159084412Y-116723254D01*
X159108568Y-116753443D01*
X159102107Y-116780114D01*
X159081184Y-116840324D01*
X159065156Y-116898960D01*
X159051651Y-116957901D01*
X159038629Y-117023966D01*
X158999306Y-117066757D01*
X158945369Y-117045701D01*
X158912514Y-117022207D01*
X158879370Y-116984985D01*
X158879651Y-116932521D01*
X158890967Y-116863890D01*
X158901273Y-116804273D01*
X158912373Y-116742452D01*
X158924270Y-116678427D01*
X158936961Y-116612198D01*
X158950448Y-116543765D01*
X158953241Y-116529814D01*
X158966052Y-116468901D01*
X158981164Y-116402176D01*
X158997978Y-116335914D01*
X159015771Y-116277649D01*
X159037786Y-116229981D01*
X159002580Y-116280878D01*
X158968979Y-116331223D01*
X158932219Y-116387771D01*
X158899172Y-116439633D01*
X158863930Y-116495803D01*
X158841732Y-116531572D01*
X158805554Y-116591105D01*
X158770925Y-116649536D01*
X158737847Y-116706865D01*
X158706318Y-116763092D01*
X158676339Y-116818217D01*
X158647909Y-116872240D01*
X158636971Y-116893540D01*
X158650680Y-116951853D01*
X158651858Y-116968572D01*
X158628149Y-117022698D01*
X158596806Y-117056792D01*
X158555235Y-117085515D01*
X158515255Y-117039659D01*
X158501026Y-117016053D01*
X158483049Y-116967399D01*
X158505239Y-116910833D01*
X158487966Y-116850152D01*
X158467046Y-116786080D01*
X158442477Y-116718616D01*
X158420196Y-116662203D01*
X158395579Y-116603619D01*
X158368628Y-116542864D01*
X158339342Y-116479939D01*
X158331655Y-116463868D01*
X158307083Y-116527254D01*
X158282167Y-116589365D01*
X158256908Y-116650203D01*
X158231307Y-116709767D01*
X158205363Y-116768058D01*
X158179076Y-116825075D01*
X158168465Y-116847525D01*
X158204291Y-116893817D01*
X158223798Y-116938676D01*
X158176329Y-116971210D01*
X158120676Y-116987311D01*
X158072527Y-117021548D01*
X158044597Y-117054448D01*
X158012577Y-117085515D01*
X157957711Y-117060580D01*
X157923819Y-117032759D01*
X157903315Y-117000226D01*
X157920729Y-116970916D01*
X157966315Y-116932398D01*
X158012344Y-116898216D01*
X158040945Y-116878886D01*
X158076402Y-116815418D01*
X158110165Y-116751189D01*
X158142233Y-116686201D01*
X158172608Y-116620452D01*
X158201288Y-116553944D01*
X158228274Y-116486674D01*
X158253567Y-116418645D01*
X158277165Y-116349856D01*
X158246710Y-116285706D01*
X158213978Y-116227897D01*
X158178970Y-116176427D01*
X158141685Y-116131297D01*
X158093937Y-116085509D01*
X158042912Y-116048851D01*
X158002465Y-116035076D01*
X157949504Y-116061093D01*
X157945727Y-116064678D01*
X157907348Y-116107886D01*
X157884215Y-116134140D01*
X157842083Y-116157881D01*
X157818770Y-116133554D01*
X157824388Y-116112159D01*
X157851541Y-116057960D01*
X157885223Y-116000579D01*
X157925261Y-115946930D01*
X157971449Y-115905306D01*
X158030003Y-115884968D01*
X158036451Y-115885013D01*
X158091788Y-115900526D01*
X158143584Y-115935457D01*
X158189825Y-115979820D01*
X158228832Y-116025295D01*
X158269629Y-116079645D01*
X158312218Y-116142870D01*
X158334183Y-116177811D01*
X158353883Y-116122553D01*
X158367126Y-116062761D01*
X158371540Y-116004008D01*
X158393168Y-115950079D01*
X158443090Y-115978802D01*
X158454119Y-115987595D01*
X158469286Y-116039765D01*
X158456513Y-116102183D01*
X158437317Y-116166897D01*
X158417252Y-116228583D01*
X158396819Y-116288600D01*
X158430108Y-116357261D01*
X158461158Y-116423880D01*
X158489970Y-116488456D01*
X158516544Y-116550990D01*
X158540880Y-116611481D01*
X158562977Y-116669930D01*
X158582836Y-116726336D01*
X158600457Y-116780700D01*
X158633910Y-116723429D01*
X158666999Y-116667681D01*
X158699724Y-116613456D01*
X158732084Y-116560753D01*
X158764080Y-116509573D01*
X158795712Y-116459916D01*
X158842477Y-116388285D01*
X158888422Y-116320081D01*
X158933547Y-116255302D01*
X158977853Y-116193949D01*
X159021340Y-116136023D01*
X159064007Y-116081523D01*
X159091996Y-116047092D01*
X159118362Y-115990215D01*
X159147370Y-115937502D01*
X159159688Y-115917253D01*
X159207569Y-115885044D01*
X159209403Y-115885013D01*
X159263824Y-115907068D01*
X159312028Y-115943252D01*
X159346191Y-115973233D01*
G37*
G36*
X160173381Y-116076108D02*
G01*
X160166651Y-116143137D01*
X160154010Y-116206288D01*
X160135458Y-116265560D01*
X160110995Y-116320954D01*
X160080621Y-116372470D01*
X160044336Y-116420107D01*
X160028166Y-116438076D01*
X159982348Y-116475720D01*
X159947273Y-116496108D01*
X159898119Y-116520142D01*
X159947850Y-116552949D01*
X160001174Y-116591637D01*
X160047565Y-116629583D01*
X160092927Y-116672916D01*
X160133215Y-116721203D01*
X160159767Y-116773661D01*
X160164112Y-116802389D01*
X160149576Y-116860201D01*
X160119597Y-116912120D01*
X160105970Y-116931056D01*
X160111868Y-116957141D01*
X160082741Y-117010129D01*
X160030958Y-117035821D01*
X159968027Y-117051343D01*
X159904737Y-117059906D01*
X159829940Y-117065045D01*
X159766291Y-117066650D01*
X159743636Y-117066757D01*
X159684967Y-117066015D01*
X159627301Y-117064032D01*
X159577355Y-117061482D01*
X159520951Y-117052455D01*
X159479609Y-117014880D01*
X159483704Y-116954230D01*
X159492810Y-116924315D01*
X159532695Y-116901454D01*
X159585781Y-116899988D01*
X159627352Y-116934280D01*
X159674421Y-116967247D01*
X159689707Y-116969744D01*
X159745948Y-116972889D01*
X159757680Y-116972968D01*
X159817635Y-116971474D01*
X159880719Y-116965954D01*
X159936411Y-116956367D01*
X159991007Y-116940430D01*
X160014684Y-116930470D01*
X160053709Y-116887903D01*
X160055131Y-116874782D01*
X160037109Y-116816419D01*
X160004011Y-116772200D01*
X159960909Y-116731544D01*
X159914059Y-116693231D01*
X159866942Y-116657016D01*
X159815593Y-116619646D01*
X159763801Y-116585300D01*
X159714424Y-116560295D01*
X159658412Y-116553668D01*
X159627913Y-116520142D01*
X159665495Y-116474916D01*
X159700661Y-116444524D01*
X159738861Y-116428990D01*
X159780431Y-116444524D01*
X159815541Y-116466506D01*
X159872081Y-116450205D01*
X159918764Y-116415783D01*
X159952048Y-116378872D01*
X159983514Y-116330129D01*
X160009715Y-116275669D01*
X160022549Y-116244050D01*
X160043137Y-116184899D01*
X160056978Y-116126643D01*
X160061591Y-116075522D01*
X160039963Y-116023938D01*
X159983196Y-116019351D01*
X159980417Y-116019542D01*
X159921841Y-116029568D01*
X159876772Y-116040058D01*
X159821145Y-116055074D01*
X159767251Y-116073942D01*
X159757399Y-116078453D01*
X159739975Y-116142668D01*
X159721271Y-116208403D01*
X159701284Y-116275658D01*
X159680016Y-116344434D01*
X159657467Y-116414730D01*
X159633636Y-116486546D01*
X159608524Y-116559883D01*
X159588849Y-116615884D01*
X159582130Y-116634741D01*
X159558514Y-116700311D01*
X159536821Y-116759121D01*
X159512407Y-116823129D01*
X159487075Y-116885997D01*
X159462988Y-116940121D01*
X159447027Y-116970037D01*
X159411297Y-117016302D01*
X159409670Y-117017518D01*
X159353207Y-117036444D01*
X159336080Y-117040086D01*
X159287488Y-117025725D01*
X159291982Y-117004622D01*
X159311398Y-116944868D01*
X159326609Y-116887892D01*
X159335971Y-116828802D01*
X159336361Y-116817043D01*
X159347034Y-116763115D01*
X159400980Y-116742438D01*
X159416130Y-116737030D01*
X159448712Y-116736443D01*
X159474868Y-116676439D01*
X159497843Y-116618688D01*
X159521331Y-116555106D01*
X159541297Y-116497665D01*
X159561620Y-116436175D01*
X159573985Y-116397337D01*
X159593724Y-116332981D01*
X159610600Y-116275324D01*
X159626669Y-116216521D01*
X159641602Y-116154313D01*
X159646170Y-116131503D01*
X159588641Y-116158619D01*
X159536831Y-116186480D01*
X159482207Y-116220896D01*
X159435819Y-116256382D01*
X159392109Y-116299138D01*
X159376807Y-116317909D01*
X159359112Y-116371838D01*
X159368570Y-116430729D01*
X159370628Y-116439542D01*
X159373437Y-116460351D01*
X159354056Y-116485264D01*
X159318104Y-116462989D01*
X159282590Y-116415948D01*
X159252467Y-116365390D01*
X159236929Y-116309995D01*
X159262357Y-116255968D01*
X159265860Y-116251377D01*
X159306472Y-116208146D01*
X159355734Y-116166106D01*
X159402375Y-116131356D01*
X159448151Y-116100142D01*
X159502145Y-116065927D01*
X159553532Y-116036116D01*
X159609067Y-116007439D01*
X159661196Y-115984514D01*
X159673697Y-115979681D01*
X159678963Y-115920983D01*
X159678752Y-115919304D01*
X159700942Y-115885013D01*
X159727906Y-115900254D01*
X159764248Y-115945965D01*
X159764702Y-115948614D01*
X159820954Y-115933426D01*
X159878345Y-115919821D01*
X159939099Y-115908842D01*
X159989405Y-115905236D01*
X160044923Y-115917280D01*
X160070860Y-115933959D01*
X160106433Y-115982539D01*
X160115801Y-115999025D01*
X160155686Y-116014266D01*
X160173542Y-116071058D01*
X160173381Y-116076108D01*
G37*
G36*
X160967707Y-116431628D02*
G01*
X160965531Y-116491785D01*
X160957878Y-116552280D01*
X160942912Y-116610578D01*
X160932878Y-116636206D01*
X160878790Y-116656516D01*
X160876422Y-116655257D01*
X160831156Y-116619794D01*
X160827268Y-116607483D01*
X160839065Y-116586967D01*
X160856716Y-116528058D01*
X160862097Y-116477644D01*
X160835413Y-116451558D01*
X160822493Y-116449800D01*
X160810977Y-116447748D01*
X160763637Y-116479867D01*
X160750026Y-116496401D01*
X160718058Y-116545957D01*
X160689588Y-116602752D01*
X160666886Y-116657309D01*
X160646881Y-116713036D01*
X160629915Y-116771394D01*
X160623069Y-116803268D01*
X160615309Y-116861805D01*
X160614642Y-116882403D01*
X160621225Y-116940935D01*
X160655787Y-116987196D01*
X160682053Y-116991726D01*
X160738247Y-116967161D01*
X160785715Y-116924956D01*
X160826570Y-116879742D01*
X160864055Y-116833185D01*
X160871928Y-116822905D01*
X160901701Y-116804147D01*
X160921082Y-116827009D01*
X160916587Y-116847232D01*
X160893731Y-116900978D01*
X160864072Y-116957500D01*
X160830237Y-117009850D01*
X160805359Y-117042431D01*
X160753658Y-117066163D01*
X160739914Y-117066757D01*
X160685077Y-117052396D01*
X160676155Y-117048000D01*
X160620453Y-117037324D01*
X160568047Y-117008537D01*
X160556219Y-116997881D01*
X160522741Y-116949643D01*
X160509800Y-116890074D01*
X160509874Y-116870972D01*
X160516962Y-116810465D01*
X160530058Y-116752744D01*
X160546932Y-116695447D01*
X160568859Y-116631810D01*
X160591502Y-116572874D01*
X160618442Y-116512112D01*
X160645947Y-116459962D01*
X160678073Y-116410906D01*
X160694412Y-116390595D01*
X160740617Y-116355712D01*
X160751711Y-116353959D01*
X160806061Y-116373248D01*
X160833166Y-116388251D01*
X160890129Y-116377211D01*
X160896364Y-116377113D01*
X160952031Y-116392499D01*
X160967707Y-116431628D01*
G37*
G36*
X161278041Y-116379172D02*
G01*
X161311785Y-116407302D01*
X161365876Y-116385173D01*
X161375263Y-116381510D01*
X161417395Y-116372717D01*
X161468701Y-116402501D01*
X161493513Y-116435732D01*
X161515823Y-116490296D01*
X161517950Y-116521900D01*
X161512473Y-116583230D01*
X161501150Y-116644413D01*
X161485706Y-116707308D01*
X161483683Y-116714755D01*
X161466456Y-116771784D01*
X161442941Y-116834817D01*
X161416325Y-116891956D01*
X161386609Y-116943202D01*
X161348021Y-116995538D01*
X161336221Y-117009018D01*
X161291734Y-117046402D01*
X161235333Y-117065855D01*
X161219375Y-117066757D01*
X161161641Y-117057484D01*
X161157020Y-117056206D01*
X161099489Y-117045579D01*
X161047693Y-117019421D01*
X161031748Y-117006381D01*
X160995528Y-116957398D01*
X160981242Y-116897644D01*
X160981236Y-116895299D01*
X161095508Y-116895299D01*
X161101926Y-116955600D01*
X161135623Y-117002904D01*
X161161233Y-117007260D01*
X161215277Y-116988094D01*
X161221341Y-116984106D01*
X161264506Y-116942096D01*
X161298539Y-116891393D01*
X161327821Y-116833983D01*
X161342120Y-116800923D01*
X161364053Y-116743846D01*
X161381927Y-116686993D01*
X161397384Y-116622293D01*
X161407539Y-116557887D01*
X161409250Y-116541831D01*
X161414516Y-116482535D01*
X161414867Y-116472954D01*
X161403351Y-116447748D01*
X161385937Y-116450972D01*
X161264316Y-116511349D01*
X161235947Y-116522780D01*
X161220218Y-116513987D01*
X161188798Y-116564060D01*
X161163130Y-116620404D01*
X161146347Y-116664050D01*
X161127522Y-116719935D01*
X161111009Y-116780444D01*
X161103934Y-116814699D01*
X161096174Y-116874230D01*
X161095508Y-116895299D01*
X160981236Y-116895299D01*
X160981190Y-116878593D01*
X160988195Y-116817547D01*
X161001107Y-116759149D01*
X161017733Y-116701078D01*
X161039332Y-116636499D01*
X161062271Y-116576389D01*
X161085585Y-116522894D01*
X161113259Y-116468844D01*
X161145511Y-116418098D01*
X161166008Y-116392354D01*
X161210773Y-116356359D01*
X161223308Y-116353959D01*
X161278041Y-116379172D01*
G37*
G36*
X162170152Y-116749046D02*
G01*
X162137620Y-116802083D01*
X162107724Y-116853622D01*
X162078742Y-116905359D01*
X162047127Y-116963296D01*
X162025697Y-117019803D01*
X162019881Y-117035690D01*
X161982243Y-117066757D01*
X161937022Y-117054154D01*
X161900508Y-117019570D01*
X161912024Y-116989967D01*
X161936636Y-116934042D01*
X161959914Y-116871485D01*
X161979187Y-116811308D01*
X161997439Y-116746055D01*
X162002467Y-116726478D01*
X162016940Y-116667162D01*
X162029407Y-116604991D01*
X162037829Y-116543213D01*
X162039617Y-116479901D01*
X162039262Y-116474420D01*
X162032521Y-116447748D01*
X162008084Y-116465627D01*
X161959475Y-116517715D01*
X161912515Y-116574034D01*
X161867206Y-116634585D01*
X161834307Y-116682775D01*
X161802336Y-116733345D01*
X161771293Y-116786296D01*
X161741179Y-116841627D01*
X161711993Y-116899337D01*
X161683735Y-116959429D01*
X161665412Y-117000812D01*
X161627470Y-117045741D01*
X161614572Y-117048000D01*
X161560760Y-117029946D01*
X161553060Y-117026018D01*
X161531432Y-117003743D01*
X161540982Y-116975899D01*
X161563681Y-116919113D01*
X161583455Y-116863534D01*
X161603150Y-116802458D01*
X161619966Y-116745731D01*
X161631144Y-116705669D01*
X161647684Y-116642234D01*
X161661282Y-116584260D01*
X161673426Y-116523526D01*
X161682401Y-116463218D01*
X161685354Y-116430456D01*
X161692938Y-116410233D01*
X161674400Y-116428990D01*
X161635691Y-116474878D01*
X161617943Y-116493177D01*
X161595754Y-116504022D01*
X161575811Y-116485557D01*
X161585923Y-116464748D01*
X161622336Y-116417748D01*
X161661681Y-116368994D01*
X161675242Y-116352494D01*
X161706420Y-116335201D01*
X161745743Y-116365683D01*
X161795178Y-116393819D01*
X161808660Y-116436025D01*
X161797250Y-116499647D01*
X161779589Y-116564838D01*
X161758332Y-116631656D01*
X161736303Y-116695052D01*
X161715856Y-116750817D01*
X161710352Y-116765459D01*
X161736509Y-116708746D01*
X161765214Y-116656958D01*
X161799349Y-116603151D01*
X161832930Y-116555423D01*
X161857533Y-116522780D01*
X161894076Y-116477092D01*
X161932166Y-116433322D01*
X161973951Y-116392132D01*
X162010893Y-116366269D01*
X162049093Y-116353959D01*
X162087011Y-116373889D01*
X162137027Y-116405505D01*
X162156108Y-116460644D01*
X162151611Y-116519687D01*
X162142033Y-116580641D01*
X162130539Y-116639131D01*
X162128862Y-116647050D01*
X162115120Y-116707976D01*
X162097109Y-116768316D01*
X162080832Y-116807958D01*
X162110065Y-116754577D01*
X162132233Y-116722082D01*
X162151895Y-116710358D01*
X162172680Y-116735271D01*
X162170152Y-116749046D01*
G37*
G36*
X162787524Y-116439249D02*
G01*
X162763618Y-116496178D01*
X162743426Y-116546227D01*
X162776570Y-116595759D01*
X162774885Y-116623017D01*
X162745954Y-116635327D01*
X162716462Y-116629465D01*
X162691411Y-116686251D01*
X162664008Y-116744943D01*
X162638100Y-116797861D01*
X162610392Y-116852237D01*
X162602144Y-116868041D01*
X162573304Y-116922516D01*
X162541755Y-116978170D01*
X162509366Y-117027204D01*
X162501027Y-117037155D01*
X162451807Y-117066035D01*
X162442605Y-117066757D01*
X162397945Y-117054741D01*
X162355532Y-117066757D01*
X162311159Y-117028834D01*
X162304131Y-117009311D01*
X162291465Y-116946485D01*
X162285376Y-116881094D01*
X162283427Y-116820250D01*
X162283346Y-116803854D01*
X162284274Y-116736947D01*
X162287703Y-116669515D01*
X162294717Y-116606464D01*
X162308124Y-116548670D01*
X162309749Y-116544175D01*
X162272346Y-116592907D01*
X162263684Y-116603087D01*
X162237001Y-116616569D01*
X162213126Y-116592829D01*
X162221833Y-116569674D01*
X162257920Y-116517328D01*
X162292580Y-116466772D01*
X162327269Y-116415994D01*
X162345982Y-116388544D01*
X162392665Y-116353993D01*
X162394293Y-116353959D01*
X162448222Y-116377535D01*
X162472378Y-116395871D01*
X162486141Y-116423422D01*
X162455244Y-116461817D01*
X162432526Y-116519914D01*
X162414508Y-116581000D01*
X162401190Y-116645073D01*
X162392573Y-116712135D01*
X162388656Y-116782185D01*
X162388395Y-116806199D01*
X162390589Y-116864909D01*
X162399016Y-116926898D01*
X162410865Y-116971503D01*
X162426033Y-116991726D01*
X162453559Y-116967106D01*
X162487281Y-116914118D01*
X162517107Y-116861645D01*
X162546792Y-116804117D01*
X162572652Y-116749632D01*
X162596649Y-116695117D01*
X162620277Y-116635629D01*
X162639289Y-116576937D01*
X162641467Y-116568502D01*
X162631917Y-116516332D01*
X162638691Y-116457860D01*
X162655281Y-116396311D01*
X162667308Y-116361579D01*
X162705219Y-116317545D01*
X162714215Y-116316443D01*
X162768674Y-116339627D01*
X162774042Y-116342822D01*
X162799040Y-116383854D01*
X162787524Y-116439249D01*
G37*
G36*
X163208843Y-116357476D02*
G01*
X163206315Y-116373010D01*
X163204068Y-116394406D01*
X163204625Y-116454565D01*
X163204911Y-116471196D01*
X163205750Y-116530100D01*
X163205754Y-116532159D01*
X163200158Y-116595299D01*
X163178671Y-116653991D01*
X163148454Y-116688669D01*
X163097365Y-116717701D01*
X163040475Y-116728958D01*
X163032451Y-116729116D01*
X162976275Y-116719728D01*
X162929087Y-116705083D01*
X162910586Y-116762112D01*
X162903808Y-116789493D01*
X162890695Y-116851495D01*
X162883977Y-116912246D01*
X162883585Y-116942193D01*
X162900719Y-116972968D01*
X162922627Y-116969158D01*
X162978760Y-116944150D01*
X163030344Y-116912005D01*
X163080080Y-116875611D01*
X163125418Y-116839049D01*
X163174295Y-116796820D01*
X163200979Y-116785390D01*
X163224853Y-116808251D01*
X163214742Y-116831405D01*
X163167835Y-116886566D01*
X163124439Y-116934372D01*
X163075132Y-116983786D01*
X163031310Y-117021709D01*
X162979176Y-117055495D01*
X162937795Y-117066757D01*
X162883328Y-117047745D01*
X162838644Y-117012829D01*
X162791246Y-116976998D01*
X162775446Y-116929297D01*
X162777132Y-116909074D01*
X162787322Y-116845339D01*
X162799962Y-116786583D01*
X162815972Y-116725849D01*
X162832746Y-116671084D01*
X162816636Y-116651154D01*
X162953243Y-116651154D01*
X162996498Y-116654085D01*
X163054255Y-116646522D01*
X163085537Y-116626534D01*
X163112549Y-116574041D01*
X163117838Y-116552675D01*
X163108973Y-116491585D01*
X163106322Y-116451558D01*
X163101828Y-116428990D01*
X163082167Y-116440128D01*
X163041535Y-116482179D01*
X163008290Y-116530923D01*
X162977749Y-116590366D01*
X162953243Y-116651154D01*
X162816636Y-116651154D01*
X162805501Y-116637378D01*
X162831061Y-116616569D01*
X162852407Y-116619793D01*
X162877226Y-116562286D01*
X162905282Y-116503192D01*
X162936161Y-116446199D01*
X162969389Y-116395526D01*
X162976556Y-116386199D01*
X163018701Y-116344962D01*
X163049023Y-116335201D01*
X163103513Y-116353080D01*
X163128793Y-116335201D01*
X163165869Y-116335201D01*
X163208843Y-116357476D01*
G37*
G36*
X163775377Y-116428404D02*
G01*
X163772606Y-116490348D01*
X163764295Y-116550518D01*
X163750443Y-116608913D01*
X163747008Y-116620379D01*
X163714988Y-116654085D01*
X163665450Y-116624718D01*
X163660497Y-116620672D01*
X163648138Y-116565278D01*
X163663461Y-116505790D01*
X163669485Y-116453317D01*
X163672294Y-116447748D01*
X163648419Y-116473540D01*
X163608907Y-116529924D01*
X163571967Y-116587993D01*
X163537599Y-116647747D01*
X163505803Y-116709186D01*
X163476578Y-116772310D01*
X163449925Y-116837120D01*
X163425844Y-116903615D01*
X163404335Y-116971796D01*
X163383743Y-117029663D01*
X163351530Y-117066757D01*
X163298689Y-117043869D01*
X163285242Y-117036862D01*
X163260297Y-116982974D01*
X163262210Y-116971503D01*
X163277703Y-116901784D01*
X163293002Y-116836241D01*
X163308108Y-116774875D01*
X163323021Y-116717685D01*
X163341390Y-116652072D01*
X163359458Y-116592984D01*
X163380741Y-116530693D01*
X163343437Y-116576265D01*
X163338329Y-116583743D01*
X163313611Y-116597811D01*
X163291141Y-116576415D01*
X163299567Y-116554727D01*
X163335233Y-116508454D01*
X163371929Y-116456907D01*
X163402369Y-116412284D01*
X163444894Y-116373065D01*
X163449557Y-116372717D01*
X163502845Y-116391974D01*
X163511069Y-116396164D01*
X163522024Y-116445110D01*
X163495696Y-116502030D01*
X163474698Y-116559089D01*
X163457983Y-116607483D01*
X163439003Y-116664548D01*
X163419583Y-116722553D01*
X163400631Y-116778612D01*
X163386359Y-116820267D01*
X163411871Y-116757853D01*
X163438550Y-116697371D01*
X163466396Y-116638821D01*
X163495410Y-116582204D01*
X163525592Y-116527520D01*
X163556940Y-116474768D01*
X163589457Y-116423948D01*
X163623140Y-116375062D01*
X163665762Y-116336174D01*
X163672294Y-116335201D01*
X163716111Y-116373303D01*
X163757962Y-116384147D01*
X163775377Y-116428404D01*
G37*
G36*
X164224222Y-115977043D02*
G01*
X164250905Y-116014559D01*
X164227031Y-116035076D01*
X164216919Y-116035076D01*
X164207088Y-116035076D01*
X164161112Y-116070521D01*
X164142205Y-116098090D01*
X164113004Y-116155216D01*
X164087347Y-116217644D01*
X164065663Y-116276006D01*
X164045993Y-116332197D01*
X164037718Y-116356597D01*
X164032943Y-116370372D01*
X164045863Y-116371545D01*
X164103685Y-116374167D01*
X164159883Y-116373829D01*
X164169450Y-116373596D01*
X164205684Y-116405543D01*
X164177596Y-116434559D01*
X164121182Y-116439367D01*
X164060379Y-116443787D01*
X164007945Y-116447455D01*
X163985970Y-116515210D01*
X163966252Y-116580427D01*
X163948789Y-116643107D01*
X163933582Y-116703251D01*
X163920631Y-116760857D01*
X163907614Y-116829297D01*
X163898122Y-116893773D01*
X163895312Y-116918453D01*
X163894470Y-116936039D01*
X163898964Y-116954210D01*
X163950809Y-116919699D01*
X163996657Y-116879261D01*
X164021427Y-116856318D01*
X164052324Y-116841663D01*
X164073670Y-116857783D01*
X164064682Y-116888558D01*
X164028679Y-116936095D01*
X163989093Y-116984020D01*
X163949945Y-117026793D01*
X163938287Y-117038621D01*
X163888571Y-117066757D01*
X163835593Y-117040482D01*
X163830991Y-117036862D01*
X163784949Y-117001162D01*
X163780994Y-116978537D01*
X163782960Y-116963589D01*
X163793385Y-116894391D01*
X163803591Y-116835930D01*
X163815456Y-116774713D01*
X163828980Y-116710739D01*
X163844163Y-116644008D01*
X163861005Y-116574520D01*
X163879505Y-116502276D01*
X163894470Y-116446283D01*
X163837205Y-116437980D01*
X163828744Y-116436611D01*
X163806273Y-116408181D01*
X163825373Y-116377699D01*
X163881675Y-116360887D01*
X163886886Y-116359235D01*
X163932388Y-116338425D01*
X163952835Y-116274655D01*
X163972185Y-116216701D01*
X163994830Y-116152437D01*
X164015760Y-116097260D01*
X164038613Y-116043044D01*
X164065244Y-115991112D01*
X164105445Y-115948293D01*
X164132093Y-115941286D01*
X164186470Y-115956686D01*
X164224222Y-115977043D01*
G37*
G36*
X164561558Y-116357476D02*
G01*
X164559030Y-116373010D01*
X164556783Y-116394406D01*
X164557339Y-116454565D01*
X164557625Y-116471196D01*
X164558465Y-116530100D01*
X164558468Y-116532159D01*
X164552872Y-116595299D01*
X164531385Y-116653991D01*
X164501169Y-116688669D01*
X164450080Y-116717701D01*
X164393189Y-116728958D01*
X164385166Y-116729116D01*
X164328990Y-116719728D01*
X164281802Y-116705083D01*
X164263301Y-116762112D01*
X164256523Y-116789493D01*
X164243409Y-116851495D01*
X164236691Y-116912246D01*
X164236300Y-116942193D01*
X164253433Y-116972968D01*
X164275342Y-116969158D01*
X164331474Y-116944150D01*
X164383059Y-116912005D01*
X164432794Y-116875611D01*
X164478133Y-116839049D01*
X164527010Y-116796820D01*
X164553693Y-116785390D01*
X164577568Y-116808251D01*
X164567456Y-116831405D01*
X164520549Y-116886566D01*
X164477154Y-116934372D01*
X164427846Y-116983786D01*
X164384025Y-117021709D01*
X164331891Y-117055495D01*
X164290509Y-117066757D01*
X164236043Y-117047745D01*
X164191359Y-117012829D01*
X164143961Y-116976998D01*
X164128161Y-116929297D01*
X164129846Y-116909074D01*
X164140037Y-116845339D01*
X164152677Y-116786583D01*
X164168687Y-116725849D01*
X164185460Y-116671084D01*
X164169350Y-116651154D01*
X164305958Y-116651154D01*
X164349213Y-116654085D01*
X164406970Y-116646522D01*
X164438252Y-116626534D01*
X164465263Y-116574041D01*
X164470553Y-116552675D01*
X164461688Y-116491585D01*
X164459037Y-116451558D01*
X164454543Y-116428990D01*
X164434881Y-116440128D01*
X164394249Y-116482179D01*
X164361005Y-116530923D01*
X164330464Y-116590366D01*
X164305958Y-116651154D01*
X164169350Y-116651154D01*
X164158215Y-116637378D01*
X164183775Y-116616569D01*
X164205122Y-116619793D01*
X164229940Y-116562286D01*
X164257996Y-116503192D01*
X164288876Y-116446199D01*
X164322104Y-116395526D01*
X164329271Y-116386199D01*
X164371416Y-116344962D01*
X164401737Y-116335201D01*
X164456228Y-116353080D01*
X164481507Y-116335201D01*
X164518583Y-116335201D01*
X164561558Y-116357476D01*
G37*
G36*
X165128091Y-116428404D02*
G01*
X165125321Y-116490348D01*
X165117010Y-116550518D01*
X165103158Y-116608913D01*
X165099722Y-116620379D01*
X165067702Y-116654085D01*
X165018164Y-116624718D01*
X165013212Y-116620672D01*
X165000853Y-116565278D01*
X165016175Y-116505790D01*
X165022200Y-116453317D01*
X165025009Y-116447748D01*
X165001134Y-116473540D01*
X164961622Y-116529924D01*
X164924682Y-116587993D01*
X164890314Y-116647747D01*
X164858517Y-116709186D01*
X164829293Y-116772310D01*
X164802640Y-116837120D01*
X164778559Y-116903615D01*
X164757050Y-116971796D01*
X164736458Y-117029663D01*
X164704244Y-117066757D01*
X164651404Y-117043869D01*
X164637957Y-117036862D01*
X164613011Y-116982974D01*
X164614925Y-116971503D01*
X164630417Y-116901784D01*
X164645716Y-116836241D01*
X164660822Y-116774875D01*
X164675735Y-116717685D01*
X164694105Y-116652072D01*
X164712173Y-116592984D01*
X164733456Y-116530693D01*
X164696152Y-116576265D01*
X164691043Y-116583743D01*
X164666326Y-116597811D01*
X164643855Y-116576415D01*
X164652282Y-116554727D01*
X164687947Y-116508454D01*
X164724643Y-116456907D01*
X164755084Y-116412284D01*
X164797609Y-116373065D01*
X164802271Y-116372717D01*
X164855559Y-116391974D01*
X164863784Y-116396164D01*
X164874738Y-116445110D01*
X164848411Y-116502030D01*
X164827412Y-116559089D01*
X164810698Y-116607483D01*
X164791718Y-116664548D01*
X164772298Y-116722553D01*
X164753346Y-116778612D01*
X164739073Y-116820267D01*
X164764585Y-116757853D01*
X164791264Y-116697371D01*
X164819111Y-116638821D01*
X164848125Y-116582204D01*
X164878306Y-116527520D01*
X164909655Y-116474768D01*
X164942171Y-116423948D01*
X164975855Y-116375062D01*
X165018476Y-116336174D01*
X165025009Y-116335201D01*
X165068826Y-116373303D01*
X165110677Y-116384147D01*
X165128091Y-116428404D01*
G37*
G36*
X165591542Y-115992870D02*
G01*
X165564054Y-116044855D01*
X165537100Y-116099802D01*
X165510678Y-116157711D01*
X165484790Y-116218583D01*
X165459436Y-116282417D01*
X165434614Y-116349213D01*
X165410326Y-116418972D01*
X165386570Y-116491694D01*
X165363349Y-116567377D01*
X165340660Y-116646023D01*
X165325830Y-116700100D01*
X165326392Y-116754322D01*
X165330324Y-116766925D01*
X165309539Y-116785390D01*
X165262913Y-116765166D01*
X165226274Y-116720344D01*
X165224433Y-116708307D01*
X165228646Y-116676066D01*
X165243557Y-116611770D01*
X165260552Y-116544725D01*
X165279632Y-116474933D01*
X165296397Y-116417120D01*
X165314496Y-116357549D01*
X165333930Y-116296220D01*
X165354697Y-116233132D01*
X165360098Y-116217085D01*
X165380703Y-116156255D01*
X165402822Y-116092892D01*
X165425033Y-116032252D01*
X165447903Y-115975307D01*
X165457844Y-115953889D01*
X165493861Y-115907735D01*
X165507559Y-115903771D01*
X165533119Y-115909926D01*
X165586179Y-115929750D01*
X165620192Y-115965906D01*
X165591542Y-115992870D01*
G37*
G36*
X165278081Y-116956262D02*
G01*
X165261399Y-117014247D01*
X165251116Y-117062654D01*
X165211793Y-117074964D01*
X165163342Y-117042431D01*
X165147191Y-117002863D01*
X165153090Y-116967106D01*
X165164044Y-116911126D01*
X165194941Y-116879179D01*
X165210389Y-116883282D01*
X165263009Y-116909471D01*
X165283698Y-116936039D01*
X165278081Y-116956262D01*
G37*
G36*
X165978032Y-115992870D02*
G01*
X165950544Y-116044855D01*
X165923590Y-116099802D01*
X165897168Y-116157711D01*
X165871280Y-116218583D01*
X165845925Y-116282417D01*
X165821104Y-116349213D01*
X165796815Y-116418972D01*
X165773060Y-116491694D01*
X165749838Y-116567377D01*
X165727150Y-116646023D01*
X165712320Y-116700100D01*
X165712882Y-116754322D01*
X165716814Y-116766925D01*
X165696029Y-116785390D01*
X165649403Y-116765166D01*
X165612764Y-116720344D01*
X165610923Y-116708307D01*
X165615136Y-116676066D01*
X165630047Y-116611770D01*
X165647042Y-116544725D01*
X165666122Y-116474933D01*
X165682887Y-116417120D01*
X165700986Y-116357549D01*
X165720420Y-116296220D01*
X165741187Y-116233132D01*
X165746587Y-116217085D01*
X165767193Y-116156255D01*
X165789312Y-116092892D01*
X165811523Y-116032252D01*
X165834393Y-115975307D01*
X165844333Y-115953889D01*
X165880350Y-115907735D01*
X165894049Y-115903771D01*
X165919609Y-115909926D01*
X165972669Y-115929750D01*
X166006682Y-115965906D01*
X165978032Y-115992870D01*
G37*
G36*
X165664571Y-116956262D02*
G01*
X165647889Y-117014247D01*
X165637606Y-117062654D01*
X165598283Y-117074964D01*
X165549832Y-117042431D01*
X165533681Y-117002863D01*
X165539579Y-116967106D01*
X165550534Y-116911126D01*
X165581430Y-116879179D01*
X165596879Y-116883282D01*
X165649498Y-116909471D01*
X165670188Y-116936039D01*
X165664571Y-116956262D01*
G37*
G36*
X166364522Y-115992870D02*
G01*
X166337034Y-116044855D01*
X166310080Y-116099802D01*
X166283658Y-116157711D01*
X166257770Y-116218583D01*
X166232415Y-116282417D01*
X166207594Y-116349213D01*
X166183305Y-116418972D01*
X166159550Y-116491694D01*
X166136328Y-116567377D01*
X166113640Y-116646023D01*
X166098810Y-116700100D01*
X166099372Y-116754322D01*
X166103304Y-116766925D01*
X166082519Y-116785390D01*
X166035893Y-116765166D01*
X165999254Y-116720344D01*
X165997413Y-116708307D01*
X166001626Y-116676066D01*
X166016537Y-116611770D01*
X166033532Y-116544725D01*
X166052612Y-116474933D01*
X166069377Y-116417120D01*
X166087476Y-116357549D01*
X166106909Y-116296220D01*
X166127677Y-116233132D01*
X166133077Y-116217085D01*
X166153682Y-116156255D01*
X166175802Y-116092892D01*
X166198013Y-116032252D01*
X166220883Y-115975307D01*
X166230823Y-115953889D01*
X166266840Y-115907735D01*
X166280539Y-115903771D01*
X166306099Y-115909926D01*
X166359159Y-115929750D01*
X166393172Y-115965906D01*
X166364522Y-115992870D01*
G37*
G36*
X166051061Y-116956262D02*
G01*
X166034379Y-117014247D01*
X166024096Y-117062654D01*
X165984773Y-117074964D01*
X165936321Y-117042431D01*
X165920171Y-117002863D01*
X165926069Y-116967106D01*
X165937024Y-116911126D01*
X165967920Y-116879179D01*
X165983369Y-116883282D01*
X166035988Y-116909471D01*
X166056678Y-116936039D01*
X166051061Y-116956262D01*
G37*
X160507143Y-125189164D02*
X160507143Y-125724878D01*
X160507143Y-125724878D02*
X160471428Y-125832021D01*
X160471428Y-125832021D02*
X160400000Y-125903450D01*
X160400000Y-125903450D02*
X160292857Y-125939164D01*
X160292857Y-125939164D02*
X160221428Y-125939164D01*
X160864286Y-125939164D02*
X160864286Y-125189164D01*
X160864286Y-125189164D02*
X161150000Y-125189164D01*
X161150000Y-125189164D02*
X161221429Y-125224878D01*
X161221429Y-125224878D02*
X161257143Y-125260592D01*
X161257143Y-125260592D02*
X161292857Y-125332021D01*
X161292857Y-125332021D02*
X161292857Y-125439164D01*
X161292857Y-125439164D02*
X161257143Y-125510592D01*
X161257143Y-125510592D02*
X161221429Y-125546307D01*
X161221429Y-125546307D02*
X161150000Y-125582021D01*
X161150000Y-125582021D02*
X160864286Y-125582021D01*
X161971429Y-125189164D02*
X161614286Y-125189164D01*
X161614286Y-125189164D02*
X161578572Y-125546307D01*
X161578572Y-125546307D02*
X161614286Y-125510592D01*
X161614286Y-125510592D02*
X161685715Y-125474878D01*
X161685715Y-125474878D02*
X161864286Y-125474878D01*
X161864286Y-125474878D02*
X161935715Y-125510592D01*
X161935715Y-125510592D02*
X161971429Y-125546307D01*
X161971429Y-125546307D02*
X162007143Y-125617735D01*
X162007143Y-125617735D02*
X162007143Y-125796307D01*
X162007143Y-125796307D02*
X161971429Y-125867735D01*
X161971429Y-125867735D02*
X161935715Y-125903450D01*
X161935715Y-125903450D02*
X161864286Y-125939164D01*
X161864286Y-125939164D02*
X161685715Y-125939164D01*
X161685715Y-125939164D02*
X161614286Y-125903450D01*
X161614286Y-125903450D02*
X161578572Y-125867735D01*
X162328572Y-125653450D02*
X162900001Y-125653450D01*
X163221429Y-125903450D02*
X163328572Y-125939164D01*
X163328572Y-125939164D02*
X163507143Y-125939164D01*
X163507143Y-125939164D02*
X163578572Y-125903450D01*
X163578572Y-125903450D02*
X163614286Y-125867735D01*
X163614286Y-125867735D02*
X163650000Y-125796307D01*
X163650000Y-125796307D02*
X163650000Y-125724878D01*
X163650000Y-125724878D02*
X163614286Y-125653450D01*
X163614286Y-125653450D02*
X163578572Y-125617735D01*
X163578572Y-125617735D02*
X163507143Y-125582021D01*
X163507143Y-125582021D02*
X163364286Y-125546307D01*
X163364286Y-125546307D02*
X163292857Y-125510592D01*
X163292857Y-125510592D02*
X163257143Y-125474878D01*
X163257143Y-125474878D02*
X163221429Y-125403450D01*
X163221429Y-125403450D02*
X163221429Y-125332021D01*
X163221429Y-125332021D02*
X163257143Y-125260592D01*
X163257143Y-125260592D02*
X163292857Y-125224878D01*
X163292857Y-125224878D02*
X163364286Y-125189164D01*
X163364286Y-125189164D02*
X163542857Y-125189164D01*
X163542857Y-125189164D02*
X163650000Y-125224878D01*
X163935715Y-125724878D02*
X164292858Y-125724878D01*
X163864286Y-125939164D02*
X164114286Y-125189164D01*
X164114286Y-125189164D02*
X164364286Y-125939164D01*
X164757143Y-125189164D02*
X164900000Y-125189164D01*
X164900000Y-125189164D02*
X164971429Y-125224878D01*
X164971429Y-125224878D02*
X165042857Y-125296307D01*
X165042857Y-125296307D02*
X165078572Y-125439164D01*
X165078572Y-125439164D02*
X165078572Y-125689164D01*
X165078572Y-125689164D02*
X165042857Y-125832021D01*
X165042857Y-125832021D02*
X164971429Y-125903450D01*
X164971429Y-125903450D02*
X164900000Y-125939164D01*
X164900000Y-125939164D02*
X164757143Y-125939164D01*
X164757143Y-125939164D02*
X164685715Y-125903450D01*
X164685715Y-125903450D02*
X164614286Y-125832021D01*
X164614286Y-125832021D02*
X164578572Y-125689164D01*
X164578572Y-125689164D02*
X164578572Y-125439164D01*
X164578572Y-125439164D02*
X164614286Y-125296307D01*
X164614286Y-125296307D02*
X164685715Y-125224878D01*
X164685715Y-125224878D02*
X164757143Y-125189164D01*
X165400000Y-125439164D02*
X165400000Y-126189164D01*
X165400000Y-125474878D02*
X165471429Y-125439164D01*
X165471429Y-125439164D02*
X165614286Y-125439164D01*
X165614286Y-125439164D02*
X165685714Y-125474878D01*
X165685714Y-125474878D02*
X165721429Y-125510592D01*
X165721429Y-125510592D02*
X165757143Y-125582021D01*
X165757143Y-125582021D02*
X165757143Y-125796307D01*
X165757143Y-125796307D02*
X165721429Y-125867735D01*
X165721429Y-125867735D02*
X165685714Y-125903450D01*
X165685714Y-125903450D02*
X165614286Y-125939164D01*
X165614286Y-125939164D02*
X165471429Y-125939164D01*
X165471429Y-125939164D02*
X165400000Y-125903450D01*
X166007142Y-125439164D02*
X166150000Y-125939164D01*
X166150000Y-125939164D02*
X166292857Y-125582021D01*
X166292857Y-125582021D02*
X166435714Y-125939164D01*
X166435714Y-125939164D02*
X166578571Y-125439164D01*
X149371429Y-125139164D02*
X149371429Y-125674878D01*
X149371429Y-125674878D02*
X149335714Y-125782021D01*
X149335714Y-125782021D02*
X149264286Y-125853450D01*
X149264286Y-125853450D02*
X149157143Y-125889164D01*
X149157143Y-125889164D02*
X149085714Y-125889164D01*
X149728572Y-125889164D02*
X149728572Y-125139164D01*
X149728572Y-125139164D02*
X150014286Y-125139164D01*
X150014286Y-125139164D02*
X150085715Y-125174878D01*
X150085715Y-125174878D02*
X150121429Y-125210592D01*
X150121429Y-125210592D02*
X150157143Y-125282021D01*
X150157143Y-125282021D02*
X150157143Y-125389164D01*
X150157143Y-125389164D02*
X150121429Y-125460592D01*
X150121429Y-125460592D02*
X150085715Y-125496307D01*
X150085715Y-125496307D02*
X150014286Y-125532021D01*
X150014286Y-125532021D02*
X149728572Y-125532021D01*
X150800001Y-125389164D02*
X150800001Y-125889164D01*
X150621429Y-125103450D02*
X150442858Y-125639164D01*
X150442858Y-125639164D02*
X150907143Y-125639164D01*
X151192858Y-125603450D02*
X151764287Y-125603450D01*
X152085715Y-125853450D02*
X152192858Y-125889164D01*
X152192858Y-125889164D02*
X152371429Y-125889164D01*
X152371429Y-125889164D02*
X152442858Y-125853450D01*
X152442858Y-125853450D02*
X152478572Y-125817735D01*
X152478572Y-125817735D02*
X152514286Y-125746307D01*
X152514286Y-125746307D02*
X152514286Y-125674878D01*
X152514286Y-125674878D02*
X152478572Y-125603450D01*
X152478572Y-125603450D02*
X152442858Y-125567735D01*
X152442858Y-125567735D02*
X152371429Y-125532021D01*
X152371429Y-125532021D02*
X152228572Y-125496307D01*
X152228572Y-125496307D02*
X152157143Y-125460592D01*
X152157143Y-125460592D02*
X152121429Y-125424878D01*
X152121429Y-125424878D02*
X152085715Y-125353450D01*
X152085715Y-125353450D02*
X152085715Y-125282021D01*
X152085715Y-125282021D02*
X152121429Y-125210592D01*
X152121429Y-125210592D02*
X152157143Y-125174878D01*
X152157143Y-125174878D02*
X152228572Y-125139164D01*
X152228572Y-125139164D02*
X152407143Y-125139164D01*
X152407143Y-125139164D02*
X152514286Y-125174878D01*
X152800001Y-125674878D02*
X153157144Y-125674878D01*
X152728572Y-125889164D02*
X152978572Y-125139164D01*
X152978572Y-125139164D02*
X153228572Y-125889164D01*
X153621429Y-125139164D02*
X153764286Y-125139164D01*
X153764286Y-125139164D02*
X153835715Y-125174878D01*
X153835715Y-125174878D02*
X153907143Y-125246307D01*
X153907143Y-125246307D02*
X153942858Y-125389164D01*
X153942858Y-125389164D02*
X153942858Y-125639164D01*
X153942858Y-125639164D02*
X153907143Y-125782021D01*
X153907143Y-125782021D02*
X153835715Y-125853450D01*
X153835715Y-125853450D02*
X153764286Y-125889164D01*
X153764286Y-125889164D02*
X153621429Y-125889164D01*
X153621429Y-125889164D02*
X153550001Y-125853450D01*
X153550001Y-125853450D02*
X153478572Y-125782021D01*
X153478572Y-125782021D02*
X153442858Y-125639164D01*
X153442858Y-125639164D02*
X153442858Y-125389164D01*
X153442858Y-125389164D02*
X153478572Y-125246307D01*
X153478572Y-125246307D02*
X153550001Y-125174878D01*
X153550001Y-125174878D02*
X153621429Y-125139164D01*
X154585715Y-125389164D02*
X154585715Y-125996307D01*
X154585715Y-125996307D02*
X154550000Y-126067735D01*
X154550000Y-126067735D02*
X154514286Y-126103450D01*
X154514286Y-126103450D02*
X154442857Y-126139164D01*
X154442857Y-126139164D02*
X154335715Y-126139164D01*
X154335715Y-126139164D02*
X154264286Y-126103450D01*
X154585715Y-125853450D02*
X154514286Y-125889164D01*
X154514286Y-125889164D02*
X154371429Y-125889164D01*
X154371429Y-125889164D02*
X154300000Y-125853450D01*
X154300000Y-125853450D02*
X154264286Y-125817735D01*
X154264286Y-125817735D02*
X154228572Y-125746307D01*
X154228572Y-125746307D02*
X154228572Y-125532021D01*
X154228572Y-125532021D02*
X154264286Y-125460592D01*
X154264286Y-125460592D02*
X154300000Y-125424878D01*
X154300000Y-125424878D02*
X154371429Y-125389164D01*
X154371429Y-125389164D02*
X154514286Y-125389164D01*
X154514286Y-125389164D02*
X154585715Y-125424878D01*
X154942857Y-125389164D02*
X154942857Y-125889164D01*
X154942857Y-125460592D02*
X154978571Y-125424878D01*
X154978571Y-125424878D02*
X155050000Y-125389164D01*
X155050000Y-125389164D02*
X155157143Y-125389164D01*
X155157143Y-125389164D02*
X155228571Y-125424878D01*
X155228571Y-125424878D02*
X155264286Y-125496307D01*
X155264286Y-125496307D02*
X155264286Y-125889164D01*
X155942857Y-125889164D02*
X155942857Y-125139164D01*
X155942857Y-125853450D02*
X155871428Y-125889164D01*
X155871428Y-125889164D02*
X155728571Y-125889164D01*
X155728571Y-125889164D02*
X155657142Y-125853450D01*
X155657142Y-125853450D02*
X155621428Y-125817735D01*
X155621428Y-125817735D02*
X155585714Y-125746307D01*
X155585714Y-125746307D02*
X155585714Y-125532021D01*
X155585714Y-125532021D02*
X155621428Y-125460592D01*
X155621428Y-125460592D02*
X155657142Y-125424878D01*
X155657142Y-125424878D02*
X155728571Y-125389164D01*
X155728571Y-125389164D02*
X155871428Y-125389164D01*
X155871428Y-125389164D02*
X155942857Y-125424878D01*
D11*
%TO.C,J1*%
X155100360Y-119250260D02*
X155100362Y-117751661D01*
X155100362Y-117751661D02*
X159499640Y-117751660D01*
X159499640Y-117751660D02*
X159499640Y-119250260D01*
X159499640Y-119250260D02*
X155100360Y-119250260D01*
X155318799Y-119608400D02*
X154048801Y-119608401D01*
D12*
%TO.C,JP5-SAOpw*%
X161350000Y-128507498D02*
X161350000Y-127907497D01*
X161999999Y-127207498D02*
X164799999Y-127207498D01*
X164600001Y-127007496D02*
X164299999Y-126707498D01*
X164600001Y-127007496D02*
X164899999Y-126707498D01*
X164799999Y-129207498D02*
X161999999Y-129207498D01*
X164899999Y-126707498D02*
X164299999Y-126707498D01*
X165449998Y-127907498D02*
X165449998Y-128507499D01*
X161350000Y-127907497D02*
G75*
G02*
X162049998Y-127207499I699999J-1D01*
G01*
X162050000Y-129207500D02*
G75*
G02*
X161349997Y-128507498I-1J700002D01*
G01*
X164749998Y-127207496D02*
G75*
G02*
X165449998Y-127907498I4J-699996D01*
G01*
X165449998Y-128507499D02*
G75*
G02*
X164750000Y-129207496I-699997J0D01*
G01*
%TO.C,JP4-SAOgnd*%
X149750001Y-128650000D02*
X149750001Y-128049999D01*
X150400000Y-127350000D02*
X153200000Y-127350000D01*
X153000002Y-127149998D02*
X152700000Y-126850000D01*
X153000002Y-127149998D02*
X153300000Y-126850000D01*
X153200000Y-129350000D02*
X150400000Y-129350000D01*
X153300000Y-126850000D02*
X152700000Y-126850000D01*
X153849999Y-128050000D02*
X153849999Y-128650001D01*
X149750001Y-128049999D02*
G75*
G02*
X150449999Y-127350001I699999J-1D01*
G01*
X150449999Y-129350000D02*
G75*
G02*
X149750000Y-128650000I1J700000D01*
G01*
X153150001Y-127350000D02*
G75*
G02*
X153849999Y-128050000I4J-699994D01*
G01*
X153849999Y-128650001D02*
G75*
G02*
X153150001Y-129349998I-699992J-5D01*
G01*
%TD*%
M02*
