%TF.GenerationSoftware,KiCad,Pcbnew,8.0.4*%
%TF.CreationDate,2024-08-30T08:53:53-06:00*%
%TF.ProjectId,SAO_MB_adapter,53414f5f-4d42-45f6-9164-61707465722e,rev?*%
%TF.SameCoordinates,Original*%
%TF.FileFunction,Copper,L2,Bot*%
%TF.FilePolarity,Positive*%
%FSLAX46Y46*%
G04 Gerber Fmt 4.6, Leading zero omitted, Abs format (unit mm)*
G04 Created by KiCad (PCBNEW 8.0.4) date 2024-08-30 08:53:53*
%MOMM*%
%LPD*%
G01*
G04 APERTURE LIST*
G04 Aperture macros list*
%AMFreePoly0*
4,1,19,0.550000,-0.750000,0.000000,-0.750000,0.000000,-0.744911,-0.071157,-0.744911,-0.207708,-0.704816,-0.327430,-0.627875,-0.420627,-0.520320,-0.479746,-0.390866,-0.500000,-0.250000,-0.500000,0.250000,-0.479746,0.390866,-0.420627,0.520320,-0.327430,0.627875,-0.207708,0.704816,-0.071157,0.744911,0.000000,0.744911,0.000000,0.750000,0.550000,0.750000,0.550000,-0.750000,0.550000,-0.750000,
$1*%
%AMFreePoly1*
4,1,19,0.000000,0.744911,0.071157,0.744911,0.207708,0.704816,0.327430,0.627875,0.420627,0.520320,0.479746,0.390866,0.500000,0.250000,0.500000,-0.250000,0.479746,-0.390866,0.420627,-0.520320,0.327430,-0.627875,0.207708,-0.704816,0.071157,-0.744911,0.000000,-0.744911,0.000000,-0.750000,-0.550000,-0.750000,-0.550000,0.750000,0.000000,0.750000,0.000000,0.744911,0.000000,0.744911,
$1*%
G04 Aperture macros list end*
%TA.AperFunction,ComponentPad*%
%ADD10C,1.879600*%
%TD*%
%TA.AperFunction,ComponentPad*%
%ADD11C,1.750000*%
%TD*%
%TA.AperFunction,SMDPad,CuDef*%
%ADD12FreePoly0,180.000000*%
%TD*%
%TA.AperFunction,SMDPad,CuDef*%
%ADD13R,1.000000X1.500000*%
%TD*%
%TA.AperFunction,SMDPad,CuDef*%
%ADD14FreePoly1,180.000000*%
%TD*%
%TA.AperFunction,ViaPad*%
%ADD15C,0.600000*%
%TD*%
%TA.AperFunction,Conductor*%
%ADD16C,0.200000*%
%TD*%
G04 APERTURE END LIST*
D10*
%TO.P,J1,1,1*%
%TO.N,SAO_1*%
X159839998Y-120979998D03*
%TO.P,J1,2,2*%
%TO.N,SAO_2*%
X159840000Y-123520002D03*
%TO.P,J1,3,3*%
%TO.N,SDA*%
X157300000Y-120979999D03*
%TO.P,J1,4,4*%
%TO.N,SCL*%
X157300000Y-123520001D03*
%TO.P,J1,5,5*%
%TO.N,SAO_3*%
X154760000Y-120979998D03*
%TO.P,J1,6,6*%
%TO.N,SAO_4*%
X154760002Y-123520002D03*
%TD*%
D11*
%TO.P,MB1,1,+VBATT*%
%TO.N,unconnected-(MB1-+VBATT-Pad1)*%
X148275000Y-113390000D03*
%TO.P,MB1,2,GND*%
%TO.N,GND*%
X150815000Y-113390000D03*
%TO.P,MB1,3,PROG1*%
%TO.N,unconnected-(MB1-PROG1-Pad3)*%
X153355000Y-113390000D03*
%TO.P,MB1,4,PROG2*%
%TO.N,Prog{slash}MOSI*%
X155895000Y-113390000D03*
%TO.P,MB1,5,PROG3*%
%TO.N,Prog{slash}MISO*%
X158435000Y-113390000D03*
%TO.P,MB1,6,PROG4*%
%TO.N,unconnected-(MB1-PROG4-Pad6)*%
X160975000Y-113390000D03*
%TO.P,MB1,7,+3V3*%
%TO.N,+3.3V*%
X163515000Y-113390000D03*
%TO.P,MB1,8,GND*%
%TO.N,GND*%
X166055000Y-113390000D03*
%TO.P,MB1,9,CLK*%
%TO.N,CLK*%
X148275000Y-131170000D03*
%TO.P,MB1,10,NC*%
%TO.N,unconnected-(MB1-NC-Pad10)*%
X150815000Y-131170000D03*
%TO.P,MB1,11,NC*%
%TO.N,unconnected-(MB1-NC-Pad11)*%
X153355000Y-131170000D03*
%TO.P,MB1,12,NC*%
%TO.N,unconnected-(MB1-NC-Pad12)*%
X155895000Y-131170000D03*
%TO.P,MB1,13,SCL*%
%TO.N,SCL*%
X158435000Y-131170000D03*
%TO.P,MB1,14,SDA*%
%TO.N,SDA*%
X160975000Y-131170000D03*
%TO.P,MB1,15,3V3+*%
%TO.N,+3.3V*%
X163515000Y-131170000D03*
%TO.P,MB1,16,GND*%
%TO.N,GND*%
X166055000Y-131170000D03*
%TD*%
D12*
%TO.P,JP1-GPIO2,1,A*%
%TO.N,Prog{slash}MISO*%
X163150000Y-116257500D03*
D13*
%TO.P,JP1-GPIO2,2,C*%
%TO.N,GPIO2*%
X161850000Y-116257500D03*
D14*
%TO.P,JP1-GPIO2,3,B*%
%TO.N,CLK*%
X160550000Y-116257500D03*
%TD*%
D12*
%TO.P,JP3-SAOpw,1,A*%
%TO.N,+3.3V*%
X164699999Y-128207498D03*
D13*
%TO.P,JP3-SAOpw,2,C*%
%TO.N,SAO_1*%
X163399999Y-128207498D03*
D14*
%TO.P,JP3-SAOpw,3,B*%
%TO.N,GPIO1*%
X162099999Y-128207498D03*
%TD*%
D12*
%TO.P,JP2-GPIO1,1,A*%
%TO.N,Prog{slash}MOSI*%
X153100000Y-116250000D03*
D13*
%TO.P,JP2-GPIO1,2,C*%
%TO.N,GPIO1*%
X151800000Y-116250000D03*
D14*
%TO.P,JP2-GPIO1,3,B*%
%TO.N,CLK*%
X150500000Y-116250000D03*
%TD*%
D12*
%TO.P,JP6-SAOgnd,1,A*%
%TO.N,GPIO2*%
X153050000Y-128300000D03*
D13*
%TO.P,JP6-SAOgnd,2,C*%
%TO.N,SAO_4*%
X151750000Y-128300000D03*
D14*
%TO.P,JP6-SAOgnd,3,B*%
%TO.N,GND*%
X150450000Y-128300000D03*
%TD*%
D15*
%TO.N,GPIO1*%
X162050000Y-128200000D03*
X148250000Y-125700000D03*
%TO.N,GND*%
X165900000Y-126300000D03*
X157050000Y-115050000D03*
X148200000Y-115350000D03*
X149250000Y-118650000D03*
X156400000Y-129500000D03*
X152100000Y-114650000D03*
X151650000Y-119550000D03*
X153550000Y-126300000D03*
X154700000Y-129500000D03*
X165750000Y-117800000D03*
X157950000Y-126850000D03*
X161850000Y-121700000D03*
X149300000Y-124600000D03*
X158300000Y-118600000D03*
X155800000Y-126750000D03*
X161000000Y-126650000D03*
X164050000Y-118400000D03*
X158050000Y-129300000D03*
%TO.N,GPIO2*%
X152700000Y-122950000D03*
X153050000Y-128300000D03*
%TD*%
D16*
%TO.N,SDA*%
X158590200Y-122270199D02*
X158590200Y-128785200D01*
X157300000Y-120979999D02*
X158590200Y-122270199D01*
X158590200Y-128785200D02*
X160975000Y-131170000D01*
%TO.N,GPIO1*%
X151176336Y-115195000D02*
X151800000Y-115818664D01*
X148650000Y-125300000D02*
X149448529Y-125300000D01*
X149689909Y-116833786D02*
X149689909Y-115666214D01*
X148650000Y-125300000D02*
X148250000Y-125700000D01*
X150100000Y-117243877D02*
X149689909Y-116833786D01*
X149448529Y-125300000D02*
X150100000Y-124648529D01*
X151800000Y-115818664D02*
X151800000Y-116250000D01*
X150161123Y-115195000D02*
X151176336Y-115195000D01*
X149689909Y-115666214D02*
X150161123Y-115195000D01*
X150100000Y-124648529D02*
X150100000Y-117243877D01*
%TO.N,GND*%
X166055000Y-117495000D02*
X165750000Y-117800000D01*
X148900000Y-114650000D02*
X148200000Y-115350000D01*
X166055000Y-113390000D02*
X166055000Y-117495000D01*
X148855000Y-115350000D02*
X148200000Y-115350000D01*
X150815000Y-113390000D02*
X148855000Y-115350000D01*
X152100000Y-114650000D02*
X148900000Y-114650000D01*
%TO.N,GPIO2*%
X161850000Y-116257500D02*
X161850000Y-117207500D01*
X152650000Y-121300000D02*
X152700000Y-122950000D01*
X152700000Y-122950000D02*
X152650000Y-122950000D01*
X161850000Y-117207500D02*
X159317302Y-119740198D01*
X159317302Y-119740198D02*
X154209802Y-119740198D01*
X154209802Y-119740198D02*
X152650000Y-121300000D01*
%TO.N,+3.3V*%
X164699999Y-129985001D02*
X163515000Y-131170000D01*
X164699999Y-128207498D02*
X164699999Y-129985001D01*
%TO.N,SCL*%
X157300000Y-123520001D02*
X157300000Y-130035000D01*
X157300000Y-130035000D02*
X158435000Y-131170000D01*
%TO.N,CLK*%
X148275000Y-127623529D02*
X148275000Y-131170000D01*
X160042500Y-115750000D02*
X154360091Y-115750000D01*
X153910091Y-116833786D02*
X153393877Y-117350000D01*
X150800000Y-117350000D02*
X150500000Y-117050000D01*
X153393877Y-117350000D02*
X150800000Y-117350000D01*
X150500000Y-125398529D02*
X148275000Y-127623529D01*
X160550000Y-116257500D02*
X160042500Y-115750000D01*
X153910091Y-116200000D02*
X153910091Y-116833786D01*
X150500000Y-116250000D02*
X150500000Y-125398529D01*
X150500000Y-117050000D02*
X150500000Y-116250000D01*
X154360091Y-115750000D02*
X153910091Y-116200000D01*
%TO.N,SAO_4*%
X151750000Y-126530004D02*
X154760002Y-123520002D01*
X151750000Y-128300000D02*
X151750000Y-126530004D01*
%TO.N,SAO_1*%
X163399999Y-124539999D02*
X163399999Y-128207498D01*
X159839998Y-120979998D02*
X163399999Y-124539999D01*
%TO.N,unconnected-(MB1-PROG1-Pad3)*%
X153100000Y-113645000D02*
X153355000Y-113390000D01*
%TO.N,Prog{slash}MISO*%
X163150000Y-116257500D02*
X163150000Y-115502500D01*
X163150000Y-115502500D02*
X162212500Y-114565000D01*
X159610000Y-114565000D02*
X158435000Y-113390000D01*
X162212500Y-114565000D02*
X159610000Y-114565000D01*
%TO.N,Prog{slash}MOSI*%
X153100000Y-116250000D02*
X155895000Y-113455000D01*
X155895000Y-113455000D02*
X155895000Y-113390000D01*
X156050200Y-113545200D02*
X155895000Y-113390000D01*
%TD*%
%TA.AperFunction,Conductor*%
%TO.N,GND*%
G36*
X159487539Y-116370185D02*
G01*
X159533294Y-116422989D01*
X159544500Y-116474500D01*
X159544500Y-116523073D01*
X159544503Y-116523101D01*
X159544503Y-116579439D01*
X159563703Y-116712978D01*
X159563703Y-116712981D01*
X159564964Y-116721755D01*
X159605503Y-116859813D01*
X159665223Y-116990581D01*
X159665227Y-116990587D01*
X159665230Y-116990594D01*
X159713414Y-117065571D01*
X159743015Y-117111632D01*
X159743018Y-117111636D01*
X159837152Y-117220273D01*
X159837168Y-117220291D01*
X159837171Y-117220294D01*
X159945909Y-117314515D01*
X160006386Y-117353381D01*
X160066857Y-117392244D01*
X160066863Y-117392247D01*
X160197741Y-117452017D01*
X160335696Y-117492524D01*
X160422769Y-117505043D01*
X160486323Y-117534066D01*
X160524099Y-117592843D01*
X160524100Y-117662713D01*
X160492803Y-117715461D01*
X159104886Y-119103379D01*
X159043563Y-119136864D01*
X159017205Y-119139698D01*
X154288859Y-119139698D01*
X154130745Y-119139698D01*
X153978017Y-119180621D01*
X153978016Y-119180621D01*
X153978014Y-119180622D01*
X153978011Y-119180623D01*
X153927898Y-119209557D01*
X153927897Y-119209558D01*
X153884491Y-119234618D01*
X153841087Y-119259677D01*
X153841084Y-119259679D01*
X153729280Y-119371484D01*
X152284947Y-120815816D01*
X152272892Y-120825362D01*
X152273192Y-120825729D01*
X152266900Y-120830867D01*
X152220219Y-120880464D01*
X152217606Y-120883157D01*
X152169482Y-120931281D01*
X152164538Y-120937725D01*
X152164164Y-120937438D01*
X152162895Y-120939143D01*
X152163278Y-120939419D01*
X152158529Y-120946011D01*
X152126290Y-121005975D01*
X152124464Y-121009253D01*
X152090421Y-121068219D01*
X152087314Y-121075721D01*
X152086878Y-121075540D01*
X152086099Y-121077504D01*
X152086540Y-121077671D01*
X152083659Y-121085269D01*
X152068035Y-121151541D01*
X152067120Y-121155176D01*
X152049499Y-121220944D01*
X152048438Y-121229004D01*
X152047966Y-121228941D01*
X152047724Y-121231030D01*
X152048197Y-121231078D01*
X152047381Y-121239163D01*
X152049442Y-121307180D01*
X152049499Y-121310936D01*
X152049499Y-121379060D01*
X152050559Y-121387113D01*
X152050089Y-121387174D01*
X152052326Y-121402390D01*
X152082223Y-122389007D01*
X152064578Y-122456612D01*
X152063274Y-122458735D01*
X151974211Y-122600476D01*
X151914631Y-122770745D01*
X151914630Y-122770750D01*
X151894435Y-122949996D01*
X151894435Y-122950003D01*
X151914630Y-123129249D01*
X151914631Y-123129254D01*
X151974211Y-123299523D01*
X152068289Y-123449246D01*
X152070184Y-123452262D01*
X152197738Y-123579816D01*
X152258797Y-123618182D01*
X152345746Y-123672816D01*
X152350478Y-123675789D01*
X152456635Y-123712935D01*
X152520745Y-123735368D01*
X152520750Y-123735369D01*
X152699996Y-123755565D01*
X152700000Y-123755565D01*
X152700004Y-123755565D01*
X152879249Y-123735369D01*
X152879252Y-123735368D01*
X152879255Y-123735368D01*
X153049522Y-123675789D01*
X153054254Y-123672816D01*
X153141203Y-123618182D01*
X153208440Y-123599181D01*
X153275275Y-123619548D01*
X153320490Y-123672816D01*
X153330752Y-123712935D01*
X153334475Y-123757871D01*
X153334477Y-123757883D01*
X153385562Y-123959609D01*
X153382937Y-124029429D01*
X153353037Y-124077730D01*
X151381286Y-126049482D01*
X151269481Y-126161286D01*
X151269479Y-126161288D01*
X151252852Y-126190088D01*
X151245824Y-126202262D01*
X151190423Y-126298219D01*
X151149499Y-126450947D01*
X151149499Y-126450949D01*
X151149499Y-126619050D01*
X151149500Y-126619063D01*
X151149500Y-126967209D01*
X151129815Y-127034248D01*
X151077011Y-127080003D01*
X151068833Y-127083391D01*
X151007671Y-127106202D01*
X151007664Y-127106206D01*
X150892455Y-127192452D01*
X150892452Y-127192455D01*
X150806206Y-127307664D01*
X150806202Y-127307671D01*
X150755908Y-127442517D01*
X150749501Y-127502116D01*
X150749500Y-127502135D01*
X150749500Y-129097870D01*
X150749501Y-129097876D01*
X150755908Y-129157483D01*
X150806202Y-129292328D01*
X150806206Y-129292335D01*
X150892452Y-129407544D01*
X150892455Y-129407547D01*
X151007664Y-129493793D01*
X151007671Y-129493797D01*
X151142517Y-129544091D01*
X151142516Y-129544091D01*
X151149444Y-129544835D01*
X151202127Y-129550500D01*
X152297872Y-129550499D01*
X152345721Y-129545355D01*
X152357475Y-129544092D01*
X152357476Y-129544091D01*
X152357483Y-129544091D01*
X152357489Y-129544088D01*
X152358478Y-129543855D01*
X152360536Y-129543762D01*
X152365197Y-129543262D01*
X152365228Y-129543553D01*
X152404651Y-129541791D01*
X152500000Y-129555500D01*
X152500003Y-129555500D01*
X153121886Y-129555500D01*
X153121889Y-129555500D01*
X153264304Y-129535024D01*
X153402259Y-129494517D01*
X153533137Y-129434747D01*
X153648477Y-129360622D01*
X153649915Y-129359804D01*
X153654098Y-129357011D01*
X153703017Y-129314620D01*
X153762832Y-129262791D01*
X153856986Y-129154130D01*
X153934770Y-129033094D01*
X153991742Y-128908342D01*
X153993986Y-128904053D01*
X153994498Y-128902308D01*
X153994499Y-128902308D01*
X154035035Y-128764256D01*
X154055497Y-128621941D01*
X154055497Y-128565601D01*
X154055500Y-128565590D01*
X154055500Y-128034426D01*
X154055497Y-128034399D01*
X154055497Y-127978060D01*
X154050301Y-127941924D01*
X154035035Y-127835744D01*
X154035035Y-127835743D01*
X153994498Y-127697691D01*
X153952254Y-127605190D01*
X153934776Y-127566918D01*
X153934773Y-127566914D01*
X153934770Y-127566906D01*
X153856986Y-127445870D01*
X153856985Y-127445869D01*
X153856984Y-127445867D01*
X153856981Y-127445863D01*
X153762847Y-127337226D01*
X153762830Y-127337207D01*
X153762829Y-127337206D01*
X153654091Y-127242985D01*
X153618858Y-127220342D01*
X153533142Y-127165255D01*
X153533136Y-127165252D01*
X153416774Y-127112112D01*
X153402259Y-127105483D01*
X153290787Y-127072752D01*
X153264308Y-127064977D01*
X153264296Y-127064974D01*
X153121889Y-127044500D01*
X152500000Y-127044500D01*
X152494370Y-127044902D01*
X152483339Y-127045691D01*
X152415067Y-127030835D01*
X152365665Y-126981427D01*
X152350500Y-126922006D01*
X152350500Y-126830101D01*
X152370185Y-126763062D01*
X152386819Y-126742420D01*
X153250190Y-125879049D01*
X154203837Y-124925401D01*
X154265158Y-124891918D01*
X154331779Y-124895803D01*
X154405215Y-124921013D01*
X154405218Y-124921014D01*
X154640655Y-124960302D01*
X154640656Y-124960302D01*
X154879348Y-124960302D01*
X154879349Y-124960302D01*
X155114786Y-124921014D01*
X155340547Y-124843511D01*
X155550471Y-124729905D01*
X155738834Y-124583297D01*
X155900496Y-124407684D01*
X155926192Y-124368352D01*
X155979338Y-124322996D01*
X156048569Y-124313572D01*
X156111905Y-124343073D01*
X156133809Y-124368350D01*
X156159506Y-124407683D01*
X156321168Y-124583296D01*
X156509531Y-124729904D01*
X156528974Y-124740426D01*
X156634517Y-124797543D01*
X156684108Y-124846762D01*
X156699500Y-124906598D01*
X156699500Y-129833271D01*
X156679815Y-129900310D01*
X156627011Y-129946065D01*
X156557853Y-129956009D01*
X156516483Y-129942326D01*
X156449432Y-129906040D01*
X156449429Y-129906039D01*
X156449426Y-129906037D01*
X156449420Y-129906035D01*
X156449418Y-129906034D01*
X156233826Y-129832020D01*
X156065188Y-129803880D01*
X156008977Y-129794500D01*
X155781023Y-129794500D01*
X155736053Y-129802004D01*
X155556173Y-129832020D01*
X155340581Y-129906034D01*
X155340567Y-129906040D01*
X155140099Y-130014527D01*
X155140090Y-130014533D01*
X154960212Y-130154538D01*
X154960208Y-130154541D01*
X154805817Y-130322255D01*
X154728809Y-130440125D01*
X154675662Y-130485481D01*
X154606431Y-130494905D01*
X154543095Y-130465403D01*
X154521191Y-130440125D01*
X154444183Y-130322255D01*
X154289794Y-130154544D01*
X154289793Y-130154543D01*
X154289791Y-130154541D01*
X154289787Y-130154538D01*
X154109909Y-130014533D01*
X154109900Y-130014527D01*
X153909432Y-129906040D01*
X153909429Y-129906039D01*
X153909426Y-129906037D01*
X153909420Y-129906035D01*
X153909418Y-129906034D01*
X153693826Y-129832020D01*
X153525188Y-129803880D01*
X153468977Y-129794500D01*
X153241023Y-129794500D01*
X153196053Y-129802004D01*
X153016173Y-129832020D01*
X152800581Y-129906034D01*
X152800567Y-129906040D01*
X152600099Y-130014527D01*
X152600090Y-130014533D01*
X152420212Y-130154538D01*
X152420208Y-130154541D01*
X152265817Y-130322255D01*
X152188809Y-130440125D01*
X152135662Y-130485481D01*
X152066431Y-130494905D01*
X152003095Y-130465403D01*
X151981191Y-130440125D01*
X151904183Y-130322255D01*
X151749794Y-130154544D01*
X151749793Y-130154543D01*
X151749791Y-130154541D01*
X151749787Y-130154538D01*
X151569909Y-130014533D01*
X151569900Y-130014527D01*
X151369432Y-129906040D01*
X151369429Y-129906039D01*
X151369426Y-129906037D01*
X151369420Y-129906035D01*
X151369418Y-129906034D01*
X151153826Y-129832020D01*
X150985188Y-129803880D01*
X150928977Y-129794500D01*
X150701023Y-129794500D01*
X150656053Y-129802004D01*
X150476173Y-129832020D01*
X150260581Y-129906034D01*
X150260567Y-129906040D01*
X150060099Y-130014527D01*
X150060090Y-130014533D01*
X149880212Y-130154538D01*
X149880208Y-130154541D01*
X149725817Y-130322255D01*
X149648809Y-130440125D01*
X149595662Y-130485481D01*
X149526431Y-130494905D01*
X149463095Y-130465403D01*
X149441191Y-130440125D01*
X149364183Y-130322255D01*
X149209794Y-130154544D01*
X149209793Y-130154543D01*
X149209791Y-130154541D01*
X149209787Y-130154538D01*
X149029909Y-130014533D01*
X149029900Y-130014527D01*
X148940481Y-129966135D01*
X148890891Y-129916915D01*
X148875500Y-129857081D01*
X148875500Y-127923625D01*
X148895185Y-127856586D01*
X148911814Y-127835949D01*
X150858506Y-125889256D01*
X150858511Y-125889253D01*
X150868714Y-125879049D01*
X150868716Y-125879049D01*
X150980520Y-125767245D01*
X151037405Y-125668716D01*
X151059577Y-125630314D01*
X151100500Y-125477586D01*
X151100500Y-125319472D01*
X151100500Y-118074500D01*
X151120185Y-118007461D01*
X151172989Y-117961706D01*
X151224500Y-117950500D01*
X153307208Y-117950500D01*
X153307224Y-117950501D01*
X153314820Y-117950501D01*
X153472931Y-117950501D01*
X153472934Y-117950501D01*
X153625662Y-117909577D01*
X153675781Y-117880639D01*
X153762593Y-117830520D01*
X153874397Y-117718716D01*
X153874397Y-117718714D01*
X153884605Y-117708507D01*
X153884607Y-117708504D01*
X154268597Y-117324514D01*
X154268602Y-117324510D01*
X154278805Y-117314306D01*
X154278807Y-117314306D01*
X154390611Y-117202502D01*
X154441140Y-117114983D01*
X154469668Y-117065571D01*
X154510592Y-116912843D01*
X154510592Y-116754729D01*
X154510592Y-116747134D01*
X154510591Y-116747116D01*
X154510591Y-116500097D01*
X154530276Y-116433058D01*
X154546910Y-116412416D01*
X154572507Y-116386819D01*
X154633830Y-116353334D01*
X154660188Y-116350500D01*
X159420500Y-116350500D01*
X159487539Y-116370185D01*
G37*
%TD.AperFunction*%
%TA.AperFunction,Conductor*%
G36*
X161493190Y-123482426D02*
G01*
X162763180Y-124752415D01*
X162796665Y-124813738D01*
X162799499Y-124840096D01*
X162799499Y-126830389D01*
X162779814Y-126897428D01*
X162727010Y-126943183D01*
X162657856Y-126953127D01*
X162650007Y-126951998D01*
X162649999Y-126951998D01*
X162028110Y-126951998D01*
X162028109Y-126951998D01*
X161885702Y-126972472D01*
X161885690Y-126972475D01*
X161747740Y-127012981D01*
X161616862Y-127072750D01*
X161616860Y-127072752D01*
X161501522Y-127146874D01*
X161500082Y-127147694D01*
X161495900Y-127150486D01*
X161387168Y-127244705D01*
X161387165Y-127244708D01*
X161293017Y-127353362D01*
X161293014Y-127353365D01*
X161215230Y-127474403D01*
X161215222Y-127474416D01*
X161158262Y-127599141D01*
X161156014Y-127603437D01*
X161114965Y-127743236D01*
X161114964Y-127743242D01*
X161094502Y-127885557D01*
X161094502Y-127941897D01*
X161094499Y-127941907D01*
X161094499Y-128473071D01*
X161094502Y-128473099D01*
X161094502Y-128529439D01*
X161100734Y-128572783D01*
X161113702Y-128662976D01*
X161113702Y-128662979D01*
X161114963Y-128671753D01*
X161155502Y-128809811D01*
X161215222Y-128940579D01*
X161215226Y-128940585D01*
X161215229Y-128940592D01*
X161264323Y-129016985D01*
X161293014Y-129061630D01*
X161293017Y-129061634D01*
X161387151Y-129170271D01*
X161387167Y-129170289D01*
X161387170Y-129170292D01*
X161495908Y-129264513D01*
X161539194Y-129292331D01*
X161616856Y-129342242D01*
X161616862Y-129342245D01*
X161747740Y-129402015D01*
X161885695Y-129442522D01*
X162028110Y-129462998D01*
X162028113Y-129462998D01*
X162649999Y-129462998D01*
X162721939Y-129457853D01*
X162733725Y-129454391D01*
X162784558Y-129453032D01*
X162784803Y-129450760D01*
X162801386Y-129452542D01*
X162852126Y-129457998D01*
X163947871Y-129457997D01*
X163962241Y-129456452D01*
X164031000Y-129468855D01*
X164082139Y-129516464D01*
X164099499Y-129579741D01*
X164099499Y-129684901D01*
X164079814Y-129751940D01*
X164063179Y-129772583D01*
X164020160Y-129815601D01*
X163958837Y-129849086D01*
X163892217Y-129845200D01*
X163853826Y-129832020D01*
X163685188Y-129803880D01*
X163628977Y-129794500D01*
X163401023Y-129794500D01*
X163356053Y-129802004D01*
X163176173Y-129832020D01*
X162960581Y-129906034D01*
X162960567Y-129906040D01*
X162760099Y-130014527D01*
X162760090Y-130014533D01*
X162580212Y-130154538D01*
X162580208Y-130154541D01*
X162425817Y-130322255D01*
X162348809Y-130440125D01*
X162295662Y-130485481D01*
X162226431Y-130494905D01*
X162163095Y-130465403D01*
X162141191Y-130440125D01*
X162064183Y-130322255D01*
X161909794Y-130154544D01*
X161909793Y-130154543D01*
X161909791Y-130154541D01*
X161909787Y-130154538D01*
X161729909Y-130014533D01*
X161729900Y-130014527D01*
X161529432Y-129906040D01*
X161529429Y-129906039D01*
X161529426Y-129906037D01*
X161529420Y-129906035D01*
X161529418Y-129906034D01*
X161313826Y-129832020D01*
X161145188Y-129803880D01*
X161088977Y-129794500D01*
X160861023Y-129794500D01*
X160823504Y-129800760D01*
X160636178Y-129832019D01*
X160597776Y-129845202D01*
X160527978Y-129848349D01*
X160469836Y-129815600D01*
X159227019Y-128572783D01*
X159193534Y-128511460D01*
X159190700Y-128485102D01*
X159190700Y-124993579D01*
X159210385Y-124926540D01*
X159263189Y-124880785D01*
X159332347Y-124870841D01*
X159354957Y-124876296D01*
X159485216Y-124921014D01*
X159720653Y-124960302D01*
X159720654Y-124960302D01*
X159959346Y-124960302D01*
X159959347Y-124960302D01*
X160194784Y-124921014D01*
X160420545Y-124843511D01*
X160630469Y-124729905D01*
X160818832Y-124583297D01*
X160980494Y-124407684D01*
X161111047Y-124207858D01*
X161206929Y-123989269D01*
X161265525Y-123757880D01*
X161267391Y-123735369D01*
X161281933Y-123559867D01*
X161307086Y-123494682D01*
X161363488Y-123453444D01*
X161433231Y-123449246D01*
X161493190Y-123482426D01*
G37*
%TD.AperFunction*%
%TA.AperFunction,Conductor*%
G36*
X165612370Y-113573343D02*
G01*
X165674905Y-113681657D01*
X165763343Y-113770095D01*
X165871657Y-113832630D01*
X165946000Y-113852550D01*
X165274015Y-114524536D01*
X165274015Y-114524538D01*
X165300360Y-114545043D01*
X165300371Y-114545050D01*
X165500769Y-114653499D01*
X165500780Y-114653504D01*
X165716298Y-114727492D01*
X165941065Y-114765000D01*
X166168935Y-114765000D01*
X166393691Y-114727494D01*
X166440235Y-114711515D01*
X166510034Y-114708364D01*
X166570455Y-114743450D01*
X166602317Y-114805632D01*
X166604500Y-114828796D01*
X166604500Y-129731202D01*
X166584815Y-129798241D01*
X166532011Y-129843996D01*
X166462853Y-129853940D01*
X166440237Y-129848483D01*
X166393701Y-129832507D01*
X166168935Y-129795000D01*
X165941065Y-129795000D01*
X165716298Y-129832507D01*
X165500780Y-129906495D01*
X165500763Y-129906502D01*
X165483515Y-129915837D01*
X165415187Y-129930432D01*
X165349815Y-129905768D01*
X165308155Y-129849677D01*
X165300499Y-129806782D01*
X165300499Y-129324254D01*
X165320184Y-129257215D01*
X165343292Y-129230544D01*
X165412831Y-129170289D01*
X165506985Y-129061628D01*
X165584769Y-128940592D01*
X165641741Y-128815840D01*
X165643985Y-128811551D01*
X165644497Y-128809806D01*
X165644498Y-128809806D01*
X165685034Y-128671754D01*
X165705496Y-128529439D01*
X165705496Y-128473099D01*
X165705499Y-128473088D01*
X165705499Y-127941924D01*
X165705496Y-127941897D01*
X165705496Y-127885558D01*
X165701330Y-127856586D01*
X165685034Y-127743242D01*
X165685034Y-127743241D01*
X165644497Y-127605189D01*
X165627013Y-127566905D01*
X165584775Y-127474416D01*
X165584772Y-127474412D01*
X165584769Y-127474404D01*
X165506985Y-127353368D01*
X165506984Y-127353367D01*
X165506983Y-127353365D01*
X165506980Y-127353361D01*
X165412846Y-127244724D01*
X165412829Y-127244705D01*
X165412828Y-127244704D01*
X165304090Y-127150483D01*
X165268857Y-127127840D01*
X165183141Y-127072753D01*
X165183135Y-127072750D01*
X165096700Y-127033277D01*
X165052258Y-127012981D01*
X164965729Y-126987574D01*
X164914307Y-126972475D01*
X164914295Y-126972472D01*
X164771888Y-126951998D01*
X164149999Y-126951998D01*
X164144369Y-126952400D01*
X164133338Y-126953189D01*
X164065066Y-126938333D01*
X164015664Y-126888925D01*
X164000499Y-126829504D01*
X164000499Y-124629059D01*
X164000500Y-124629046D01*
X164000500Y-124460943D01*
X163993847Y-124436113D01*
X163959576Y-124308215D01*
X163902561Y-124209461D01*
X163880523Y-124171289D01*
X163880517Y-124171281D01*
X162659232Y-122949996D01*
X161246961Y-121537726D01*
X161213477Y-121476404D01*
X161214438Y-121419605D01*
X161265520Y-121217888D01*
X161265520Y-121217887D01*
X161265523Y-121217876D01*
X161265524Y-121217867D01*
X161285234Y-120980003D01*
X161285234Y-120979992D01*
X161265524Y-120742128D01*
X161265522Y-120742116D01*
X161206927Y-120510730D01*
X161111046Y-120292145D01*
X161111045Y-120292142D01*
X160980492Y-120092316D01*
X160818830Y-119916703D01*
X160630467Y-119770095D01*
X160630460Y-119770090D01*
X160456295Y-119675836D01*
X160406705Y-119626617D01*
X160391597Y-119558400D01*
X160415768Y-119492845D01*
X160427625Y-119479108D01*
X162208506Y-117698228D01*
X162208511Y-117698224D01*
X162218714Y-117688020D01*
X162218716Y-117688020D01*
X162330520Y-117576216D01*
X162336554Y-117565763D01*
X162387120Y-117517547D01*
X162430690Y-117504471D01*
X162438533Y-117503628D01*
X162457475Y-117501592D01*
X162457476Y-117501591D01*
X162457483Y-117501591D01*
X162457489Y-117501588D01*
X162458478Y-117501355D01*
X162460537Y-117501262D01*
X162465198Y-117500762D01*
X162465229Y-117501053D01*
X162504651Y-117499291D01*
X162600000Y-117513000D01*
X162600003Y-117513000D01*
X163221886Y-117513000D01*
X163221889Y-117513000D01*
X163364304Y-117492524D01*
X163502259Y-117452017D01*
X163633137Y-117392247D01*
X163748477Y-117318122D01*
X163749915Y-117317304D01*
X163754098Y-117314511D01*
X163803017Y-117272120D01*
X163862832Y-117220291D01*
X163956986Y-117111630D01*
X164034770Y-116990594D01*
X164091742Y-116865842D01*
X164093986Y-116861553D01*
X164094498Y-116859808D01*
X164094499Y-116859808D01*
X164135035Y-116721756D01*
X164155497Y-116579441D01*
X164155497Y-116523101D01*
X164155500Y-116523090D01*
X164155500Y-115991926D01*
X164155497Y-115991899D01*
X164155497Y-115935560D01*
X164135035Y-115793244D01*
X164135034Y-115793239D01*
X164120949Y-115745271D01*
X164094498Y-115655191D01*
X164063428Y-115587157D01*
X164034776Y-115524418D01*
X164034773Y-115524414D01*
X164034770Y-115524406D01*
X163956986Y-115403370D01*
X163956985Y-115403369D01*
X163956984Y-115403367D01*
X163956981Y-115403363D01*
X163862847Y-115294726D01*
X163862830Y-115294707D01*
X163862829Y-115294706D01*
X163754091Y-115200485D01*
X163718858Y-115177842D01*
X163633142Y-115122755D01*
X163633134Y-115122751D01*
X163628364Y-115120573D01*
X163592198Y-115095462D01*
X163518716Y-115021980D01*
X163518715Y-115021979D01*
X163514385Y-115017649D01*
X163514374Y-115017639D01*
X163473916Y-114977181D01*
X163440431Y-114915858D01*
X163445415Y-114846166D01*
X163487287Y-114790233D01*
X163552751Y-114765816D01*
X163561597Y-114765500D01*
X163628976Y-114765500D01*
X163628977Y-114765500D01*
X163853823Y-114727980D01*
X163855245Y-114727492D01*
X163887167Y-114716533D01*
X164069426Y-114653963D01*
X164269906Y-114545469D01*
X164449794Y-114405456D01*
X164604183Y-114237745D01*
X164681490Y-114119416D01*
X164734636Y-114074060D01*
X164803867Y-114064636D01*
X164867203Y-114094138D01*
X164889108Y-114119417D01*
X164921874Y-114169570D01*
X165592448Y-113498995D01*
X165612370Y-113573343D01*
G37*
%TD.AperFunction*%
%TA.AperFunction,Conductor*%
G36*
X158105703Y-129150385D02*
G01*
X158112181Y-129156417D01*
X158228549Y-129272785D01*
X158228555Y-129272790D01*
X158538584Y-129582819D01*
X158572069Y-129644142D01*
X158567085Y-129713834D01*
X158525213Y-129769767D01*
X158459749Y-129794184D01*
X158450903Y-129794500D01*
X158321023Y-129794500D01*
X158283548Y-129800753D01*
X158096172Y-129832020D01*
X158064759Y-129842804D01*
X157994961Y-129845952D01*
X157934541Y-129810864D01*
X157902682Y-129748681D01*
X157900500Y-129725522D01*
X157900500Y-129244098D01*
X157920185Y-129177059D01*
X157972989Y-129131304D01*
X158042147Y-129121360D01*
X158105703Y-129150385D01*
G37*
%TD.AperFunction*%
%TA.AperFunction,Conductor*%
G36*
X150372370Y-113573343D02*
G01*
X150434905Y-113681657D01*
X150523343Y-113770095D01*
X150631657Y-113832630D01*
X150706002Y-113852550D01*
X150026621Y-114531930D01*
X150017296Y-114572938D01*
X149967428Y-114621877D01*
X149941128Y-114632263D01*
X149929339Y-114635422D01*
X149914386Y-114644056D01*
X149914383Y-114644057D01*
X149792413Y-114714475D01*
X149792405Y-114714481D01*
X149209390Y-115297496D01*
X149209384Y-115297504D01*
X149174699Y-115357582D01*
X149174699Y-115357584D01*
X149130332Y-115434428D01*
X149130332Y-115434429D01*
X149089408Y-115587157D01*
X149089408Y-115587159D01*
X149089408Y-115755260D01*
X149089409Y-115755273D01*
X149089409Y-116747116D01*
X149089408Y-116747134D01*
X149089408Y-116912840D01*
X149089407Y-116912840D01*
X149089408Y-116912843D01*
X149130332Y-117065571D01*
X149158860Y-117114983D01*
X149209386Y-117202498D01*
X149209390Y-117202503D01*
X149328258Y-117321371D01*
X149328264Y-117321376D01*
X149463181Y-117456293D01*
X149496666Y-117517616D01*
X149499500Y-117543974D01*
X149499500Y-124348432D01*
X149479815Y-124415471D01*
X149463181Y-124436113D01*
X149236113Y-124663181D01*
X149174790Y-124696666D01*
X149148432Y-124699500D01*
X148570940Y-124699500D01*
X148530019Y-124710464D01*
X148530019Y-124710465D01*
X148492751Y-124720451D01*
X148418214Y-124740423D01*
X148418209Y-124740426D01*
X148281285Y-124819478D01*
X148231462Y-124869300D01*
X148170138Y-124902784D01*
X148157666Y-124904837D01*
X148070750Y-124914630D01*
X147893904Y-124976511D01*
X147893205Y-124974515D01*
X147834348Y-124984201D01*
X147770216Y-124956472D01*
X147731256Y-124898472D01*
X147725500Y-124861130D01*
X147725500Y-114829327D01*
X147745185Y-114762288D01*
X147797989Y-114716533D01*
X147867147Y-114706589D01*
X147889761Y-114712045D01*
X147936177Y-114727980D01*
X148161023Y-114765500D01*
X148161024Y-114765500D01*
X148388976Y-114765500D01*
X148388977Y-114765500D01*
X148613823Y-114727980D01*
X148615245Y-114727492D01*
X148647167Y-114716533D01*
X148829426Y-114653963D01*
X149029906Y-114545469D01*
X149209794Y-114405456D01*
X149364183Y-114237745D01*
X149441490Y-114119416D01*
X149494636Y-114074060D01*
X149563867Y-114064636D01*
X149627203Y-114094138D01*
X149649108Y-114119417D01*
X149681874Y-114169570D01*
X150352449Y-113498996D01*
X150372370Y-113573343D01*
G37*
%TD.AperFunction*%
%TA.AperFunction,Conductor*%
G36*
X157246904Y-114094596D02*
G01*
X157268809Y-114119875D01*
X157345814Y-114237742D01*
X157500208Y-114405458D01*
X157500212Y-114405461D01*
X157680094Y-114545469D01*
X157680096Y-114545470D01*
X157680099Y-114545472D01*
X157730852Y-114572938D01*
X157880574Y-114653963D01*
X157975933Y-114686700D01*
X158096173Y-114727979D01*
X158096175Y-114727979D01*
X158096177Y-114727980D01*
X158321023Y-114765500D01*
X158321024Y-114765500D01*
X158548976Y-114765500D01*
X158548977Y-114765500D01*
X158773823Y-114727980D01*
X158812217Y-114714798D01*
X158882015Y-114711647D01*
X158940163Y-114744398D01*
X159125139Y-114929374D01*
X159125160Y-114929397D01*
X159133582Y-114937819D01*
X159167067Y-114999142D01*
X159162083Y-115068834D01*
X159120211Y-115124767D01*
X159054747Y-115149184D01*
X159045901Y-115149500D01*
X155349097Y-115149500D01*
X155282058Y-115129815D01*
X155236303Y-115077011D01*
X155226359Y-115007853D01*
X155255384Y-114944297D01*
X155261407Y-114937826D01*
X155438596Y-114760637D01*
X155499915Y-114727155D01*
X155550968Y-114728024D01*
X155551117Y-114727136D01*
X155781023Y-114765500D01*
X156008976Y-114765500D01*
X156008977Y-114765500D01*
X156233823Y-114727980D01*
X156235245Y-114727492D01*
X156267167Y-114716533D01*
X156449426Y-114653963D01*
X156649906Y-114545469D01*
X156829794Y-114405456D01*
X156984183Y-114237745D01*
X157061191Y-114119874D01*
X157114337Y-114074518D01*
X157183568Y-114065094D01*
X157246904Y-114094596D01*
G37*
%TD.AperFunction*%
%TA.AperFunction,Conductor*%
G36*
X151948123Y-114169571D02*
G01*
X151980892Y-114119416D01*
X152034038Y-114074060D01*
X152103269Y-114064636D01*
X152166605Y-114094138D01*
X152188509Y-114119416D01*
X152265817Y-114237745D01*
X152420206Y-114405456D01*
X152420208Y-114405458D01*
X152420212Y-114405461D01*
X152600094Y-114545469D01*
X152600096Y-114545470D01*
X152600099Y-114545472D01*
X152650852Y-114572938D01*
X152800574Y-114653963D01*
X152895933Y-114686700D01*
X153016173Y-114727979D01*
X153016175Y-114727979D01*
X153016177Y-114727980D01*
X153137296Y-114748191D01*
X153200181Y-114778641D01*
X153236620Y-114838256D01*
X153235045Y-114908108D01*
X153195955Y-114966020D01*
X153131762Y-114993604D01*
X153116886Y-114994500D01*
X152549997Y-114994500D01*
X152478057Y-114999645D01*
X152466267Y-115003107D01*
X152415439Y-115004468D01*
X152415196Y-115006738D01*
X152347883Y-114999501D01*
X152347881Y-114999500D01*
X152347873Y-114999500D01*
X152347865Y-114999500D01*
X151881433Y-114999500D01*
X151814394Y-114979815D01*
X151793752Y-114963181D01*
X151663926Y-114833355D01*
X151663924Y-114833352D01*
X151559823Y-114729251D01*
X151526338Y-114667928D01*
X151531322Y-114598236D01*
X151571341Y-114543717D01*
X151595984Y-114524536D01*
X150923997Y-113852550D01*
X150998343Y-113832630D01*
X151106657Y-113770095D01*
X151195095Y-113681657D01*
X151257630Y-113573343D01*
X151277550Y-113498998D01*
X151948123Y-114169571D01*
G37*
%TD.AperFunction*%
%TD*%
M02*
