M48
; DRILL file {KiCad 8.0.4} date 2024-08-30T08:53:57-0600
; FORMAT={-:-/ absolute / inch / decimal}
; #@! TF.CreationDate,2024-08-30T08:53:57-06:00
; #@! TF.GenerationSoftware,Kicad,Pcbnew,8.0.4
; #@! TF.FileFunction,Plated,1,2,PTH
FMAT,2
INCH
; #@! TA.AperFunction,Plated,PTH,ViaDrill
T1C0.0118
; #@! TA.AperFunction,Plated,PTH,ComponentDrill
T2C0.0374
; #@! TA.AperFunction,Plated,PTH,ComponentDrill
T3C0.0400
%
G90
G05
T1
X5.8346Y-4.5413
X5.8366Y-4.9488
X5.876Y-4.6713
X5.878Y-4.9055
X5.9705Y-4.7067
X5.9882Y-4.5138
X6.0118Y-4.8406
X6.0256Y-5.0512
X6.0453Y-4.9724
X6.0906Y-5.0984
X6.1339Y-4.9902
X6.1575Y-5.0984
X6.1831Y-4.5295
X6.2185Y-4.9941
X6.2224Y-5.0906
X6.2323Y-4.6693
X6.3386Y-4.9862
X6.372Y-4.7913
X6.3799Y-5.0472
X6.4587Y-4.6614
X6.5256Y-4.6378
X6.5315Y-4.9724
T2
X5.8376Y-4.4642
X5.8376Y-5.1642
X5.9376Y-4.4642
X5.9376Y-5.1642
X6.0376Y-4.4642
X6.0376Y-5.1642
X6.1376Y-4.4642
X6.1376Y-5.1642
X6.2376Y-4.4642
X6.2376Y-5.1642
X6.3376Y-4.4642
X6.3376Y-5.1642
X6.4376Y-4.4642
X6.4376Y-5.1642
X6.5376Y-4.4642
X6.5376Y-5.1642
T3
X6.0929Y-4.763
X6.0929Y-4.863
X6.1929Y-4.763
X6.1929Y-4.863
X6.2929Y-4.763
X6.2929Y-4.863
M30
