%TF.GenerationSoftware,KiCad,Pcbnew,8.0.4*%
%TF.CreationDate,2024-08-30T08:53:58-06:00*%
%TF.ProjectId,SAO_MB_adapter,53414f5f-4d42-45f6-9164-61707465722e,rev?*%
%TF.SameCoordinates,Original*%
%TF.FileFunction,Drillmap*%
%TF.FilePolarity,Positive*%
%FSLAX45Y45*%
G04 Gerber Fmt 4.5, Leading zero omitted, Abs format (unit mm)*
G04 Created by KiCad (PCBNEW 8.0.4) date 2024-08-30 08:53:58*
%MOMM*%
%LPD*%
G01*
G04 APERTURE LIST*
%ADD10C,0.120000*%
%ADD11C,0.200000*%
%ADD12C,0.100000*%
%ADD13C,0.101600*%
G04 APERTURE END LIST*
D10*
X14710660Y-13117000D02*
X14706142Y-11344998D01*
X14830040Y-13236380D02*
X16605203Y-13239893D01*
X16605797Y-11221187D02*
X14830634Y-11217674D01*
X16725177Y-11340567D02*
X16724583Y-13120513D01*
X14706142Y-11344998D02*
G75*
G02*
X14830634Y-11217674I127356J0D01*
G01*
X14830040Y-13236380D02*
G75*
G02*
X14710660Y-13117000I0J119380D01*
G01*
X16605797Y-11221187D02*
G75*
G02*
X16725183Y-11340567I3J-119383D01*
G01*
X16724583Y-13120513D02*
G75*
G02*
X16605203Y-13239893I-119380J0D01*
G01*
D11*
D12*
X14805000Y-11520000D02*
X14835000Y-11550000D01*
X14835000Y-11520000D02*
X14805000Y-11550000D01*
X14810000Y-12555000D02*
X14840000Y-12585000D01*
X14840000Y-12555000D02*
X14810000Y-12585000D01*
X14910000Y-11850000D02*
X14940000Y-11880000D01*
X14940000Y-11850000D02*
X14910000Y-11880000D01*
X14915000Y-12445000D02*
X14945000Y-12475000D01*
X14945000Y-12445000D02*
X14915000Y-12475000D01*
X15150000Y-11940000D02*
X15180000Y-11970000D01*
X15180000Y-11940000D02*
X15150000Y-11970000D01*
X15195000Y-11450000D02*
X15225000Y-11480000D01*
X15225000Y-11450000D02*
X15195000Y-11480000D01*
X15255000Y-12280000D02*
X15285000Y-12310000D01*
X15285000Y-12280000D02*
X15255000Y-12310000D01*
X15290000Y-12815000D02*
X15320000Y-12845000D01*
X15320000Y-12815000D02*
X15290000Y-12845000D01*
X15340000Y-12615000D02*
X15370000Y-12645000D01*
X15370000Y-12615000D02*
X15340000Y-12645000D01*
X15455000Y-12935000D02*
X15485000Y-12965000D01*
X15485000Y-12935000D02*
X15455000Y-12965000D01*
X15565000Y-12660000D02*
X15595000Y-12690000D01*
X15595000Y-12660000D02*
X15565000Y-12690000D01*
X15625000Y-12935000D02*
X15655000Y-12965000D01*
X15655000Y-12935000D02*
X15625000Y-12965000D01*
X15690000Y-11490000D02*
X15720000Y-11520000D01*
X15720000Y-11490000D02*
X15690000Y-11520000D01*
X15780000Y-12670000D02*
X15810000Y-12700000D01*
X15810000Y-12670000D02*
X15780000Y-12700000D01*
X15790000Y-12915000D02*
X15820000Y-12945000D01*
X15820000Y-12915000D02*
X15790000Y-12945000D01*
X15815000Y-11845000D02*
X15845000Y-11875000D01*
X15845000Y-11845000D02*
X15815000Y-11875000D01*
X16085000Y-12650000D02*
X16115000Y-12680000D01*
X16115000Y-12650000D02*
X16085000Y-12680000D01*
X16170000Y-12155000D02*
X16200000Y-12185000D01*
X16200000Y-12155000D02*
X16170000Y-12185000D01*
X16190000Y-12805000D02*
X16220000Y-12835000D01*
X16220000Y-12805000D02*
X16190000Y-12835000D01*
X16390000Y-11825000D02*
X16420000Y-11855000D01*
X16420000Y-11825000D02*
X16390000Y-11855000D01*
X16560000Y-11765000D02*
X16590000Y-11795000D01*
X16590000Y-11765000D02*
X16560000Y-11795000D01*
X16575000Y-12615000D02*
X16605000Y-12645000D01*
X16605000Y-12615000D02*
X16575000Y-12645000D01*
X14875000Y-11339000D02*
G75*
G02*
X14780000Y-11339000I-47500J0D01*
G01*
X14780000Y-11339000D02*
G75*
G02*
X14875000Y-11339000I47500J0D01*
G01*
X14875000Y-13117000D02*
G75*
G02*
X14780000Y-13117000I-47500J0D01*
G01*
X14780000Y-13117000D02*
G75*
G02*
X14875000Y-13117000I47500J0D01*
G01*
X15129000Y-11339000D02*
G75*
G02*
X15034000Y-11339000I-47500J0D01*
G01*
X15034000Y-11339000D02*
G75*
G02*
X15129000Y-11339000I47500J0D01*
G01*
X15129000Y-13117000D02*
G75*
G02*
X15034000Y-13117000I-47500J0D01*
G01*
X15034000Y-13117000D02*
G75*
G02*
X15129000Y-13117000I47500J0D01*
G01*
X15383000Y-11339000D02*
G75*
G02*
X15288000Y-11339000I-47500J0D01*
G01*
X15288000Y-11339000D02*
G75*
G02*
X15383000Y-11339000I47500J0D01*
G01*
X15383000Y-13117000D02*
G75*
G02*
X15288000Y-13117000I-47500J0D01*
G01*
X15288000Y-13117000D02*
G75*
G02*
X15383000Y-13117000I47500J0D01*
G01*
X15637000Y-11339000D02*
G75*
G02*
X15542000Y-11339000I-47500J0D01*
G01*
X15542000Y-11339000D02*
G75*
G02*
X15637000Y-11339000I47500J0D01*
G01*
X15637000Y-13117000D02*
G75*
G02*
X15542000Y-13117000I-47500J0D01*
G01*
X15542000Y-13117000D02*
G75*
G02*
X15637000Y-13117000I47500J0D01*
G01*
X15891000Y-11339000D02*
G75*
G02*
X15796000Y-11339000I-47500J0D01*
G01*
X15796000Y-11339000D02*
G75*
G02*
X15891000Y-11339000I47500J0D01*
G01*
X15891000Y-13117000D02*
G75*
G02*
X15796000Y-13117000I-47500J0D01*
G01*
X15796000Y-13117000D02*
G75*
G02*
X15891000Y-13117000I47500J0D01*
G01*
X16145000Y-11339000D02*
G75*
G02*
X16050000Y-11339000I-47500J0D01*
G01*
X16050000Y-11339000D02*
G75*
G02*
X16145000Y-11339000I47500J0D01*
G01*
X16145000Y-13117000D02*
G75*
G02*
X16050000Y-13117000I-47500J0D01*
G01*
X16050000Y-13117000D02*
G75*
G02*
X16145000Y-13117000I47500J0D01*
G01*
X16399000Y-11339000D02*
G75*
G02*
X16304000Y-11339000I-47500J0D01*
G01*
X16304000Y-11339000D02*
G75*
G02*
X16399000Y-11339000I47500J0D01*
G01*
X16399000Y-13117000D02*
G75*
G02*
X16304000Y-13117000I-47500J0D01*
G01*
X16304000Y-13117000D02*
G75*
G02*
X16399000Y-13117000I47500J0D01*
G01*
X16653000Y-11339000D02*
G75*
G02*
X16558000Y-11339000I-47500J0D01*
G01*
X16558000Y-11339000D02*
G75*
G02*
X16653000Y-11339000I47500J0D01*
G01*
X16653000Y-13117000D02*
G75*
G02*
X16558000Y-13117000I-47500J0D01*
G01*
X16558000Y-13117000D02*
G75*
G02*
X16653000Y-13117000I47500J0D01*
G01*
D13*
X15476000Y-12047200D02*
X15476000Y-12148800D01*
X15425200Y-12098000D02*
X15526800Y-12098000D01*
X15476000Y-12301200D02*
X15476000Y-12402800D01*
X15425200Y-12352000D02*
X15526800Y-12352000D01*
X15730000Y-12047200D02*
X15730000Y-12148800D01*
X15679200Y-12098000D02*
X15780800Y-12098000D01*
X15730000Y-12301200D02*
X15730000Y-12402800D01*
X15679200Y-12352000D02*
X15780800Y-12352000D01*
X15984000Y-12047200D02*
X15984000Y-12148800D01*
X15933200Y-12098000D02*
X16034800Y-12098000D01*
X15984000Y-12301200D02*
X15984000Y-12402800D01*
X15933200Y-12352000D02*
X16034800Y-12352000D01*
D11*
X14960919Y-13557377D02*
X14960919Y-13357377D01*
X14960919Y-13357377D02*
X15008538Y-13357377D01*
X15008538Y-13357377D02*
X15037109Y-13366901D01*
X15037109Y-13366901D02*
X15056157Y-13385948D01*
X15056157Y-13385948D02*
X15065681Y-13404996D01*
X15065681Y-13404996D02*
X15075205Y-13443091D01*
X15075205Y-13443091D02*
X15075205Y-13471662D01*
X15075205Y-13471662D02*
X15065681Y-13509758D01*
X15065681Y-13509758D02*
X15056157Y-13528805D01*
X15056157Y-13528805D02*
X15037109Y-13547853D01*
X15037109Y-13547853D02*
X15008538Y-13557377D01*
X15008538Y-13557377D02*
X14960919Y-13557377D01*
X15160919Y-13557377D02*
X15160919Y-13424043D01*
X15160919Y-13462139D02*
X15170443Y-13443091D01*
X15170443Y-13443091D02*
X15179967Y-13433567D01*
X15179967Y-13433567D02*
X15199014Y-13424043D01*
X15199014Y-13424043D02*
X15218062Y-13424043D01*
X15284728Y-13557377D02*
X15284728Y-13424043D01*
X15284728Y-13357377D02*
X15275205Y-13366901D01*
X15275205Y-13366901D02*
X15284728Y-13376424D01*
X15284728Y-13376424D02*
X15294252Y-13366901D01*
X15294252Y-13366901D02*
X15284728Y-13357377D01*
X15284728Y-13357377D02*
X15284728Y-13376424D01*
X15408538Y-13557377D02*
X15389490Y-13547853D01*
X15389490Y-13547853D02*
X15379967Y-13528805D01*
X15379967Y-13528805D02*
X15379967Y-13357377D01*
X15513300Y-13557377D02*
X15494252Y-13547853D01*
X15494252Y-13547853D02*
X15484728Y-13528805D01*
X15484728Y-13528805D02*
X15484728Y-13357377D01*
X15741871Y-13557377D02*
X15741871Y-13357377D01*
X15741871Y-13357377D02*
X15808538Y-13500234D01*
X15808538Y-13500234D02*
X15875205Y-13357377D01*
X15875205Y-13357377D02*
X15875205Y-13557377D01*
X16056157Y-13557377D02*
X16056157Y-13452615D01*
X16056157Y-13452615D02*
X16046633Y-13433567D01*
X16046633Y-13433567D02*
X16027586Y-13424043D01*
X16027586Y-13424043D02*
X15989490Y-13424043D01*
X15989490Y-13424043D02*
X15970443Y-13433567D01*
X16056157Y-13547853D02*
X16037109Y-13557377D01*
X16037109Y-13557377D02*
X15989490Y-13557377D01*
X15989490Y-13557377D02*
X15970443Y-13547853D01*
X15970443Y-13547853D02*
X15960919Y-13528805D01*
X15960919Y-13528805D02*
X15960919Y-13509758D01*
X15960919Y-13509758D02*
X15970443Y-13490710D01*
X15970443Y-13490710D02*
X15989490Y-13481186D01*
X15989490Y-13481186D02*
X16037109Y-13481186D01*
X16037109Y-13481186D02*
X16056157Y-13471662D01*
X16151395Y-13424043D02*
X16151395Y-13624043D01*
X16151395Y-13433567D02*
X16170443Y-13424043D01*
X16170443Y-13424043D02*
X16208538Y-13424043D01*
X16208538Y-13424043D02*
X16227586Y-13433567D01*
X16227586Y-13433567D02*
X16237109Y-13443091D01*
X16237109Y-13443091D02*
X16246633Y-13462139D01*
X16246633Y-13462139D02*
X16246633Y-13519281D01*
X16246633Y-13519281D02*
X16237109Y-13538329D01*
X16237109Y-13538329D02*
X16227586Y-13547853D01*
X16227586Y-13547853D02*
X16208538Y-13557377D01*
X16208538Y-13557377D02*
X16170443Y-13557377D01*
X16170443Y-13557377D02*
X16151395Y-13547853D01*
X16332348Y-13538329D02*
X16341871Y-13547853D01*
X16341871Y-13547853D02*
X16332348Y-13557377D01*
X16332348Y-13557377D02*
X16322824Y-13547853D01*
X16322824Y-13547853D02*
X16332348Y-13538329D01*
X16332348Y-13538329D02*
X16332348Y-13557377D01*
X16332348Y-13433567D02*
X16341871Y-13443091D01*
X16341871Y-13443091D02*
X16332348Y-13452615D01*
X16332348Y-13452615D02*
X16322824Y-13443091D01*
X16322824Y-13443091D02*
X16332348Y-13433567D01*
X16332348Y-13433567D02*
X16332348Y-13452615D01*
D12*
X14670142Y-13870893D02*
X14700142Y-13900893D01*
X14700142Y-13870893D02*
X14670142Y-13900893D01*
D11*
X14999014Y-13777377D02*
X15018062Y-13777377D01*
X15018062Y-13777377D02*
X15037109Y-13786901D01*
X15037109Y-13786901D02*
X15046633Y-13796424D01*
X15046633Y-13796424D02*
X15056157Y-13815472D01*
X15056157Y-13815472D02*
X15065681Y-13853567D01*
X15065681Y-13853567D02*
X15065681Y-13901186D01*
X15065681Y-13901186D02*
X15056157Y-13939281D01*
X15056157Y-13939281D02*
X15046633Y-13958329D01*
X15046633Y-13958329D02*
X15037109Y-13967853D01*
X15037109Y-13967853D02*
X15018062Y-13977377D01*
X15018062Y-13977377D02*
X14999014Y-13977377D01*
X14999014Y-13977377D02*
X14979967Y-13967853D01*
X14979967Y-13967853D02*
X14970443Y-13958329D01*
X14970443Y-13958329D02*
X14960919Y-13939281D01*
X14960919Y-13939281D02*
X14951395Y-13901186D01*
X14951395Y-13901186D02*
X14951395Y-13853567D01*
X14951395Y-13853567D02*
X14960919Y-13815472D01*
X14960919Y-13815472D02*
X14970443Y-13796424D01*
X14970443Y-13796424D02*
X14979967Y-13786901D01*
X14979967Y-13786901D02*
X14999014Y-13777377D01*
X15151395Y-13958329D02*
X15160919Y-13967853D01*
X15160919Y-13967853D02*
X15151395Y-13977377D01*
X15151395Y-13977377D02*
X15141871Y-13967853D01*
X15141871Y-13967853D02*
X15151395Y-13958329D01*
X15151395Y-13958329D02*
X15151395Y-13977377D01*
X15227586Y-13777377D02*
X15351395Y-13777377D01*
X15351395Y-13777377D02*
X15284728Y-13853567D01*
X15284728Y-13853567D02*
X15313300Y-13853567D01*
X15313300Y-13853567D02*
X15332348Y-13863091D01*
X15332348Y-13863091D02*
X15341871Y-13872615D01*
X15341871Y-13872615D02*
X15351395Y-13891662D01*
X15351395Y-13891662D02*
X15351395Y-13939281D01*
X15351395Y-13939281D02*
X15341871Y-13958329D01*
X15341871Y-13958329D02*
X15332348Y-13967853D01*
X15332348Y-13967853D02*
X15313300Y-13977377D01*
X15313300Y-13977377D02*
X15256157Y-13977377D01*
X15256157Y-13977377D02*
X15237109Y-13967853D01*
X15237109Y-13967853D02*
X15227586Y-13958329D01*
X15475205Y-13777377D02*
X15494252Y-13777377D01*
X15494252Y-13777377D02*
X15513300Y-13786901D01*
X15513300Y-13786901D02*
X15522824Y-13796424D01*
X15522824Y-13796424D02*
X15532348Y-13815472D01*
X15532348Y-13815472D02*
X15541871Y-13853567D01*
X15541871Y-13853567D02*
X15541871Y-13901186D01*
X15541871Y-13901186D02*
X15532348Y-13939281D01*
X15532348Y-13939281D02*
X15522824Y-13958329D01*
X15522824Y-13958329D02*
X15513300Y-13967853D01*
X15513300Y-13967853D02*
X15494252Y-13977377D01*
X15494252Y-13977377D02*
X15475205Y-13977377D01*
X15475205Y-13977377D02*
X15456157Y-13967853D01*
X15456157Y-13967853D02*
X15446633Y-13958329D01*
X15446633Y-13958329D02*
X15437109Y-13939281D01*
X15437109Y-13939281D02*
X15427586Y-13901186D01*
X15427586Y-13901186D02*
X15427586Y-13853567D01*
X15427586Y-13853567D02*
X15437109Y-13815472D01*
X15437109Y-13815472D02*
X15446633Y-13796424D01*
X15446633Y-13796424D02*
X15456157Y-13786901D01*
X15456157Y-13786901D02*
X15475205Y-13777377D01*
X15665681Y-13777377D02*
X15684729Y-13777377D01*
X15684729Y-13777377D02*
X15703776Y-13786901D01*
X15703776Y-13786901D02*
X15713300Y-13796424D01*
X15713300Y-13796424D02*
X15722824Y-13815472D01*
X15722824Y-13815472D02*
X15732348Y-13853567D01*
X15732348Y-13853567D02*
X15732348Y-13901186D01*
X15732348Y-13901186D02*
X15722824Y-13939281D01*
X15722824Y-13939281D02*
X15713300Y-13958329D01*
X15713300Y-13958329D02*
X15703776Y-13967853D01*
X15703776Y-13967853D02*
X15684729Y-13977377D01*
X15684729Y-13977377D02*
X15665681Y-13977377D01*
X15665681Y-13977377D02*
X15646633Y-13967853D01*
X15646633Y-13967853D02*
X15637109Y-13958329D01*
X15637109Y-13958329D02*
X15627586Y-13939281D01*
X15627586Y-13939281D02*
X15618062Y-13901186D01*
X15618062Y-13901186D02*
X15618062Y-13853567D01*
X15618062Y-13853567D02*
X15627586Y-13815472D01*
X15627586Y-13815472D02*
X15637109Y-13796424D01*
X15637109Y-13796424D02*
X15646633Y-13786901D01*
X15646633Y-13786901D02*
X15665681Y-13777377D01*
X15818062Y-13977377D02*
X15818062Y-13844043D01*
X15818062Y-13863091D02*
X15827586Y-13853567D01*
X15827586Y-13853567D02*
X15846633Y-13844043D01*
X15846633Y-13844043D02*
X15875205Y-13844043D01*
X15875205Y-13844043D02*
X15894252Y-13853567D01*
X15894252Y-13853567D02*
X15903776Y-13872615D01*
X15903776Y-13872615D02*
X15903776Y-13977377D01*
X15903776Y-13872615D02*
X15913300Y-13853567D01*
X15913300Y-13853567D02*
X15932348Y-13844043D01*
X15932348Y-13844043D02*
X15960919Y-13844043D01*
X15960919Y-13844043D02*
X15979967Y-13853567D01*
X15979967Y-13853567D02*
X15989490Y-13872615D01*
X15989490Y-13872615D02*
X15989490Y-13977377D01*
X16084729Y-13977377D02*
X16084729Y-13844043D01*
X16084729Y-13863091D02*
X16094252Y-13853567D01*
X16094252Y-13853567D02*
X16113300Y-13844043D01*
X16113300Y-13844043D02*
X16141871Y-13844043D01*
X16141871Y-13844043D02*
X16160919Y-13853567D01*
X16160919Y-13853567D02*
X16170443Y-13872615D01*
X16170443Y-13872615D02*
X16170443Y-13977377D01*
X16170443Y-13872615D02*
X16179967Y-13853567D01*
X16179967Y-13853567D02*
X16199014Y-13844043D01*
X16199014Y-13844043D02*
X16227586Y-13844043D01*
X16227586Y-13844043D02*
X16246633Y-13853567D01*
X16246633Y-13853567D02*
X16256157Y-13872615D01*
X16256157Y-13872615D02*
X16256157Y-13977377D01*
X16646633Y-13767853D02*
X16475205Y-14024996D01*
X16903776Y-13777377D02*
X16922824Y-13777377D01*
X16922824Y-13777377D02*
X16941872Y-13786901D01*
X16941872Y-13786901D02*
X16951395Y-13796424D01*
X16951395Y-13796424D02*
X16960919Y-13815472D01*
X16960919Y-13815472D02*
X16970443Y-13853567D01*
X16970443Y-13853567D02*
X16970443Y-13901186D01*
X16970443Y-13901186D02*
X16960919Y-13939281D01*
X16960919Y-13939281D02*
X16951395Y-13958329D01*
X16951395Y-13958329D02*
X16941872Y-13967853D01*
X16941872Y-13967853D02*
X16922824Y-13977377D01*
X16922824Y-13977377D02*
X16903776Y-13977377D01*
X16903776Y-13977377D02*
X16884729Y-13967853D01*
X16884729Y-13967853D02*
X16875205Y-13958329D01*
X16875205Y-13958329D02*
X16865681Y-13939281D01*
X16865681Y-13939281D02*
X16856157Y-13901186D01*
X16856157Y-13901186D02*
X16856157Y-13853567D01*
X16856157Y-13853567D02*
X16865681Y-13815472D01*
X16865681Y-13815472D02*
X16875205Y-13796424D01*
X16875205Y-13796424D02*
X16884729Y-13786901D01*
X16884729Y-13786901D02*
X16903776Y-13777377D01*
X17056157Y-13958329D02*
X17065681Y-13967853D01*
X17065681Y-13967853D02*
X17056157Y-13977377D01*
X17056157Y-13977377D02*
X17046634Y-13967853D01*
X17046634Y-13967853D02*
X17056157Y-13958329D01*
X17056157Y-13958329D02*
X17056157Y-13977377D01*
X17189491Y-13777377D02*
X17208538Y-13777377D01*
X17208538Y-13777377D02*
X17227586Y-13786901D01*
X17227586Y-13786901D02*
X17237110Y-13796424D01*
X17237110Y-13796424D02*
X17246634Y-13815472D01*
X17246634Y-13815472D02*
X17256157Y-13853567D01*
X17256157Y-13853567D02*
X17256157Y-13901186D01*
X17256157Y-13901186D02*
X17246634Y-13939281D01*
X17246634Y-13939281D02*
X17237110Y-13958329D01*
X17237110Y-13958329D02*
X17227586Y-13967853D01*
X17227586Y-13967853D02*
X17208538Y-13977377D01*
X17208538Y-13977377D02*
X17189491Y-13977377D01*
X17189491Y-13977377D02*
X17170443Y-13967853D01*
X17170443Y-13967853D02*
X17160919Y-13958329D01*
X17160919Y-13958329D02*
X17151395Y-13939281D01*
X17151395Y-13939281D02*
X17141872Y-13901186D01*
X17141872Y-13901186D02*
X17141872Y-13853567D01*
X17141872Y-13853567D02*
X17151395Y-13815472D01*
X17151395Y-13815472D02*
X17160919Y-13796424D01*
X17160919Y-13796424D02*
X17170443Y-13786901D01*
X17170443Y-13786901D02*
X17189491Y-13777377D01*
X17446634Y-13977377D02*
X17332348Y-13977377D01*
X17389491Y-13977377D02*
X17389491Y-13777377D01*
X17389491Y-13777377D02*
X17370443Y-13805948D01*
X17370443Y-13805948D02*
X17351395Y-13824996D01*
X17351395Y-13824996D02*
X17332348Y-13834520D01*
X17637110Y-13977377D02*
X17522824Y-13977377D01*
X17579967Y-13977377D02*
X17579967Y-13777377D01*
X17579967Y-13777377D02*
X17560919Y-13805948D01*
X17560919Y-13805948D02*
X17541872Y-13824996D01*
X17541872Y-13824996D02*
X17522824Y-13834520D01*
X17751395Y-13863091D02*
X17732348Y-13853567D01*
X17732348Y-13853567D02*
X17722824Y-13844043D01*
X17722824Y-13844043D02*
X17713300Y-13824996D01*
X17713300Y-13824996D02*
X17713300Y-13815472D01*
X17713300Y-13815472D02*
X17722824Y-13796424D01*
X17722824Y-13796424D02*
X17732348Y-13786901D01*
X17732348Y-13786901D02*
X17751395Y-13777377D01*
X17751395Y-13777377D02*
X17789491Y-13777377D01*
X17789491Y-13777377D02*
X17808538Y-13786901D01*
X17808538Y-13786901D02*
X17818062Y-13796424D01*
X17818062Y-13796424D02*
X17827586Y-13815472D01*
X17827586Y-13815472D02*
X17827586Y-13824996D01*
X17827586Y-13824996D02*
X17818062Y-13844043D01*
X17818062Y-13844043D02*
X17808538Y-13853567D01*
X17808538Y-13853567D02*
X17789491Y-13863091D01*
X17789491Y-13863091D02*
X17751395Y-13863091D01*
X17751395Y-13863091D02*
X17732348Y-13872615D01*
X17732348Y-13872615D02*
X17722824Y-13882139D01*
X17722824Y-13882139D02*
X17713300Y-13901186D01*
X17713300Y-13901186D02*
X17713300Y-13939281D01*
X17713300Y-13939281D02*
X17722824Y-13958329D01*
X17722824Y-13958329D02*
X17732348Y-13967853D01*
X17732348Y-13967853D02*
X17751395Y-13977377D01*
X17751395Y-13977377D02*
X17789491Y-13977377D01*
X17789491Y-13977377D02*
X17808538Y-13967853D01*
X17808538Y-13967853D02*
X17818062Y-13958329D01*
X17818062Y-13958329D02*
X17827586Y-13939281D01*
X17827586Y-13939281D02*
X17827586Y-13901186D01*
X17827586Y-13901186D02*
X17818062Y-13882139D01*
X17818062Y-13882139D02*
X17808538Y-13872615D01*
X17808538Y-13872615D02*
X17789491Y-13863091D01*
X17903776Y-13777377D02*
X17903776Y-13815472D01*
X17979967Y-13777377D02*
X17979967Y-13815472D01*
X18275205Y-14053567D02*
X18265681Y-14044043D01*
X18265681Y-14044043D02*
X18246634Y-14015472D01*
X18246634Y-14015472D02*
X18237110Y-13996424D01*
X18237110Y-13996424D02*
X18227586Y-13967853D01*
X18227586Y-13967853D02*
X18218062Y-13920234D01*
X18218062Y-13920234D02*
X18218062Y-13882139D01*
X18218062Y-13882139D02*
X18227586Y-13834520D01*
X18227586Y-13834520D02*
X18237110Y-13805948D01*
X18237110Y-13805948D02*
X18246634Y-13786901D01*
X18246634Y-13786901D02*
X18265681Y-13758329D01*
X18265681Y-13758329D02*
X18275205Y-13748805D01*
X18341872Y-13796424D02*
X18351396Y-13786901D01*
X18351396Y-13786901D02*
X18370443Y-13777377D01*
X18370443Y-13777377D02*
X18418062Y-13777377D01*
X18418062Y-13777377D02*
X18437110Y-13786901D01*
X18437110Y-13786901D02*
X18446634Y-13796424D01*
X18446634Y-13796424D02*
X18456157Y-13815472D01*
X18456157Y-13815472D02*
X18456157Y-13834520D01*
X18456157Y-13834520D02*
X18446634Y-13863091D01*
X18446634Y-13863091D02*
X18332348Y-13977377D01*
X18332348Y-13977377D02*
X18456157Y-13977377D01*
X18532348Y-13796424D02*
X18541872Y-13786901D01*
X18541872Y-13786901D02*
X18560919Y-13777377D01*
X18560919Y-13777377D02*
X18608538Y-13777377D01*
X18608538Y-13777377D02*
X18627586Y-13786901D01*
X18627586Y-13786901D02*
X18637110Y-13796424D01*
X18637110Y-13796424D02*
X18646634Y-13815472D01*
X18646634Y-13815472D02*
X18646634Y-13834520D01*
X18646634Y-13834520D02*
X18637110Y-13863091D01*
X18637110Y-13863091D02*
X18522824Y-13977377D01*
X18522824Y-13977377D02*
X18646634Y-13977377D01*
X18884729Y-13977377D02*
X18884729Y-13777377D01*
X18970443Y-13977377D02*
X18970443Y-13872615D01*
X18970443Y-13872615D02*
X18960919Y-13853567D01*
X18960919Y-13853567D02*
X18941872Y-13844043D01*
X18941872Y-13844043D02*
X18913300Y-13844043D01*
X18913300Y-13844043D02*
X18894253Y-13853567D01*
X18894253Y-13853567D02*
X18884729Y-13863091D01*
X19094253Y-13977377D02*
X19075205Y-13967853D01*
X19075205Y-13967853D02*
X19065681Y-13958329D01*
X19065681Y-13958329D02*
X19056158Y-13939281D01*
X19056158Y-13939281D02*
X19056158Y-13882139D01*
X19056158Y-13882139D02*
X19065681Y-13863091D01*
X19065681Y-13863091D02*
X19075205Y-13853567D01*
X19075205Y-13853567D02*
X19094253Y-13844043D01*
X19094253Y-13844043D02*
X19122824Y-13844043D01*
X19122824Y-13844043D02*
X19141872Y-13853567D01*
X19141872Y-13853567D02*
X19151396Y-13863091D01*
X19151396Y-13863091D02*
X19160919Y-13882139D01*
X19160919Y-13882139D02*
X19160919Y-13939281D01*
X19160919Y-13939281D02*
X19151396Y-13958329D01*
X19151396Y-13958329D02*
X19141872Y-13967853D01*
X19141872Y-13967853D02*
X19122824Y-13977377D01*
X19122824Y-13977377D02*
X19094253Y-13977377D01*
X19275205Y-13977377D02*
X19256158Y-13967853D01*
X19256158Y-13967853D02*
X19246634Y-13948805D01*
X19246634Y-13948805D02*
X19246634Y-13777377D01*
X19427586Y-13967853D02*
X19408539Y-13977377D01*
X19408539Y-13977377D02*
X19370443Y-13977377D01*
X19370443Y-13977377D02*
X19351396Y-13967853D01*
X19351396Y-13967853D02*
X19341872Y-13948805D01*
X19341872Y-13948805D02*
X19341872Y-13872615D01*
X19341872Y-13872615D02*
X19351396Y-13853567D01*
X19351396Y-13853567D02*
X19370443Y-13844043D01*
X19370443Y-13844043D02*
X19408539Y-13844043D01*
X19408539Y-13844043D02*
X19427586Y-13853567D01*
X19427586Y-13853567D02*
X19437110Y-13872615D01*
X19437110Y-13872615D02*
X19437110Y-13891662D01*
X19437110Y-13891662D02*
X19341872Y-13910710D01*
X19513300Y-13967853D02*
X19532348Y-13977377D01*
X19532348Y-13977377D02*
X19570443Y-13977377D01*
X19570443Y-13977377D02*
X19589491Y-13967853D01*
X19589491Y-13967853D02*
X19599015Y-13948805D01*
X19599015Y-13948805D02*
X19599015Y-13939281D01*
X19599015Y-13939281D02*
X19589491Y-13920234D01*
X19589491Y-13920234D02*
X19570443Y-13910710D01*
X19570443Y-13910710D02*
X19541872Y-13910710D01*
X19541872Y-13910710D02*
X19522824Y-13901186D01*
X19522824Y-13901186D02*
X19513300Y-13882139D01*
X19513300Y-13882139D02*
X19513300Y-13872615D01*
X19513300Y-13872615D02*
X19522824Y-13853567D01*
X19522824Y-13853567D02*
X19541872Y-13844043D01*
X19541872Y-13844043D02*
X19570443Y-13844043D01*
X19570443Y-13844043D02*
X19589491Y-13853567D01*
X19665681Y-14053567D02*
X19675205Y-14044043D01*
X19675205Y-14044043D02*
X19694253Y-14015472D01*
X19694253Y-14015472D02*
X19703777Y-13996424D01*
X19703777Y-13996424D02*
X19713300Y-13967853D01*
X19713300Y-13967853D02*
X19722824Y-13920234D01*
X19722824Y-13920234D02*
X19722824Y-13882139D01*
X19722824Y-13882139D02*
X19713300Y-13834520D01*
X19713300Y-13834520D02*
X19703777Y-13805948D01*
X19703777Y-13805948D02*
X19694253Y-13786901D01*
X19694253Y-13786901D02*
X19675205Y-13758329D01*
X19675205Y-13758329D02*
X19665681Y-13748805D01*
D12*
X14700142Y-14149893D02*
G75*
G02*
X14605142Y-14149893I-47500J0D01*
G01*
X14605142Y-14149893D02*
G75*
G02*
X14700142Y-14149893I47500J0D01*
G01*
D11*
X14999014Y-14041377D02*
X15018062Y-14041377D01*
X15018062Y-14041377D02*
X15037109Y-14050901D01*
X15037109Y-14050901D02*
X15046633Y-14060424D01*
X15046633Y-14060424D02*
X15056157Y-14079472D01*
X15056157Y-14079472D02*
X15065681Y-14117567D01*
X15065681Y-14117567D02*
X15065681Y-14165186D01*
X15065681Y-14165186D02*
X15056157Y-14203281D01*
X15056157Y-14203281D02*
X15046633Y-14222329D01*
X15046633Y-14222329D02*
X15037109Y-14231853D01*
X15037109Y-14231853D02*
X15018062Y-14241377D01*
X15018062Y-14241377D02*
X14999014Y-14241377D01*
X14999014Y-14241377D02*
X14979967Y-14231853D01*
X14979967Y-14231853D02*
X14970443Y-14222329D01*
X14970443Y-14222329D02*
X14960919Y-14203281D01*
X14960919Y-14203281D02*
X14951395Y-14165186D01*
X14951395Y-14165186D02*
X14951395Y-14117567D01*
X14951395Y-14117567D02*
X14960919Y-14079472D01*
X14960919Y-14079472D02*
X14970443Y-14060424D01*
X14970443Y-14060424D02*
X14979967Y-14050901D01*
X14979967Y-14050901D02*
X14999014Y-14041377D01*
X15151395Y-14222329D02*
X15160919Y-14231853D01*
X15160919Y-14231853D02*
X15151395Y-14241377D01*
X15151395Y-14241377D02*
X15141871Y-14231853D01*
X15141871Y-14231853D02*
X15151395Y-14222329D01*
X15151395Y-14222329D02*
X15151395Y-14241377D01*
X15256157Y-14241377D02*
X15294252Y-14241377D01*
X15294252Y-14241377D02*
X15313300Y-14231853D01*
X15313300Y-14231853D02*
X15322824Y-14222329D01*
X15322824Y-14222329D02*
X15341871Y-14193758D01*
X15341871Y-14193758D02*
X15351395Y-14155662D01*
X15351395Y-14155662D02*
X15351395Y-14079472D01*
X15351395Y-14079472D02*
X15341871Y-14060424D01*
X15341871Y-14060424D02*
X15332348Y-14050901D01*
X15332348Y-14050901D02*
X15313300Y-14041377D01*
X15313300Y-14041377D02*
X15275205Y-14041377D01*
X15275205Y-14041377D02*
X15256157Y-14050901D01*
X15256157Y-14050901D02*
X15246633Y-14060424D01*
X15246633Y-14060424D02*
X15237109Y-14079472D01*
X15237109Y-14079472D02*
X15237109Y-14127091D01*
X15237109Y-14127091D02*
X15246633Y-14146139D01*
X15246633Y-14146139D02*
X15256157Y-14155662D01*
X15256157Y-14155662D02*
X15275205Y-14165186D01*
X15275205Y-14165186D02*
X15313300Y-14165186D01*
X15313300Y-14165186D02*
X15332348Y-14155662D01*
X15332348Y-14155662D02*
X15341871Y-14146139D01*
X15341871Y-14146139D02*
X15351395Y-14127091D01*
X15532348Y-14041377D02*
X15437109Y-14041377D01*
X15437109Y-14041377D02*
X15427586Y-14136615D01*
X15427586Y-14136615D02*
X15437109Y-14127091D01*
X15437109Y-14127091D02*
X15456157Y-14117567D01*
X15456157Y-14117567D02*
X15503776Y-14117567D01*
X15503776Y-14117567D02*
X15522824Y-14127091D01*
X15522824Y-14127091D02*
X15532348Y-14136615D01*
X15532348Y-14136615D02*
X15541871Y-14155662D01*
X15541871Y-14155662D02*
X15541871Y-14203281D01*
X15541871Y-14203281D02*
X15532348Y-14222329D01*
X15532348Y-14222329D02*
X15522824Y-14231853D01*
X15522824Y-14231853D02*
X15503776Y-14241377D01*
X15503776Y-14241377D02*
X15456157Y-14241377D01*
X15456157Y-14241377D02*
X15437109Y-14231853D01*
X15437109Y-14231853D02*
X15427586Y-14222329D01*
X15665681Y-14041377D02*
X15684729Y-14041377D01*
X15684729Y-14041377D02*
X15703776Y-14050901D01*
X15703776Y-14050901D02*
X15713300Y-14060424D01*
X15713300Y-14060424D02*
X15722824Y-14079472D01*
X15722824Y-14079472D02*
X15732348Y-14117567D01*
X15732348Y-14117567D02*
X15732348Y-14165186D01*
X15732348Y-14165186D02*
X15722824Y-14203281D01*
X15722824Y-14203281D02*
X15713300Y-14222329D01*
X15713300Y-14222329D02*
X15703776Y-14231853D01*
X15703776Y-14231853D02*
X15684729Y-14241377D01*
X15684729Y-14241377D02*
X15665681Y-14241377D01*
X15665681Y-14241377D02*
X15646633Y-14231853D01*
X15646633Y-14231853D02*
X15637109Y-14222329D01*
X15637109Y-14222329D02*
X15627586Y-14203281D01*
X15627586Y-14203281D02*
X15618062Y-14165186D01*
X15618062Y-14165186D02*
X15618062Y-14117567D01*
X15618062Y-14117567D02*
X15627586Y-14079472D01*
X15627586Y-14079472D02*
X15637109Y-14060424D01*
X15637109Y-14060424D02*
X15646633Y-14050901D01*
X15646633Y-14050901D02*
X15665681Y-14041377D01*
X15818062Y-14241377D02*
X15818062Y-14108043D01*
X15818062Y-14127091D02*
X15827586Y-14117567D01*
X15827586Y-14117567D02*
X15846633Y-14108043D01*
X15846633Y-14108043D02*
X15875205Y-14108043D01*
X15875205Y-14108043D02*
X15894252Y-14117567D01*
X15894252Y-14117567D02*
X15903776Y-14136615D01*
X15903776Y-14136615D02*
X15903776Y-14241377D01*
X15903776Y-14136615D02*
X15913300Y-14117567D01*
X15913300Y-14117567D02*
X15932348Y-14108043D01*
X15932348Y-14108043D02*
X15960919Y-14108043D01*
X15960919Y-14108043D02*
X15979967Y-14117567D01*
X15979967Y-14117567D02*
X15989490Y-14136615D01*
X15989490Y-14136615D02*
X15989490Y-14241377D01*
X16084729Y-14241377D02*
X16084729Y-14108043D01*
X16084729Y-14127091D02*
X16094252Y-14117567D01*
X16094252Y-14117567D02*
X16113300Y-14108043D01*
X16113300Y-14108043D02*
X16141871Y-14108043D01*
X16141871Y-14108043D02*
X16160919Y-14117567D01*
X16160919Y-14117567D02*
X16170443Y-14136615D01*
X16170443Y-14136615D02*
X16170443Y-14241377D01*
X16170443Y-14136615D02*
X16179967Y-14117567D01*
X16179967Y-14117567D02*
X16199014Y-14108043D01*
X16199014Y-14108043D02*
X16227586Y-14108043D01*
X16227586Y-14108043D02*
X16246633Y-14117567D01*
X16246633Y-14117567D02*
X16256157Y-14136615D01*
X16256157Y-14136615D02*
X16256157Y-14241377D01*
X16646633Y-14031853D02*
X16475205Y-14288996D01*
X16903776Y-14041377D02*
X16922824Y-14041377D01*
X16922824Y-14041377D02*
X16941872Y-14050901D01*
X16941872Y-14050901D02*
X16951395Y-14060424D01*
X16951395Y-14060424D02*
X16960919Y-14079472D01*
X16960919Y-14079472D02*
X16970443Y-14117567D01*
X16970443Y-14117567D02*
X16970443Y-14165186D01*
X16970443Y-14165186D02*
X16960919Y-14203281D01*
X16960919Y-14203281D02*
X16951395Y-14222329D01*
X16951395Y-14222329D02*
X16941872Y-14231853D01*
X16941872Y-14231853D02*
X16922824Y-14241377D01*
X16922824Y-14241377D02*
X16903776Y-14241377D01*
X16903776Y-14241377D02*
X16884729Y-14231853D01*
X16884729Y-14231853D02*
X16875205Y-14222329D01*
X16875205Y-14222329D02*
X16865681Y-14203281D01*
X16865681Y-14203281D02*
X16856157Y-14165186D01*
X16856157Y-14165186D02*
X16856157Y-14117567D01*
X16856157Y-14117567D02*
X16865681Y-14079472D01*
X16865681Y-14079472D02*
X16875205Y-14060424D01*
X16875205Y-14060424D02*
X16884729Y-14050901D01*
X16884729Y-14050901D02*
X16903776Y-14041377D01*
X17056157Y-14222329D02*
X17065681Y-14231853D01*
X17065681Y-14231853D02*
X17056157Y-14241377D01*
X17056157Y-14241377D02*
X17046634Y-14231853D01*
X17046634Y-14231853D02*
X17056157Y-14222329D01*
X17056157Y-14222329D02*
X17056157Y-14241377D01*
X17189491Y-14041377D02*
X17208538Y-14041377D01*
X17208538Y-14041377D02*
X17227586Y-14050901D01*
X17227586Y-14050901D02*
X17237110Y-14060424D01*
X17237110Y-14060424D02*
X17246634Y-14079472D01*
X17246634Y-14079472D02*
X17256157Y-14117567D01*
X17256157Y-14117567D02*
X17256157Y-14165186D01*
X17256157Y-14165186D02*
X17246634Y-14203281D01*
X17246634Y-14203281D02*
X17237110Y-14222329D01*
X17237110Y-14222329D02*
X17227586Y-14231853D01*
X17227586Y-14231853D02*
X17208538Y-14241377D01*
X17208538Y-14241377D02*
X17189491Y-14241377D01*
X17189491Y-14241377D02*
X17170443Y-14231853D01*
X17170443Y-14231853D02*
X17160919Y-14222329D01*
X17160919Y-14222329D02*
X17151395Y-14203281D01*
X17151395Y-14203281D02*
X17141872Y-14165186D01*
X17141872Y-14165186D02*
X17141872Y-14117567D01*
X17141872Y-14117567D02*
X17151395Y-14079472D01*
X17151395Y-14079472D02*
X17160919Y-14060424D01*
X17160919Y-14060424D02*
X17170443Y-14050901D01*
X17170443Y-14050901D02*
X17189491Y-14041377D01*
X17322824Y-14041377D02*
X17446634Y-14041377D01*
X17446634Y-14041377D02*
X17379967Y-14117567D01*
X17379967Y-14117567D02*
X17408538Y-14117567D01*
X17408538Y-14117567D02*
X17427586Y-14127091D01*
X17427586Y-14127091D02*
X17437110Y-14136615D01*
X17437110Y-14136615D02*
X17446634Y-14155662D01*
X17446634Y-14155662D02*
X17446634Y-14203281D01*
X17446634Y-14203281D02*
X17437110Y-14222329D01*
X17437110Y-14222329D02*
X17427586Y-14231853D01*
X17427586Y-14231853D02*
X17408538Y-14241377D01*
X17408538Y-14241377D02*
X17351395Y-14241377D01*
X17351395Y-14241377D02*
X17332348Y-14231853D01*
X17332348Y-14231853D02*
X17322824Y-14222329D01*
X17513300Y-14041377D02*
X17646634Y-14041377D01*
X17646634Y-14041377D02*
X17560919Y-14241377D01*
X17808538Y-14108043D02*
X17808538Y-14241377D01*
X17760919Y-14031853D02*
X17713300Y-14174710D01*
X17713300Y-14174710D02*
X17837110Y-14174710D01*
X17903776Y-14041377D02*
X17903776Y-14079472D01*
X17979967Y-14041377D02*
X17979967Y-14079472D01*
X18275205Y-14317567D02*
X18265681Y-14308043D01*
X18265681Y-14308043D02*
X18246634Y-14279472D01*
X18246634Y-14279472D02*
X18237110Y-14260424D01*
X18237110Y-14260424D02*
X18227586Y-14231853D01*
X18227586Y-14231853D02*
X18218062Y-14184234D01*
X18218062Y-14184234D02*
X18218062Y-14146139D01*
X18218062Y-14146139D02*
X18227586Y-14098520D01*
X18227586Y-14098520D02*
X18237110Y-14069948D01*
X18237110Y-14069948D02*
X18246634Y-14050901D01*
X18246634Y-14050901D02*
X18265681Y-14022329D01*
X18265681Y-14022329D02*
X18275205Y-14012805D01*
X18456157Y-14241377D02*
X18341872Y-14241377D01*
X18399015Y-14241377D02*
X18399015Y-14041377D01*
X18399015Y-14041377D02*
X18379967Y-14069948D01*
X18379967Y-14069948D02*
X18360919Y-14088996D01*
X18360919Y-14088996D02*
X18341872Y-14098520D01*
X18627586Y-14041377D02*
X18589491Y-14041377D01*
X18589491Y-14041377D02*
X18570443Y-14050901D01*
X18570443Y-14050901D02*
X18560919Y-14060424D01*
X18560919Y-14060424D02*
X18541872Y-14088996D01*
X18541872Y-14088996D02*
X18532348Y-14127091D01*
X18532348Y-14127091D02*
X18532348Y-14203281D01*
X18532348Y-14203281D02*
X18541872Y-14222329D01*
X18541872Y-14222329D02*
X18551396Y-14231853D01*
X18551396Y-14231853D02*
X18570443Y-14241377D01*
X18570443Y-14241377D02*
X18608538Y-14241377D01*
X18608538Y-14241377D02*
X18627586Y-14231853D01*
X18627586Y-14231853D02*
X18637110Y-14222329D01*
X18637110Y-14222329D02*
X18646634Y-14203281D01*
X18646634Y-14203281D02*
X18646634Y-14155662D01*
X18646634Y-14155662D02*
X18637110Y-14136615D01*
X18637110Y-14136615D02*
X18627586Y-14127091D01*
X18627586Y-14127091D02*
X18608538Y-14117567D01*
X18608538Y-14117567D02*
X18570443Y-14117567D01*
X18570443Y-14117567D02*
X18551396Y-14127091D01*
X18551396Y-14127091D02*
X18541872Y-14136615D01*
X18541872Y-14136615D02*
X18532348Y-14155662D01*
X18884729Y-14241377D02*
X18884729Y-14041377D01*
X18970443Y-14241377D02*
X18970443Y-14136615D01*
X18970443Y-14136615D02*
X18960919Y-14117567D01*
X18960919Y-14117567D02*
X18941872Y-14108043D01*
X18941872Y-14108043D02*
X18913300Y-14108043D01*
X18913300Y-14108043D02*
X18894253Y-14117567D01*
X18894253Y-14117567D02*
X18884729Y-14127091D01*
X19094253Y-14241377D02*
X19075205Y-14231853D01*
X19075205Y-14231853D02*
X19065681Y-14222329D01*
X19065681Y-14222329D02*
X19056158Y-14203281D01*
X19056158Y-14203281D02*
X19056158Y-14146139D01*
X19056158Y-14146139D02*
X19065681Y-14127091D01*
X19065681Y-14127091D02*
X19075205Y-14117567D01*
X19075205Y-14117567D02*
X19094253Y-14108043D01*
X19094253Y-14108043D02*
X19122824Y-14108043D01*
X19122824Y-14108043D02*
X19141872Y-14117567D01*
X19141872Y-14117567D02*
X19151396Y-14127091D01*
X19151396Y-14127091D02*
X19160919Y-14146139D01*
X19160919Y-14146139D02*
X19160919Y-14203281D01*
X19160919Y-14203281D02*
X19151396Y-14222329D01*
X19151396Y-14222329D02*
X19141872Y-14231853D01*
X19141872Y-14231853D02*
X19122824Y-14241377D01*
X19122824Y-14241377D02*
X19094253Y-14241377D01*
X19275205Y-14241377D02*
X19256158Y-14231853D01*
X19256158Y-14231853D02*
X19246634Y-14212805D01*
X19246634Y-14212805D02*
X19246634Y-14041377D01*
X19427586Y-14231853D02*
X19408539Y-14241377D01*
X19408539Y-14241377D02*
X19370443Y-14241377D01*
X19370443Y-14241377D02*
X19351396Y-14231853D01*
X19351396Y-14231853D02*
X19341872Y-14212805D01*
X19341872Y-14212805D02*
X19341872Y-14136615D01*
X19341872Y-14136615D02*
X19351396Y-14117567D01*
X19351396Y-14117567D02*
X19370443Y-14108043D01*
X19370443Y-14108043D02*
X19408539Y-14108043D01*
X19408539Y-14108043D02*
X19427586Y-14117567D01*
X19427586Y-14117567D02*
X19437110Y-14136615D01*
X19437110Y-14136615D02*
X19437110Y-14155662D01*
X19437110Y-14155662D02*
X19341872Y-14174710D01*
X19513300Y-14231853D02*
X19532348Y-14241377D01*
X19532348Y-14241377D02*
X19570443Y-14241377D01*
X19570443Y-14241377D02*
X19589491Y-14231853D01*
X19589491Y-14231853D02*
X19599015Y-14212805D01*
X19599015Y-14212805D02*
X19599015Y-14203281D01*
X19599015Y-14203281D02*
X19589491Y-14184234D01*
X19589491Y-14184234D02*
X19570443Y-14174710D01*
X19570443Y-14174710D02*
X19541872Y-14174710D01*
X19541872Y-14174710D02*
X19522824Y-14165186D01*
X19522824Y-14165186D02*
X19513300Y-14146139D01*
X19513300Y-14146139D02*
X19513300Y-14136615D01*
X19513300Y-14136615D02*
X19522824Y-14117567D01*
X19522824Y-14117567D02*
X19541872Y-14108043D01*
X19541872Y-14108043D02*
X19570443Y-14108043D01*
X19570443Y-14108043D02*
X19589491Y-14117567D01*
X19665681Y-14317567D02*
X19675205Y-14308043D01*
X19675205Y-14308043D02*
X19694253Y-14279472D01*
X19694253Y-14279472D02*
X19703777Y-14260424D01*
X19703777Y-14260424D02*
X19713300Y-14231853D01*
X19713300Y-14231853D02*
X19722824Y-14184234D01*
X19722824Y-14184234D02*
X19722824Y-14146139D01*
X19722824Y-14146139D02*
X19713300Y-14098520D01*
X19713300Y-14098520D02*
X19703777Y-14069948D01*
X19703777Y-14069948D02*
X19694253Y-14050901D01*
X19694253Y-14050901D02*
X19675205Y-14022329D01*
X19675205Y-14022329D02*
X19665681Y-14012805D01*
D13*
X14649342Y-14363093D02*
X14649342Y-14464693D01*
X14598542Y-14413893D02*
X14700142Y-14413893D01*
D11*
X15065681Y-14505377D02*
X14951395Y-14505377D01*
X15008538Y-14505377D02*
X15008538Y-14305377D01*
X15008538Y-14305377D02*
X14989490Y-14333948D01*
X14989490Y-14333948D02*
X14970443Y-14352996D01*
X14970443Y-14352996D02*
X14951395Y-14362520D01*
X15151395Y-14486329D02*
X15160919Y-14495853D01*
X15160919Y-14495853D02*
X15151395Y-14505377D01*
X15151395Y-14505377D02*
X15141871Y-14495853D01*
X15141871Y-14495853D02*
X15151395Y-14486329D01*
X15151395Y-14486329D02*
X15151395Y-14505377D01*
X15284728Y-14305377D02*
X15303776Y-14305377D01*
X15303776Y-14305377D02*
X15322824Y-14314901D01*
X15322824Y-14314901D02*
X15332348Y-14324424D01*
X15332348Y-14324424D02*
X15341871Y-14343472D01*
X15341871Y-14343472D02*
X15351395Y-14381567D01*
X15351395Y-14381567D02*
X15351395Y-14429186D01*
X15351395Y-14429186D02*
X15341871Y-14467281D01*
X15341871Y-14467281D02*
X15332348Y-14486329D01*
X15332348Y-14486329D02*
X15322824Y-14495853D01*
X15322824Y-14495853D02*
X15303776Y-14505377D01*
X15303776Y-14505377D02*
X15284728Y-14505377D01*
X15284728Y-14505377D02*
X15265681Y-14495853D01*
X15265681Y-14495853D02*
X15256157Y-14486329D01*
X15256157Y-14486329D02*
X15246633Y-14467281D01*
X15246633Y-14467281D02*
X15237109Y-14429186D01*
X15237109Y-14429186D02*
X15237109Y-14381567D01*
X15237109Y-14381567D02*
X15246633Y-14343472D01*
X15246633Y-14343472D02*
X15256157Y-14324424D01*
X15256157Y-14324424D02*
X15265681Y-14314901D01*
X15265681Y-14314901D02*
X15284728Y-14305377D01*
X15541871Y-14505377D02*
X15427586Y-14505377D01*
X15484728Y-14505377D02*
X15484728Y-14305377D01*
X15484728Y-14305377D02*
X15465681Y-14333948D01*
X15465681Y-14333948D02*
X15446633Y-14352996D01*
X15446633Y-14352996D02*
X15427586Y-14362520D01*
X15713300Y-14305377D02*
X15675205Y-14305377D01*
X15675205Y-14305377D02*
X15656157Y-14314901D01*
X15656157Y-14314901D02*
X15646633Y-14324424D01*
X15646633Y-14324424D02*
X15627586Y-14352996D01*
X15627586Y-14352996D02*
X15618062Y-14391091D01*
X15618062Y-14391091D02*
X15618062Y-14467281D01*
X15618062Y-14467281D02*
X15627586Y-14486329D01*
X15627586Y-14486329D02*
X15637109Y-14495853D01*
X15637109Y-14495853D02*
X15656157Y-14505377D01*
X15656157Y-14505377D02*
X15694252Y-14505377D01*
X15694252Y-14505377D02*
X15713300Y-14495853D01*
X15713300Y-14495853D02*
X15722824Y-14486329D01*
X15722824Y-14486329D02*
X15732348Y-14467281D01*
X15732348Y-14467281D02*
X15732348Y-14419662D01*
X15732348Y-14419662D02*
X15722824Y-14400615D01*
X15722824Y-14400615D02*
X15713300Y-14391091D01*
X15713300Y-14391091D02*
X15694252Y-14381567D01*
X15694252Y-14381567D02*
X15656157Y-14381567D01*
X15656157Y-14381567D02*
X15637109Y-14391091D01*
X15637109Y-14391091D02*
X15627586Y-14400615D01*
X15627586Y-14400615D02*
X15618062Y-14419662D01*
X15818062Y-14505377D02*
X15818062Y-14372043D01*
X15818062Y-14391091D02*
X15827586Y-14381567D01*
X15827586Y-14381567D02*
X15846633Y-14372043D01*
X15846633Y-14372043D02*
X15875205Y-14372043D01*
X15875205Y-14372043D02*
X15894252Y-14381567D01*
X15894252Y-14381567D02*
X15903776Y-14400615D01*
X15903776Y-14400615D02*
X15903776Y-14505377D01*
X15903776Y-14400615D02*
X15913300Y-14381567D01*
X15913300Y-14381567D02*
X15932348Y-14372043D01*
X15932348Y-14372043D02*
X15960919Y-14372043D01*
X15960919Y-14372043D02*
X15979967Y-14381567D01*
X15979967Y-14381567D02*
X15989490Y-14400615D01*
X15989490Y-14400615D02*
X15989490Y-14505377D01*
X16084729Y-14505377D02*
X16084729Y-14372043D01*
X16084729Y-14391091D02*
X16094252Y-14381567D01*
X16094252Y-14381567D02*
X16113300Y-14372043D01*
X16113300Y-14372043D02*
X16141871Y-14372043D01*
X16141871Y-14372043D02*
X16160919Y-14381567D01*
X16160919Y-14381567D02*
X16170443Y-14400615D01*
X16170443Y-14400615D02*
X16170443Y-14505377D01*
X16170443Y-14400615D02*
X16179967Y-14381567D01*
X16179967Y-14381567D02*
X16199014Y-14372043D01*
X16199014Y-14372043D02*
X16227586Y-14372043D01*
X16227586Y-14372043D02*
X16246633Y-14381567D01*
X16246633Y-14381567D02*
X16256157Y-14400615D01*
X16256157Y-14400615D02*
X16256157Y-14505377D01*
X16646633Y-14295853D02*
X16475205Y-14552996D01*
X16903776Y-14305377D02*
X16922824Y-14305377D01*
X16922824Y-14305377D02*
X16941872Y-14314901D01*
X16941872Y-14314901D02*
X16951395Y-14324424D01*
X16951395Y-14324424D02*
X16960919Y-14343472D01*
X16960919Y-14343472D02*
X16970443Y-14381567D01*
X16970443Y-14381567D02*
X16970443Y-14429186D01*
X16970443Y-14429186D02*
X16960919Y-14467281D01*
X16960919Y-14467281D02*
X16951395Y-14486329D01*
X16951395Y-14486329D02*
X16941872Y-14495853D01*
X16941872Y-14495853D02*
X16922824Y-14505377D01*
X16922824Y-14505377D02*
X16903776Y-14505377D01*
X16903776Y-14505377D02*
X16884729Y-14495853D01*
X16884729Y-14495853D02*
X16875205Y-14486329D01*
X16875205Y-14486329D02*
X16865681Y-14467281D01*
X16865681Y-14467281D02*
X16856157Y-14429186D01*
X16856157Y-14429186D02*
X16856157Y-14381567D01*
X16856157Y-14381567D02*
X16865681Y-14343472D01*
X16865681Y-14343472D02*
X16875205Y-14324424D01*
X16875205Y-14324424D02*
X16884729Y-14314901D01*
X16884729Y-14314901D02*
X16903776Y-14305377D01*
X17056157Y-14486329D02*
X17065681Y-14495853D01*
X17065681Y-14495853D02*
X17056157Y-14505377D01*
X17056157Y-14505377D02*
X17046634Y-14495853D01*
X17046634Y-14495853D02*
X17056157Y-14486329D01*
X17056157Y-14486329D02*
X17056157Y-14505377D01*
X17189491Y-14305377D02*
X17208538Y-14305377D01*
X17208538Y-14305377D02*
X17227586Y-14314901D01*
X17227586Y-14314901D02*
X17237110Y-14324424D01*
X17237110Y-14324424D02*
X17246634Y-14343472D01*
X17246634Y-14343472D02*
X17256157Y-14381567D01*
X17256157Y-14381567D02*
X17256157Y-14429186D01*
X17256157Y-14429186D02*
X17246634Y-14467281D01*
X17246634Y-14467281D02*
X17237110Y-14486329D01*
X17237110Y-14486329D02*
X17227586Y-14495853D01*
X17227586Y-14495853D02*
X17208538Y-14505377D01*
X17208538Y-14505377D02*
X17189491Y-14505377D01*
X17189491Y-14505377D02*
X17170443Y-14495853D01*
X17170443Y-14495853D02*
X17160919Y-14486329D01*
X17160919Y-14486329D02*
X17151395Y-14467281D01*
X17151395Y-14467281D02*
X17141872Y-14429186D01*
X17141872Y-14429186D02*
X17141872Y-14381567D01*
X17141872Y-14381567D02*
X17151395Y-14343472D01*
X17151395Y-14343472D02*
X17160919Y-14324424D01*
X17160919Y-14324424D02*
X17170443Y-14314901D01*
X17170443Y-14314901D02*
X17189491Y-14305377D01*
X17427586Y-14372043D02*
X17427586Y-14505377D01*
X17379967Y-14295853D02*
X17332348Y-14438710D01*
X17332348Y-14438710D02*
X17456157Y-14438710D01*
X17570443Y-14305377D02*
X17589491Y-14305377D01*
X17589491Y-14305377D02*
X17608538Y-14314901D01*
X17608538Y-14314901D02*
X17618062Y-14324424D01*
X17618062Y-14324424D02*
X17627586Y-14343472D01*
X17627586Y-14343472D02*
X17637110Y-14381567D01*
X17637110Y-14381567D02*
X17637110Y-14429186D01*
X17637110Y-14429186D02*
X17627586Y-14467281D01*
X17627586Y-14467281D02*
X17618062Y-14486329D01*
X17618062Y-14486329D02*
X17608538Y-14495853D01*
X17608538Y-14495853D02*
X17589491Y-14505377D01*
X17589491Y-14505377D02*
X17570443Y-14505377D01*
X17570443Y-14505377D02*
X17551395Y-14495853D01*
X17551395Y-14495853D02*
X17541872Y-14486329D01*
X17541872Y-14486329D02*
X17532348Y-14467281D01*
X17532348Y-14467281D02*
X17522824Y-14429186D01*
X17522824Y-14429186D02*
X17522824Y-14381567D01*
X17522824Y-14381567D02*
X17532348Y-14343472D01*
X17532348Y-14343472D02*
X17541872Y-14324424D01*
X17541872Y-14324424D02*
X17551395Y-14314901D01*
X17551395Y-14314901D02*
X17570443Y-14305377D01*
X17760919Y-14305377D02*
X17779967Y-14305377D01*
X17779967Y-14305377D02*
X17799015Y-14314901D01*
X17799015Y-14314901D02*
X17808538Y-14324424D01*
X17808538Y-14324424D02*
X17818062Y-14343472D01*
X17818062Y-14343472D02*
X17827586Y-14381567D01*
X17827586Y-14381567D02*
X17827586Y-14429186D01*
X17827586Y-14429186D02*
X17818062Y-14467281D01*
X17818062Y-14467281D02*
X17808538Y-14486329D01*
X17808538Y-14486329D02*
X17799015Y-14495853D01*
X17799015Y-14495853D02*
X17779967Y-14505377D01*
X17779967Y-14505377D02*
X17760919Y-14505377D01*
X17760919Y-14505377D02*
X17741872Y-14495853D01*
X17741872Y-14495853D02*
X17732348Y-14486329D01*
X17732348Y-14486329D02*
X17722824Y-14467281D01*
X17722824Y-14467281D02*
X17713300Y-14429186D01*
X17713300Y-14429186D02*
X17713300Y-14381567D01*
X17713300Y-14381567D02*
X17722824Y-14343472D01*
X17722824Y-14343472D02*
X17732348Y-14324424D01*
X17732348Y-14324424D02*
X17741872Y-14314901D01*
X17741872Y-14314901D02*
X17760919Y-14305377D01*
X17903776Y-14305377D02*
X17903776Y-14343472D01*
X17979967Y-14305377D02*
X17979967Y-14343472D01*
X18275205Y-14581567D02*
X18265681Y-14572043D01*
X18265681Y-14572043D02*
X18246634Y-14543472D01*
X18246634Y-14543472D02*
X18237110Y-14524424D01*
X18237110Y-14524424D02*
X18227586Y-14495853D01*
X18227586Y-14495853D02*
X18218062Y-14448234D01*
X18218062Y-14448234D02*
X18218062Y-14410139D01*
X18218062Y-14410139D02*
X18227586Y-14362520D01*
X18227586Y-14362520D02*
X18237110Y-14333948D01*
X18237110Y-14333948D02*
X18246634Y-14314901D01*
X18246634Y-14314901D02*
X18265681Y-14286329D01*
X18265681Y-14286329D02*
X18275205Y-14276805D01*
X18437110Y-14305377D02*
X18399015Y-14305377D01*
X18399015Y-14305377D02*
X18379967Y-14314901D01*
X18379967Y-14314901D02*
X18370443Y-14324424D01*
X18370443Y-14324424D02*
X18351396Y-14352996D01*
X18351396Y-14352996D02*
X18341872Y-14391091D01*
X18341872Y-14391091D02*
X18341872Y-14467281D01*
X18341872Y-14467281D02*
X18351396Y-14486329D01*
X18351396Y-14486329D02*
X18360919Y-14495853D01*
X18360919Y-14495853D02*
X18379967Y-14505377D01*
X18379967Y-14505377D02*
X18418062Y-14505377D01*
X18418062Y-14505377D02*
X18437110Y-14495853D01*
X18437110Y-14495853D02*
X18446634Y-14486329D01*
X18446634Y-14486329D02*
X18456157Y-14467281D01*
X18456157Y-14467281D02*
X18456157Y-14419662D01*
X18456157Y-14419662D02*
X18446634Y-14400615D01*
X18446634Y-14400615D02*
X18437110Y-14391091D01*
X18437110Y-14391091D02*
X18418062Y-14381567D01*
X18418062Y-14381567D02*
X18379967Y-14381567D01*
X18379967Y-14381567D02*
X18360919Y-14391091D01*
X18360919Y-14391091D02*
X18351396Y-14400615D01*
X18351396Y-14400615D02*
X18341872Y-14419662D01*
X18694253Y-14505377D02*
X18694253Y-14305377D01*
X18779967Y-14505377D02*
X18779967Y-14400615D01*
X18779967Y-14400615D02*
X18770443Y-14381567D01*
X18770443Y-14381567D02*
X18751396Y-14372043D01*
X18751396Y-14372043D02*
X18722824Y-14372043D01*
X18722824Y-14372043D02*
X18703777Y-14381567D01*
X18703777Y-14381567D02*
X18694253Y-14391091D01*
X18903777Y-14505377D02*
X18884729Y-14495853D01*
X18884729Y-14495853D02*
X18875205Y-14486329D01*
X18875205Y-14486329D02*
X18865681Y-14467281D01*
X18865681Y-14467281D02*
X18865681Y-14410139D01*
X18865681Y-14410139D02*
X18875205Y-14391091D01*
X18875205Y-14391091D02*
X18884729Y-14381567D01*
X18884729Y-14381567D02*
X18903777Y-14372043D01*
X18903777Y-14372043D02*
X18932348Y-14372043D01*
X18932348Y-14372043D02*
X18951396Y-14381567D01*
X18951396Y-14381567D02*
X18960919Y-14391091D01*
X18960919Y-14391091D02*
X18970443Y-14410139D01*
X18970443Y-14410139D02*
X18970443Y-14467281D01*
X18970443Y-14467281D02*
X18960919Y-14486329D01*
X18960919Y-14486329D02*
X18951396Y-14495853D01*
X18951396Y-14495853D02*
X18932348Y-14505377D01*
X18932348Y-14505377D02*
X18903777Y-14505377D01*
X19084729Y-14505377D02*
X19065681Y-14495853D01*
X19065681Y-14495853D02*
X19056158Y-14476805D01*
X19056158Y-14476805D02*
X19056158Y-14305377D01*
X19237110Y-14495853D02*
X19218062Y-14505377D01*
X19218062Y-14505377D02*
X19179967Y-14505377D01*
X19179967Y-14505377D02*
X19160919Y-14495853D01*
X19160919Y-14495853D02*
X19151396Y-14476805D01*
X19151396Y-14476805D02*
X19151396Y-14400615D01*
X19151396Y-14400615D02*
X19160919Y-14381567D01*
X19160919Y-14381567D02*
X19179967Y-14372043D01*
X19179967Y-14372043D02*
X19218062Y-14372043D01*
X19218062Y-14372043D02*
X19237110Y-14381567D01*
X19237110Y-14381567D02*
X19246634Y-14400615D01*
X19246634Y-14400615D02*
X19246634Y-14419662D01*
X19246634Y-14419662D02*
X19151396Y-14438710D01*
X19322824Y-14495853D02*
X19341872Y-14505377D01*
X19341872Y-14505377D02*
X19379967Y-14505377D01*
X19379967Y-14505377D02*
X19399015Y-14495853D01*
X19399015Y-14495853D02*
X19408539Y-14476805D01*
X19408539Y-14476805D02*
X19408539Y-14467281D01*
X19408539Y-14467281D02*
X19399015Y-14448234D01*
X19399015Y-14448234D02*
X19379967Y-14438710D01*
X19379967Y-14438710D02*
X19351396Y-14438710D01*
X19351396Y-14438710D02*
X19332348Y-14429186D01*
X19332348Y-14429186D02*
X19322824Y-14410139D01*
X19322824Y-14410139D02*
X19322824Y-14400615D01*
X19322824Y-14400615D02*
X19332348Y-14381567D01*
X19332348Y-14381567D02*
X19351396Y-14372043D01*
X19351396Y-14372043D02*
X19379967Y-14372043D01*
X19379967Y-14372043D02*
X19399015Y-14381567D01*
X19475205Y-14581567D02*
X19484729Y-14572043D01*
X19484729Y-14572043D02*
X19503777Y-14543472D01*
X19503777Y-14543472D02*
X19513300Y-14524424D01*
X19513300Y-14524424D02*
X19522824Y-14495853D01*
X19522824Y-14495853D02*
X19532348Y-14448234D01*
X19532348Y-14448234D02*
X19532348Y-14410139D01*
X19532348Y-14410139D02*
X19522824Y-14362520D01*
X19522824Y-14362520D02*
X19513300Y-14333948D01*
X19513300Y-14333948D02*
X19503777Y-14314901D01*
X19503777Y-14314901D02*
X19484729Y-14286329D01*
X19484729Y-14286329D02*
X19475205Y-14276805D01*
M02*
