%TF.GenerationSoftware,KiCad,Pcbnew,8.0.4*%
%TF.CreationDate,2024-08-30T08:53:53-06:00*%
%TF.ProjectId,SAO_MB_adapter,53414f5f-4d42-45f6-9164-61707465722e,rev?*%
%TF.SameCoordinates,Original*%
%TF.FileFunction,Copper,L1,Top*%
%TF.FilePolarity,Positive*%
%FSLAX46Y46*%
G04 Gerber Fmt 4.6, Leading zero omitted, Abs format (unit mm)*
G04 Created by KiCad (PCBNEW 8.0.4) date 2024-08-30 08:53:53*
%MOMM*%
%LPD*%
G01*
G04 APERTURE LIST*
G04 Aperture macros list*
%AMFreePoly0*
4,1,19,0.550000,-0.750000,0.000000,-0.750000,0.000000,-0.744911,-0.071157,-0.744911,-0.207708,-0.704816,-0.327430,-0.627875,-0.420627,-0.520320,-0.479746,-0.390866,-0.500000,-0.250000,-0.500000,0.250000,-0.479746,0.390866,-0.420627,0.520320,-0.327430,0.627875,-0.207708,0.704816,-0.071157,0.744911,0.000000,0.744911,0.000000,0.750000,0.550000,0.750000,0.550000,-0.750000,0.550000,-0.750000,
$1*%
%AMFreePoly1*
4,1,19,0.000000,0.744911,0.071157,0.744911,0.207708,0.704816,0.327430,0.627875,0.420627,0.520320,0.479746,0.390866,0.500000,0.250000,0.500000,-0.250000,0.479746,-0.390866,0.420627,-0.520320,0.327430,-0.627875,0.207708,-0.704816,0.071157,-0.744911,0.000000,-0.744911,0.000000,-0.750000,-0.550000,-0.750000,-0.550000,0.750000,0.000000,0.750000,0.000000,0.744911,0.000000,0.744911,
$1*%
G04 Aperture macros list end*
%TA.AperFunction,ComponentPad*%
%ADD10C,1.879600*%
%TD*%
%TA.AperFunction,SMDPad,CuDef*%
%ADD11FreePoly0,180.000000*%
%TD*%
%TA.AperFunction,SMDPad,CuDef*%
%ADD12R,1.000000X1.500000*%
%TD*%
%TA.AperFunction,SMDPad,CuDef*%
%ADD13FreePoly1,180.000000*%
%TD*%
%TA.AperFunction,ComponentPad*%
%ADD14C,1.750000*%
%TD*%
%TA.AperFunction,ViaPad*%
%ADD15C,0.600000*%
%TD*%
%TA.AperFunction,Conductor*%
%ADD16C,0.200000*%
%TD*%
G04 APERTURE END LIST*
D10*
%TO.P,J1,1,1*%
%TO.N,SAO_1*%
X159839998Y-120979998D03*
%TO.P,J1,2,2*%
%TO.N,SAO_2*%
X159840000Y-123520002D03*
%TO.P,J1,3,3*%
%TO.N,SDA*%
X157300000Y-120979999D03*
%TO.P,J1,4,4*%
%TO.N,SCL*%
X157300000Y-123520001D03*
%TO.P,J1,5,5*%
%TO.N,SAO_3*%
X154760000Y-120979998D03*
%TO.P,J1,6,6*%
%TO.N,SAO_4*%
X154760002Y-123520002D03*
%TD*%
D11*
%TO.P,JP5-SAOpw,1,A*%
%TO.N,+3.3V*%
X164699999Y-128207498D03*
D12*
%TO.P,JP5-SAOpw,2,C*%
%TO.N,SAO_3*%
X163399999Y-128207498D03*
D13*
%TO.P,JP5-SAOpw,3,B*%
%TO.N,GPIO1*%
X162099999Y-128207498D03*
%TD*%
D14*
%TO.P,MB1,1,+VBATT*%
%TO.N,unconnected-(MB1-+VBATT-Pad1)*%
X148275000Y-113390000D03*
%TO.P,MB1,2,GND*%
%TO.N,GND*%
X150815000Y-113390000D03*
%TO.P,MB1,3,PROG1*%
%TO.N,unconnected-(MB1-PROG1-Pad3)*%
X153355000Y-113390000D03*
%TO.P,MB1,4,PROG2*%
%TO.N,Prog{slash}MOSI*%
X155895000Y-113390000D03*
%TO.P,MB1,5,PROG3*%
%TO.N,Prog{slash}MISO*%
X158435000Y-113390000D03*
%TO.P,MB1,6,PROG4*%
%TO.N,unconnected-(MB1-PROG4-Pad6)*%
X160975000Y-113390000D03*
%TO.P,MB1,7,+3V3*%
%TO.N,+3.3V*%
X163515000Y-113390000D03*
%TO.P,MB1,8,GND*%
%TO.N,GND*%
X166055000Y-113390000D03*
%TO.P,MB1,9,CLK*%
%TO.N,CLK*%
X148275000Y-131170000D03*
%TO.P,MB1,10,NC*%
%TO.N,unconnected-(MB1-NC-Pad10)*%
X150815000Y-131170000D03*
%TO.P,MB1,11,NC*%
%TO.N,unconnected-(MB1-NC-Pad11)*%
X153355000Y-131170000D03*
%TO.P,MB1,12,NC*%
%TO.N,unconnected-(MB1-NC-Pad12)*%
X155895000Y-131170000D03*
%TO.P,MB1,13,SCL*%
%TO.N,SCL*%
X158435000Y-131170000D03*
%TO.P,MB1,14,SDA*%
%TO.N,SDA*%
X160975000Y-131170000D03*
%TO.P,MB1,15,3V3+*%
%TO.N,+3.3V*%
X163515000Y-131170000D03*
%TO.P,MB1,16,GND*%
%TO.N,GND*%
X166055000Y-131170000D03*
%TD*%
D11*
%TO.P,JP4-SAOgnd,1,A*%
%TO.N,GPIO2*%
X153100000Y-128350000D03*
D12*
%TO.P,JP4-SAOgnd,2,C*%
%TO.N,SAO_2*%
X151800000Y-128350000D03*
D13*
%TO.P,JP4-SAOgnd,3,B*%
%TO.N,GND*%
X150500000Y-128350000D03*
%TD*%
D15*
%TO.N,GPIO1*%
X162050000Y-128200000D03*
X148250000Y-125700000D03*
%TO.N,GND*%
X165900000Y-126300000D03*
X157050000Y-115050000D03*
X148200000Y-115350000D03*
X149250000Y-118650000D03*
X156400000Y-129500000D03*
X152100000Y-114650000D03*
X151650000Y-119550000D03*
X153550000Y-126300000D03*
X154700000Y-129500000D03*
X165750000Y-117800000D03*
X157950000Y-126850000D03*
X161850000Y-121700000D03*
X149300000Y-124600000D03*
X158300000Y-118600000D03*
X155800000Y-126750000D03*
X161000000Y-126650000D03*
X164050000Y-118400000D03*
X158050000Y-129300000D03*
%TO.N,GPIO2*%
X152700000Y-122950000D03*
X153050000Y-128300000D03*
%TD*%
D16*
%TO.N,GPIO1*%
X162050000Y-128200000D02*
X162057498Y-128207498D01*
X148650000Y-126100000D02*
X148650000Y-127893877D01*
X155143973Y-128207498D02*
X162042502Y-128207498D01*
X150161123Y-129405000D02*
X153946471Y-129405000D01*
X162042502Y-128207498D02*
X162050000Y-128200000D01*
X148250000Y-125700000D02*
X148650000Y-126100000D01*
X162057498Y-128207498D02*
X162099999Y-128207498D01*
X148650000Y-127893877D02*
X150161123Y-129405000D01*
X153946471Y-129405000D02*
X155143973Y-128207498D01*
%TO.N,GND*%
X166055000Y-126455000D02*
X166055000Y-131170000D01*
X165900000Y-126300000D02*
X166055000Y-126455000D01*
%TO.N,GPIO2*%
X152700000Y-122950000D02*
X152700000Y-127950000D01*
X152700000Y-127950000D02*
X153050000Y-128300000D01*
X153050000Y-128300000D02*
X153100000Y-128350000D01*
%TO.N,+3.3V*%
X164699999Y-129985001D02*
X163515000Y-131170000D01*
X164699999Y-128207498D02*
X164699999Y-129985001D01*
X163515000Y-113390000D02*
X164699999Y-114574999D01*
X164699999Y-114574999D02*
X164699999Y-128207498D01*
%TO.N,SAO_3*%
X160902302Y-124759801D02*
X156759801Y-124759801D01*
X163399999Y-127257498D02*
X160902302Y-124759801D01*
X155999802Y-123999802D02*
X155999802Y-122219800D01*
X163399999Y-128207498D02*
X163399999Y-127257498D01*
X156759801Y-124759801D02*
X155999802Y-123999802D01*
X155999802Y-122219800D02*
X154760000Y-120979998D01*
%TO.N,SAO_2*%
X158600198Y-122280200D02*
X159840000Y-123520002D01*
X158600198Y-120466456D02*
X158600198Y-122280200D01*
X151800000Y-128350000D02*
X151800000Y-122186656D01*
X154246457Y-119740199D02*
X157873941Y-119740199D01*
X151800000Y-122186656D02*
X154246457Y-119740199D01*
X157873941Y-119740199D02*
X158600198Y-120466456D01*
%TD*%
%TA.AperFunction,Conductor*%
%TO.N,GND*%
G36*
X161142024Y-128827683D02*
G01*
X161187779Y-128880487D01*
X161215219Y-128940574D01*
X161215226Y-128940585D01*
X161215229Y-128940592D01*
X161275748Y-129034762D01*
X161293014Y-129061630D01*
X161293017Y-129061634D01*
X161387151Y-129170271D01*
X161387167Y-129170289D01*
X161387170Y-129170292D01*
X161495908Y-129264513D01*
X161556385Y-129303379D01*
X161616856Y-129342242D01*
X161616862Y-129342245D01*
X161747740Y-129402015D01*
X161885695Y-129442522D01*
X162028110Y-129462998D01*
X162028113Y-129462998D01*
X162649999Y-129462998D01*
X162721939Y-129457853D01*
X162733725Y-129454391D01*
X162784558Y-129453032D01*
X162784803Y-129450760D01*
X162801386Y-129452542D01*
X162852126Y-129457998D01*
X163947871Y-129457997D01*
X163962241Y-129456452D01*
X164031000Y-129468855D01*
X164082139Y-129516464D01*
X164099499Y-129579741D01*
X164099499Y-129684901D01*
X164079814Y-129751940D01*
X164063179Y-129772583D01*
X164020160Y-129815601D01*
X163958837Y-129849086D01*
X163892217Y-129845200D01*
X163853826Y-129832020D01*
X163685188Y-129803880D01*
X163628977Y-129794500D01*
X163401023Y-129794500D01*
X163356053Y-129802004D01*
X163176173Y-129832020D01*
X162960581Y-129906034D01*
X162960567Y-129906040D01*
X162760099Y-130014527D01*
X162760090Y-130014533D01*
X162580212Y-130154538D01*
X162580208Y-130154541D01*
X162425817Y-130322255D01*
X162348809Y-130440125D01*
X162295662Y-130485481D01*
X162226431Y-130494905D01*
X162163095Y-130465403D01*
X162141191Y-130440125D01*
X162064183Y-130322255D01*
X161909794Y-130154544D01*
X161909793Y-130154543D01*
X161909791Y-130154541D01*
X161909787Y-130154538D01*
X161729909Y-130014533D01*
X161729900Y-130014527D01*
X161529432Y-129906040D01*
X161529429Y-129906039D01*
X161529426Y-129906037D01*
X161529420Y-129906035D01*
X161529418Y-129906034D01*
X161313826Y-129832020D01*
X161145188Y-129803880D01*
X161088977Y-129794500D01*
X160861023Y-129794500D01*
X160816053Y-129802004D01*
X160636173Y-129832020D01*
X160420581Y-129906034D01*
X160420567Y-129906040D01*
X160220099Y-130014527D01*
X160220090Y-130014533D01*
X160040212Y-130154538D01*
X160040208Y-130154541D01*
X159885817Y-130322255D01*
X159808809Y-130440125D01*
X159755662Y-130485481D01*
X159686431Y-130494905D01*
X159623095Y-130465403D01*
X159601191Y-130440125D01*
X159524183Y-130322255D01*
X159369794Y-130154544D01*
X159369793Y-130154543D01*
X159369791Y-130154541D01*
X159369787Y-130154538D01*
X159189909Y-130014533D01*
X159189900Y-130014527D01*
X158989432Y-129906040D01*
X158989429Y-129906039D01*
X158989426Y-129906037D01*
X158989420Y-129906035D01*
X158989418Y-129906034D01*
X158773826Y-129832020D01*
X158605188Y-129803880D01*
X158548977Y-129794500D01*
X158321023Y-129794500D01*
X158276053Y-129802004D01*
X158096173Y-129832020D01*
X157880581Y-129906034D01*
X157880567Y-129906040D01*
X157680099Y-130014527D01*
X157680090Y-130014533D01*
X157500212Y-130154538D01*
X157500208Y-130154541D01*
X157345817Y-130322255D01*
X157268809Y-130440125D01*
X157215662Y-130485481D01*
X157146431Y-130494905D01*
X157083095Y-130465403D01*
X157061191Y-130440125D01*
X156984183Y-130322255D01*
X156829794Y-130154544D01*
X156829793Y-130154543D01*
X156829791Y-130154541D01*
X156829787Y-130154538D01*
X156649909Y-130014533D01*
X156649900Y-130014527D01*
X156449432Y-129906040D01*
X156449429Y-129906039D01*
X156449426Y-129906037D01*
X156449420Y-129906035D01*
X156449418Y-129906034D01*
X156233826Y-129832020D01*
X156065188Y-129803880D01*
X156008977Y-129794500D01*
X155781023Y-129794500D01*
X155736053Y-129802004D01*
X155556173Y-129832020D01*
X155340581Y-129906034D01*
X155340567Y-129906040D01*
X155140099Y-130014527D01*
X155140090Y-130014533D01*
X154960212Y-130154538D01*
X154960208Y-130154541D01*
X154805817Y-130322255D01*
X154728809Y-130440125D01*
X154675662Y-130485481D01*
X154606431Y-130494905D01*
X154543095Y-130465403D01*
X154521191Y-130440125D01*
X154444183Y-130322255D01*
X154289794Y-130154544D01*
X154247526Y-130121645D01*
X154206713Y-130064934D01*
X154203040Y-129995161D01*
X154237671Y-129934478D01*
X154261685Y-129916407D01*
X154315187Y-129885520D01*
X154426991Y-129773716D01*
X154426991Y-129773714D01*
X154437199Y-129763507D01*
X154437200Y-129763504D01*
X155356390Y-128844317D01*
X155417713Y-128810832D01*
X155444071Y-128807998D01*
X161074985Y-128807998D01*
X161142024Y-128827683D01*
G37*
%TD.AperFunction*%
%TA.AperFunction,Conductor*%
G36*
X165483519Y-114644164D02*
G01*
X165500767Y-114653498D01*
X165500783Y-114653505D01*
X165716298Y-114727492D01*
X165941065Y-114765000D01*
X166168935Y-114765000D01*
X166393691Y-114727494D01*
X166440235Y-114711515D01*
X166510034Y-114708364D01*
X166570455Y-114743450D01*
X166602317Y-114805632D01*
X166604500Y-114828796D01*
X166604500Y-129731202D01*
X166584815Y-129798241D01*
X166532011Y-129843996D01*
X166462853Y-129853940D01*
X166440237Y-129848483D01*
X166393701Y-129832507D01*
X166168935Y-129795000D01*
X165941065Y-129795000D01*
X165716298Y-129832507D01*
X165500780Y-129906495D01*
X165500763Y-129906502D01*
X165483515Y-129915837D01*
X165415187Y-129930432D01*
X165349815Y-129905768D01*
X165308155Y-129849677D01*
X165300499Y-129806782D01*
X165300499Y-129324254D01*
X165320184Y-129257215D01*
X165343292Y-129230544D01*
X165412831Y-129170289D01*
X165506985Y-129061628D01*
X165584769Y-128940592D01*
X165641741Y-128815840D01*
X165643985Y-128811551D01*
X165644497Y-128809806D01*
X165644498Y-128809806D01*
X165685034Y-128671754D01*
X165705496Y-128529439D01*
X165705496Y-128473099D01*
X165705499Y-128473088D01*
X165705499Y-127941924D01*
X165705496Y-127941897D01*
X165705496Y-127885558D01*
X165685034Y-127743242D01*
X165685033Y-127743237D01*
X165666893Y-127681460D01*
X165644497Y-127605189D01*
X165639286Y-127593779D01*
X165584775Y-127474416D01*
X165584772Y-127474412D01*
X165584769Y-127474404D01*
X165506985Y-127353368D01*
X165506984Y-127353367D01*
X165506983Y-127353365D01*
X165506980Y-127353361D01*
X165412846Y-127244724D01*
X165412829Y-127244705D01*
X165412810Y-127244688D01*
X165343297Y-127184455D01*
X165305522Y-127125677D01*
X165300499Y-127090742D01*
X165300499Y-114753217D01*
X165320184Y-114686178D01*
X165372988Y-114640423D01*
X165442146Y-114630479D01*
X165483519Y-114644164D01*
G37*
%TD.AperFunction*%
%TA.AperFunction,Conductor*%
G36*
X150372370Y-113573343D02*
G01*
X150434905Y-113681657D01*
X150523343Y-113770095D01*
X150631657Y-113832630D01*
X150706002Y-113852550D01*
X150034015Y-114524536D01*
X150034015Y-114524538D01*
X150060360Y-114545043D01*
X150060371Y-114545050D01*
X150260769Y-114653499D01*
X150260780Y-114653504D01*
X150476298Y-114727492D01*
X150701065Y-114765000D01*
X150928935Y-114765000D01*
X151153701Y-114727492D01*
X151369219Y-114653504D01*
X151369230Y-114653499D01*
X151569627Y-114545050D01*
X151569633Y-114545046D01*
X151595983Y-114524537D01*
X151595984Y-114524536D01*
X150923997Y-113852550D01*
X150998343Y-113832630D01*
X151106657Y-113770095D01*
X151195095Y-113681657D01*
X151257630Y-113573343D01*
X151277550Y-113498998D01*
X151948123Y-114169571D01*
X151980892Y-114119416D01*
X152034038Y-114074060D01*
X152103269Y-114064636D01*
X152166605Y-114094138D01*
X152188509Y-114119416D01*
X152265817Y-114237745D01*
X152420206Y-114405456D01*
X152420208Y-114405458D01*
X152420212Y-114405461D01*
X152599556Y-114545050D01*
X152600094Y-114545469D01*
X152600096Y-114545470D01*
X152600099Y-114545472D01*
X152716646Y-114608543D01*
X152800574Y-114653963D01*
X152894413Y-114686178D01*
X153016173Y-114727979D01*
X153016175Y-114727979D01*
X153016177Y-114727980D01*
X153241023Y-114765500D01*
X153241024Y-114765500D01*
X153468976Y-114765500D01*
X153468977Y-114765500D01*
X153693823Y-114727980D01*
X153695245Y-114727492D01*
X153727167Y-114716533D01*
X153909426Y-114653963D01*
X154109906Y-114545469D01*
X154289794Y-114405456D01*
X154444183Y-114237745D01*
X154521191Y-114119874D01*
X154574337Y-114074518D01*
X154643568Y-114065094D01*
X154706904Y-114094596D01*
X154728809Y-114119875D01*
X154805814Y-114237742D01*
X154960208Y-114405458D01*
X154960212Y-114405461D01*
X155139556Y-114545050D01*
X155140094Y-114545469D01*
X155140096Y-114545470D01*
X155140099Y-114545472D01*
X155256646Y-114608543D01*
X155340574Y-114653963D01*
X155434413Y-114686178D01*
X155556173Y-114727979D01*
X155556175Y-114727979D01*
X155556177Y-114727980D01*
X155781023Y-114765500D01*
X155781024Y-114765500D01*
X156008976Y-114765500D01*
X156008977Y-114765500D01*
X156233823Y-114727980D01*
X156235245Y-114727492D01*
X156267167Y-114716533D01*
X156449426Y-114653963D01*
X156649906Y-114545469D01*
X156829794Y-114405456D01*
X156984183Y-114237745D01*
X157061191Y-114119874D01*
X157114337Y-114074518D01*
X157183568Y-114065094D01*
X157246904Y-114094596D01*
X157268809Y-114119875D01*
X157345814Y-114237742D01*
X157500208Y-114405458D01*
X157500212Y-114405461D01*
X157679556Y-114545050D01*
X157680094Y-114545469D01*
X157680096Y-114545470D01*
X157680099Y-114545472D01*
X157796646Y-114608543D01*
X157880574Y-114653963D01*
X157974413Y-114686178D01*
X158096173Y-114727979D01*
X158096175Y-114727979D01*
X158096177Y-114727980D01*
X158321023Y-114765500D01*
X158321024Y-114765500D01*
X158548976Y-114765500D01*
X158548977Y-114765500D01*
X158773823Y-114727980D01*
X158775245Y-114727492D01*
X158807167Y-114716533D01*
X158989426Y-114653963D01*
X159189906Y-114545469D01*
X159369794Y-114405456D01*
X159524183Y-114237745D01*
X159601191Y-114119874D01*
X159654337Y-114074518D01*
X159723568Y-114065094D01*
X159786904Y-114094596D01*
X159808809Y-114119875D01*
X159885814Y-114237742D01*
X160040208Y-114405458D01*
X160040212Y-114405461D01*
X160219556Y-114545050D01*
X160220094Y-114545469D01*
X160220096Y-114545470D01*
X160220099Y-114545472D01*
X160336646Y-114608543D01*
X160420574Y-114653963D01*
X160514413Y-114686178D01*
X160636173Y-114727979D01*
X160636175Y-114727979D01*
X160636177Y-114727980D01*
X160861023Y-114765500D01*
X160861024Y-114765500D01*
X161088976Y-114765500D01*
X161088977Y-114765500D01*
X161313823Y-114727980D01*
X161315245Y-114727492D01*
X161347167Y-114716533D01*
X161529426Y-114653963D01*
X161729906Y-114545469D01*
X161909794Y-114405456D01*
X162064183Y-114237745D01*
X162141191Y-114119874D01*
X162194337Y-114074518D01*
X162263568Y-114065094D01*
X162326904Y-114094596D01*
X162348809Y-114119875D01*
X162425814Y-114237742D01*
X162580208Y-114405458D01*
X162580212Y-114405461D01*
X162759556Y-114545050D01*
X162760094Y-114545469D01*
X162760096Y-114545470D01*
X162760099Y-114545472D01*
X162876646Y-114608543D01*
X162960574Y-114653963D01*
X163054413Y-114686178D01*
X163176173Y-114727979D01*
X163176175Y-114727979D01*
X163176177Y-114727980D01*
X163401023Y-114765500D01*
X163401024Y-114765500D01*
X163628977Y-114765500D01*
X163853823Y-114727980D01*
X163892221Y-114714797D01*
X163962013Y-114711647D01*
X164020160Y-114744397D01*
X164063179Y-114787415D01*
X164096665Y-114848737D01*
X164099499Y-114875097D01*
X164099499Y-126808870D01*
X164079814Y-126875909D01*
X164027010Y-126921664D01*
X163957852Y-126931608D01*
X163894296Y-126902583D01*
X163886492Y-126894301D01*
X163886265Y-126894529D01*
X163880520Y-126888784D01*
X163880519Y-126888782D01*
X163768715Y-126776978D01*
X163768714Y-126776977D01*
X163764384Y-126772647D01*
X163764373Y-126772637D01*
X161389892Y-124398156D01*
X161389890Y-124398153D01*
X161271019Y-124279282D01*
X161271014Y-124279278D01*
X161214531Y-124246668D01*
X161166316Y-124196101D01*
X161153092Y-124127494D01*
X161162974Y-124089473D01*
X161206929Y-123989269D01*
X161265525Y-123757880D01*
X161285236Y-123520002D01*
X161282052Y-123481578D01*
X161265526Y-123282132D01*
X161265524Y-123282120D01*
X161206929Y-123050734D01*
X161111048Y-122832149D01*
X161111047Y-122832146D01*
X160980494Y-122632320D01*
X160818832Y-122456707D01*
X160678974Y-122347851D01*
X160638162Y-122291142D01*
X160634487Y-122221369D01*
X160669118Y-122160686D01*
X160678964Y-122152154D01*
X160818830Y-122043293D01*
X160980492Y-121867680D01*
X161111045Y-121667854D01*
X161206927Y-121449265D01*
X161265523Y-121217876D01*
X161285234Y-120979998D01*
X161265523Y-120742120D01*
X161206927Y-120510731D01*
X161111045Y-120292142D01*
X160980492Y-120092316D01*
X160818830Y-119916703D01*
X160630467Y-119770095D01*
X160534150Y-119717970D01*
X160420544Y-119656489D01*
X160420539Y-119656487D01*
X160194784Y-119578986D01*
X160037824Y-119552794D01*
X159959345Y-119539698D01*
X159720651Y-119539698D01*
X159661791Y-119549520D01*
X159485211Y-119578986D01*
X159259456Y-119656487D01*
X159259451Y-119656489D01*
X159049527Y-119770095D01*
X158969234Y-119832589D01*
X158904239Y-119858230D01*
X158835700Y-119844663D01*
X158805392Y-119822415D01*
X158361531Y-119378554D01*
X158361529Y-119378551D01*
X158242658Y-119259680D01*
X158242657Y-119259679D01*
X158155845Y-119209559D01*
X158155845Y-119209558D01*
X158155841Y-119209557D01*
X158105726Y-119180622D01*
X157952998Y-119139698D01*
X157794884Y-119139698D01*
X157787288Y-119139698D01*
X157787272Y-119139699D01*
X154333127Y-119139699D01*
X154333111Y-119139698D01*
X154325515Y-119139698D01*
X154167400Y-119139698D01*
X154091036Y-119160160D01*
X154014671Y-119180622D01*
X154014666Y-119180625D01*
X153877747Y-119259674D01*
X153877739Y-119259680D01*
X151319479Y-121817940D01*
X151296843Y-121857147D01*
X151287276Y-121873720D01*
X151240423Y-121954871D01*
X151199499Y-122107599D01*
X151199499Y-122107601D01*
X151199499Y-122275702D01*
X151199500Y-122275715D01*
X151199500Y-127017209D01*
X151179815Y-127084248D01*
X151127011Y-127130003D01*
X151118833Y-127133391D01*
X151057671Y-127156202D01*
X151057664Y-127156206D01*
X150942455Y-127242452D01*
X150942452Y-127242455D01*
X150856206Y-127357664D01*
X150856202Y-127357671D01*
X150805908Y-127492517D01*
X150801394Y-127534509D01*
X150799500Y-127552127D01*
X150799500Y-128175781D01*
X150799501Y-128680500D01*
X150779816Y-128747539D01*
X150727013Y-128793294D01*
X150675501Y-128804500D01*
X150461221Y-128804500D01*
X150394182Y-128784815D01*
X150373540Y-128768181D01*
X149286819Y-127681460D01*
X149253334Y-127620137D01*
X149250500Y-127593779D01*
X149250500Y-126020945D01*
X149250500Y-126020943D01*
X149209577Y-125868216D01*
X149209573Y-125868209D01*
X149130524Y-125731290D01*
X149130518Y-125731282D01*
X149080700Y-125681464D01*
X149047215Y-125620141D01*
X149045163Y-125607684D01*
X149035368Y-125520745D01*
X148975789Y-125350478D01*
X148879816Y-125197738D01*
X148752262Y-125070184D01*
X148599523Y-124974211D01*
X148429254Y-124914631D01*
X148429249Y-124914630D01*
X148250004Y-124894435D01*
X148249996Y-124894435D01*
X148070750Y-124914630D01*
X148070745Y-124914631D01*
X147893905Y-124976511D01*
X147893206Y-124974515D01*
X147834348Y-124984201D01*
X147770216Y-124956472D01*
X147731256Y-124898472D01*
X147725500Y-124861130D01*
X147725500Y-114829327D01*
X147745185Y-114762288D01*
X147797989Y-114716533D01*
X147867147Y-114706589D01*
X147889761Y-114712045D01*
X147936177Y-114727980D01*
X148161023Y-114765500D01*
X148161024Y-114765500D01*
X148388976Y-114765500D01*
X148388977Y-114765500D01*
X148613823Y-114727980D01*
X148615245Y-114727492D01*
X148647167Y-114716533D01*
X148829426Y-114653963D01*
X149029906Y-114545469D01*
X149209794Y-114405456D01*
X149364183Y-114237745D01*
X149441490Y-114119416D01*
X149494636Y-114074060D01*
X149563867Y-114064636D01*
X149627203Y-114094138D01*
X149649108Y-114119417D01*
X149681874Y-114169570D01*
X150352449Y-113498996D01*
X150372370Y-113573343D01*
G37*
%TD.AperFunction*%
%TA.AperFunction,Conductor*%
G36*
X153505703Y-124242202D02*
G01*
X153528307Y-124268090D01*
X153619508Y-124407684D01*
X153781170Y-124583297D01*
X153969533Y-124729905D01*
X154179457Y-124843511D01*
X154405218Y-124921014D01*
X154640655Y-124960302D01*
X154640656Y-124960302D01*
X154879348Y-124960302D01*
X154879349Y-124960302D01*
X155114786Y-124921014D01*
X155340547Y-124843511D01*
X155550471Y-124729905D01*
X155649738Y-124652642D01*
X155714730Y-124627000D01*
X155783270Y-124640566D01*
X155813580Y-124662815D01*
X156274940Y-125124175D01*
X156274950Y-125124186D01*
X156279280Y-125128516D01*
X156279281Y-125128517D01*
X156391085Y-125240321D01*
X156477896Y-125290440D01*
X156477898Y-125290442D01*
X156515952Y-125312412D01*
X156528016Y-125319378D01*
X156680744Y-125360302D01*
X156680747Y-125360302D01*
X156846454Y-125360302D01*
X156846470Y-125360301D01*
X160602205Y-125360301D01*
X160669244Y-125379986D01*
X160689886Y-125396620D01*
X162042802Y-126749536D01*
X162076287Y-126810859D01*
X162071303Y-126880551D01*
X162029431Y-126936484D01*
X161972768Y-126959954D01*
X161950978Y-126963087D01*
X161885700Y-126972473D01*
X161885690Y-126972475D01*
X161747740Y-127012981D01*
X161616862Y-127072750D01*
X161616860Y-127072752D01*
X161501522Y-127146874D01*
X161500082Y-127147694D01*
X161495900Y-127150486D01*
X161387168Y-127244705D01*
X161387165Y-127244708D01*
X161293017Y-127353362D01*
X161293014Y-127353365D01*
X161215230Y-127474403D01*
X161215219Y-127474421D01*
X161187779Y-127534509D01*
X161142024Y-127587313D01*
X161074985Y-127606998D01*
X155230643Y-127606998D01*
X155230627Y-127606997D01*
X155223031Y-127606997D01*
X155064916Y-127606997D01*
X154988552Y-127627459D01*
X154912187Y-127647921D01*
X154912182Y-127647924D01*
X154775263Y-127726973D01*
X154775255Y-127726979D01*
X154317181Y-128185054D01*
X154255858Y-128218539D01*
X154186166Y-128213555D01*
X154130233Y-128171683D01*
X154105816Y-128106219D01*
X154105500Y-128097373D01*
X154105500Y-128084426D01*
X154105497Y-128084399D01*
X154105497Y-128028060D01*
X154093112Y-127941924D01*
X154085035Y-127885744D01*
X154085035Y-127885743D01*
X154084980Y-127885557D01*
X154061974Y-127807207D01*
X154044498Y-127747691D01*
X154035039Y-127726978D01*
X153984776Y-127616918D01*
X153984773Y-127616914D01*
X153984770Y-127616906D01*
X153906986Y-127495870D01*
X153906985Y-127495869D01*
X153906984Y-127495867D01*
X153906981Y-127495863D01*
X153812847Y-127387226D01*
X153812830Y-127387207D01*
X153812829Y-127387206D01*
X153704091Y-127292985D01*
X153668858Y-127270342D01*
X153583142Y-127215255D01*
X153583136Y-127215252D01*
X153452259Y-127155483D01*
X153389564Y-127137074D01*
X153330786Y-127099299D01*
X153301762Y-127035743D01*
X153300500Y-127018097D01*
X153300500Y-124335915D01*
X153320185Y-124268876D01*
X153372989Y-124223121D01*
X153442147Y-124213177D01*
X153505703Y-124242202D01*
G37*
%TD.AperFunction*%
%TD*%
M02*
